<svg id="Layer_1" data-name="Layer 1" xmlns="http://www.w3.org/2000/svg" xmlns:xlink="http://www.w3.org/1999/xlink" viewBox="0 0 803.56 988.8"><defs><style>.cls-1{fill:url(#radial-gradient);}.cls-2{fill:url(#radial-gradient-2);}.cls-3{fill:url(#radial-gradient-3);}.cls-4{fill:url(#linear-gradient);}.cls-5{fill:url(#linear-gradient-2);}.cls-6{fill:url(#linear-gradient-3);}.cls-7{font-size:200px;fill:#505050;font-family:Poppins-Medium, Poppins;font-weight:500;letter-spacing:0.1em;}</style><radialGradient id="radial-gradient" cx="769.2" cy="547.71" r="393.44" gradientTransform="translate(164.94 1266.55) rotate(-84.95) scale(1 0.98)" gradientUnits="userSpaceOnUse"><stop offset="0" stop-color="#c7a7a8"/><stop offset="0.78" stop-color="#efd3cf"/><stop offset="1" stop-color="#fbe5e1"/></radialGradient><radialGradient id="radial-gradient-2" cx="731.95" cy="580.43" fx="584.7521529899534" fy="527.989570201926" r="500.4" gradientUnits="userSpaceOnUse"><stop offset="0" stop-color="#f9f1d1"/><stop offset="0.23" stop-color="#f9f0ce"/><stop offset="0.38" stop-color="#f8eec5"/><stop offset="0.5" stop-color="#f7eab8"/><stop offset="0.67" stop-color="#f8e8be"/><stop offset="0.9" stop-color="#f9e2d0"/><stop offset="1" stop-color="#fadfda"/></radialGradient><radialGradient id="radial-gradient-3" cx="746.05" cy="590.35" r="264.62" gradientUnits="userSpaceOnUse"><stop offset="0" stop-color="#c7a7a8"/><stop offset="0.58" stop-color="#f8ddd8"/><stop offset="0.7" stop-color="#eadddb"/><stop offset="0.91" stop-color="#c4dde4"/><stop offset="0.97" stop-color="#b9dde7"/></radialGradient><linearGradient id="linear-gradient" x1="458.35" y1="523.98" x2="649.34" y2="336.2" gradientUnits="userSpaceOnUse"><stop offset="0" stop-color="#6c8ea3"/><stop offset="0.09" stop-color="#7a9caf"/><stop offset="0.29" stop-color="#91b4c3"/><stop offset="0.41" stop-color="#9abdcb"/><stop offset="0.55" stop-color="#b4c7d0"/><stop offset="0.84" stop-color="#e6dad9"/><stop offset="0.98" stop-color="#f9e2dd"/></linearGradient><linearGradient id="linear-gradient-2" x1="237.43" y1="439.5" x2="469.85" y2="398.18" gradientUnits="userSpaceOnUse"><stop offset="0" stop-color="#6c8ea3"/><stop offset="0.73" stop-color="#b9dce6"/></linearGradient><linearGradient id="linear-gradient-3" x1="68.49" y1="444.86" x2="298.29" y2="400.51" gradientUnits="userSpaceOnUse"><stop offset="0.24" stop-color="#6d92a8"/><stop offset="0.36" stop-color="#7499ae"/><stop offset="0.54" stop-color="#88acbe"/><stop offset="0.75" stop-color="#a8cbd8"/><stop offset="0.84" stop-color="#b9dce6"/></linearGradient></defs><path class="cls-1" d="M820.88,75.8C890.79,157.67,921.5,245,912.14,335.47c-4.2,40.63-16.57,82-36.77,123.1-16.16,32.86-37.34,65.57-63,97.21-3.62,4.48-7.24,8.82-10.82,13a567.11,567.11,0,0,1-34.81-90c21.39-38.45,36.4-76.58,44.84-114,11.82-52.44,10.85-103.67-2.87-152.27A297.69,297.69,0,0,0,783,149.81C800.41,106.39,818.12,79.82,820.88,75.8Z" transform="translate(-110.22 -75.8)"/><path class="cls-2" d="M781.87,151C738,261.32,697,479,900.43,719.06c0,0-52.38,20.26-106.28-.57,0,0-100-127.35-133-312.28C645.59,319.32,627.86,165,731.52,82.64c10.42,11.93,35.7,37.75,50.35,68.37" transform="translate(-110.22 -75.8)"/><path class="cls-3" d="M739.45,631.7c-8,7-12.83,10.71-13,10.82-64.74,52.28-116,58.35-148.88,58.37h-.07a110.71,110.71,0,0,1-31.1-4.37q9.5-3.87,19.24-8.93c43.89-22.8,91.76-63.8,142.29-121.89l.18-.23C718.86,591.05,729.73,613.35,739.45,631.7Z" transform="translate(-110.22 -75.8)"/><path class="cls-4" d="M638.89,288.71a.49.49,0,0,1,0,.7v0c-.21.23-5.9,7-6.25,50.8-.25,31.16,5.8,62.41,5.87,62.73a.51.51,0,0,1-.14.45C637.71,404,574,467.12,521,520.33c-9.26,9.29-55.49,55.66-56.67,55.74h0a.51.51,0,0,1-.48-.36,344,344,0,0,1-9.95-45.19c-4.66-32.12-2-53.55,7.94-63.71L638.15,288.73l0,0A.5.5,0,0,1,638.89,288.71Z" transform="translate(-110.22 -75.8)"/><path class="cls-5" d="M484.05,655.4c17.78,20.53,37.65,34.32,59.36,41.25-32.77,12.87-63.28,15.06-91,6.5C372.13,678.32,316,562.51,294.3,377.06,285.37,300.61,268.45,239,244,193.91c-3.72-6.85-7.43-13-11.08-18.5a465.7,465.7,0,0,1,27.38-55.15c9.25.62,32.41,9.16,56.06,37.45,17.58,21,32.95,49.51,45.71,84.69,16,44,27.81,98.63,35.27,162.35.06.74,6.66,75.11,32,148.5C444.31,596.38,462.7,630.75,484.05,655.4Z" transform="translate(-110.22 -75.8)"/><path class="cls-6" d="M267.25,589.78c29.35,50.94,62.17,86.14,77,90.17-67.49,16.07-100.5,14.89-103.49,14.74C181.6,617.64,142,540.14,123.19,464.36c-15.09-60.67-17-120.38-5.75-177.48,18.51-93.72,67.1-149.77,71.06-154.21,9.22,4.78,25.59,16.28,43.31,42.85-27.41,66.17-37.84,136.09-31,208.59C209.22,473.4,241.58,545.24,267.25,589.78Z" transform="translate(-110.22 -75.8)"/><text class="cls-7" transform="translate(107.62 872.4)">URAN</text></svg>