<!-- Developer -->
<svg xmlns="http://www.w3.org/2000/svg" width="400" height="400">
  <g transform="translate(46.784 334.912)">
    <path d="M 0 21.408 C 0 9.585 68.597 0 153.216 0 C 237.835 0 306.432 9.585 306.432 21.408 C 306.432 33.231 237.835 42.816 153.216 42.816 C 68.597 42.816 0 33.231 0 21.408 Z" fill="rgb(255, 222, 217)"></path>
    <path d="M 0 21.408 C 0 9.585 68.597 0 153.216 0 C 237.835 0 306.432 9.585 306.432 21.408 C 306.432 33.231 237.835 42.816 153.216 42.816 C 68.597 42.816 0 33.231 0 21.408 Z" fill="rgb(255,255,255)" opacity="0.5"></path>
  </g>
  <path d="M 237.488 352.376 C 237.488 352.376 214.288 359.024 211.048 360.176 C 208.104 361.216 200.12 364.016 194.128 363.144 C 193.55 363.061 192.978 362.938 192.416 362.776 C 186.344 360.968 183.616 359.28 182.816 355.464 C 182.016 351.648 185.04 348.832 187.952 347.032 C 190.864 345.232 206.656 343.352 206.656 343.352 L 210.472 344.472 Z" fill="rgb(255, 222, 217)"></path>
  <path d="M 194.128 363.144 C 193.55 363.061 192.978 362.938 192.416 362.776 C 186.344 360.968 183.616 359.28 182.816 355.464 C 182.016 351.648 185.04 348.832 187.952 347.032 C 190.864 345.232 206.656 343.352 206.656 343.352 L 210.472 344.472 C 207.016 346.072 194.152 346.944 191.344 348.56 C 188.536 350.176 187.184 353.216 188.84 357.36 C 189.728 359.52 192.096 361.64 194.128 363.144 Z" fill="rgb(255,255,255)"></path>
  <path d="M 234 353.32 C 234 353.32 216.576 357.832 209.664 360.72 C 202.752 363.608 189.576 364.872 184.864 358.92 C 180.152 352.968 184.32 347.832 189.016 346.688 C 193.712 345.544 203.208 343.744 208.392 344.472" fill="transparent" stroke-width="0.88" stroke="rgb(38,50,56)" stroke-linecap="round" stroke-linejoin="round"></path>
  <path d="M 194.472 362.832 C 194.472 362.832 185.608 357.968 188.552 351.152 C 190.728 346.128 202.552 347.216 208.408 344.472" fill="transparent" stroke-width="0.88" stroke="rgb(38,50,56)" stroke-linecap="round" stroke-linejoin="round"></path>
  <path d="M 308.152 364.224 C 307.912 366.624 307.072 368.872 304.672 370.288 C 303.072 371.232 300.8 371.792 297.544 371.76 C 289.408 371.656 274.112 365.84 274.112 365.84 L 259.792 357.92 L 267.24 346.136 L 269.28 342.936 L 274.544 344.12 C 274.544 344.12 278.904 346.592 283.288 348.56 C 287.672 350.528 298.32 350.96 302.072 353.976 C 305.824 356.992 308.56 360.272 308.152 364.224 Z" fill="rgb(255, 222, 217)"></path>
  <path d="M 308.152 364.224 C 307.912 366.624 307.072 368.872 304.672 370.288 C 305.363 367.929 305.222 365.403 304.272 363.136 C 302.672 359.544 297.464 356.376 290.616 355.848 C 283.768 355.32 278.528 352.12 275.784 350.688 C 273.64 349.576 269.12 347.144 267.24 346.136 L 269.28 342.936 L 274.544 344.12 C 274.544 344.12 278.904 346.592 283.288 348.56 C 287.672 350.528 298.32 350.96 302.072 353.976 C 305.824 356.992 308.56 360.272 308.152 364.224 Z" fill="rgb(255,255,255)"></path>
  <path d="M 262.968 360.144 C 273.276 366.136 284.668 370.027 296.488 371.592 C 299.096 371.904 302.128 371.952 303.872 369.992 C 304.809 368.848 305.243 367.373 305.072 365.904 C 304.76 362.224 301.664 359.312 298.272 357.848 C 294.88 356.384 291.144 356.048 287.536 355.24 C 283.948 354.431 280.479 353.162 277.216 351.464 C 274.624 350.112 272.12 348.472 269.264 347.864 C 266.408 347.256 263.008 347.992 261.48 350.488" fill="transparent" stroke-width="0.88" stroke="rgb(38,50,56)" stroke-linecap="round" stroke-linejoin="round"></path>
  <path d="M 302.912 370.992 C 305.63 369.691 307.573 367.181 308.152 364.224 C 308.672 360.76 306.696 357.272 303.92 355.144 C 301.144 353.016 297.664 352.008 294.232 351.296 C 290.8 350.584 287.288 350.104 284 348.8 C 278.984 346.832 274.032 342.96 268.8 344.344" fill="transparent" stroke-width="0.88" stroke="rgb(38,50,56)" stroke-linecap="round" stroke-linejoin="round"></path>
  <path d="M 279.128 236.208 L 254.896 226.992 L 254.592 226.872 C 254.592 226.872 254.68 226.232 254.752 225.272 C 254.904 223.336 254.984 220.184 254.072 219.12 C 252.72 217.52 248.896 218.864 245.16 217.152 C 241.424 215.44 234.52 218.504 234.52 218.504 C 234.52 218.504 229.528 217.584 227.32 221.184 C 226.2 224.088 226.584 228.384 226.584 228.384 L 226.128 228.544 C 223.24 229.624 207.528 235.536 204.208 237.912 C 200.536 240.512 196.472 267.208 195.168 275.048 C 193.864 282.888 191.544 289.952 192.72 292.648 C 193.896 295.344 210.776 308.344 220.488 311.696 C 230.2 315.048 264.64 314.096 264.64 314.096 C 264.64 314.096 265.2 313.944 266.2 313.624 C 272.024 311.752 292.688 304.024 303.656 285.88 C 303.672 285.912 293.048 251.088 279.128 236.208 Z M 213.656 281.112 C 211.872 282.376 212.856 287.272 212.856 287.272 L 209.824 284.6 L 217.44 265.872 L 220.688 280.272 C 220.688 280.272 215.44 279.856 213.656 281.112 Z M 274.584 293.008 C 273.744 293.44 276.984 284.44 275.448 282.4 C 273.912 280.36 269.28 280.552 269.28 280.552 L 269.672 278.096 L 272.416 264.016 L 273.328 262.936 C 273.328 262.936 282.752 279.088 284.44 284.784 C 284.44 284.8 274.168 293.008 274.584 293.008 Z" fill="rgb(255, 222, 217)"></path>
  <path d="M 233.376 177.8 L 220.864 191.08 C 220.864 191.08 219.144 192.608 219.824 196.456 C 220.504 200.304 222.104 203.656 223.312 203.88 C 224.268 204.047 225.237 204.133 226.208 204.136 C 226.208 204.136 228.888 209.944 230.792 212.224 C 230.792 212.224 231.448 221.192 231.096 223.68 C 231.096 223.68 235.592 227.608 239.824 228.104 C 244.056 228.6 250.592 222.12 250.592 222.12 L 252.192 214.184 C 252.192 214.184 256.032 208.36 256.288 206.808 C 256.544 205.256 258.304 205.656 259.168 204.888 C 260.032 204.12 262.024 200.704 262.368 197.472 C 262.712 194.24 262.72 190.528 258.968 191.616 C 255.712 190.744 257.752 183.864 257.752 183.864 L 252.032 178.824 Z" fill="rgb(255,255,255)"></path>
  <path d="M 254.896 226.992 C 254.707 227.486 254.491 227.97 254.248 228.44 C 252.184 232.328 243.192 239.744 243.192 239.744 L 240.472 231.384 L 238.984 239.744 C 235.984 238.432 226.832 230.504 226.832 230.504 C 226.832 230.504 226.52 229.76 226.144 228.6 L 226.6 228.44 C 226.6 228.44 226.216 224.112 227.336 221.24 C 229.528 217.64 234.536 218.56 234.536 218.56 C 234.536 218.56 241.44 215.496 245.176 217.208 C 248.912 218.92 252.736 217.592 254.088 219.176 C 255.44 220.76 254.608 226.904 254.608 226.904 Z" fill="rgb(255,255,255)" opacity="0.5"></path>
  <path d="M 279.128 236.208 L 254.896 226.992 L 254.592 226.872 C 254.592 226.872 254.68 226.232 254.752 225.272 L 254.248 228.416 L 250.664 233.28 C 254.495 234.691 258.236 236.336 261.864 238.208 C 265.419 240.112 267.449 243.995 266.984 248 L 262.52 286.2 L 260.688 307.888 L 266.216 313.624 C 272.04 311.752 292.704 304.024 303.672 285.88 C 303.672 285.912 293.048 251.088 279.128 236.208 Z M 274.584 293.008 C 273.744 293.44 276.984 284.44 275.448 282.4 C 273.912 280.36 269.28 280.552 269.28 280.552 L 269.672 278.096 L 272.416 264.016 L 273.328 262.936 C 273.328 262.936 282.752 279.088 284.44 284.784 C 284.44 284.8 274.168 293.008 274.584 293.008 Z M 222.296 282.4 L 218.528 269.808 C 218.528 269.808 211.768 246.76 207.136 241.08 L 208.352 257.288 C 208.352 257.288 204.352 276.648 200.696 282.4 C 197.04 288.152 196.224 289.6 200.696 289.6 C 205.168 289.6 216.056 298.272 216.056 298.272 L 215.216 291.072 Z M 212.8 287.272 L 209.768 284.6 L 217.384 265.872 L 220.632 280.272 C 220.632 280.272 215.416 279.88 213.632 281.136 C 211.848 282.392 212.8 287.272 212.8 287.272 Z" fill="rgb(0,0,0)" opacity="0.2"></path>
  <path d="M 230.792 212.224 C 230.792 212.224 231.48 219.016 230.792 222.12 M 251.288 221.208 C 251.295 219.024 251.548 216.848 252.04 214.72" fill="transparent" stroke-width="0.88" stroke="rgb(38,50,56)" stroke-linecap="round" stroke-linejoin="round"></path>
  <path d="M 253.104 182.864 C 253.104 182.864 257.216 188.024 257 191.928 C 256.784 195.832 256.48 200.456 256.584 204.984 C 256.688 209.512 249.312 219 245.52 219.84 C 241.728 220.68 238.464 220.896 236.04 218.472 C 233.616 216.048 231.192 212.68 228.04 208.36 C 224.888 204.04 225.64 194.56 225.64 194.56" fill="transparent" stroke-width="0.88" stroke="rgb(38,50,56)" stroke-linecap="round" stroke-linejoin="round"></path>
  <path d="M 243.2 198.168 C 242.949 199.586 242.842 201.025 242.88 202.464 C 242.798 203.677 243.175 204.876 243.936 205.824 C 244.392 206.288 245.048 206.664 245.136 207.304 C 245.131 207.891 244.806 208.428 244.288 208.704 C 243.775 208.963 243.28 209.257 242.808 209.584 M 236.696 210.08 C 236.696 210.08 237.168 213.144 241.272 213.784" fill="transparent" stroke-width="0.88" stroke="rgb(38,50,56)" stroke-linecap="round" stroke-linejoin="round"></path>
  <path d="M 237.12 200.504 C 237.12 201.392 236.736 202.104 236.264 202.104 C 235.792 202.104 235.408 201.392 235.408 200.504 C 235.408 199.616 235.792 198.904 236.264 198.904 C 236.736 198.904 237.12 199.624 237.12 200.504 Z M 249.368 200.888 C 249.368 201.776 248.984 202.488 248.512 202.488 C 248.04 202.488 247.656 201.768 247.656 200.888 C 247.656 200.008 248.04 199.288 248.512 199.288 C 248.984 199.288 249.368 200 249.368 200.888 Z" fill="rgb(38,50,56)"></path>
  <path d="M 246.896 197.008 C 246.896 197.008 250.896 193.008 254.248 197.472 M 238.472 197.088 C 238.472 197.088 235.944 194.256 231.96 197.088" fill="transparent" stroke-width="1.77" stroke="rgb(38,50,56)" stroke-linecap="round" stroke-linejoin="round"></path>
  <path d="M 231.096 216 C 231.096 216 233.536 222.72 238.984 224.632 C 244.432 226.544 251.664 216.632 251.664 216.632 L 251.288 215.344 C 251.288 215.344 246.544 221.504 241.272 220.456 C 236 219.408 230.792 212.256 230.792 212.256 Z" fill="rgb(38,50,56)"></path>
  <path d="M 226.208 203.88 C 226.208 203.88 222.96 205.024 222.096 202.496 C 221.232 199.968 218.272 193.304 220.864 191.08 C 223.456 188.856 225.536 194.016 225.536 194.016 M 256.576 205.256 C 256.576 205.256 259.592 205.864 260.456 203.336 C 261.32 200.808 264.28 194.144 261.688 191.92 C 259.096 189.696 257.016 194.856 257.016 194.856" fill="transparent" stroke-width="0.88" stroke="rgb(38,50,56)" stroke-linecap="round" stroke-linejoin="round"></path>
  <path d="M 225.536 200.504 C 226.664 200.326 227.683 199.725 228.384 198.824 C 228.812 198.033 229.084 197.166 229.184 196.272 C 229.481 194.571 229.631 192.847 229.632 191.12 C 229.597 190.445 229.659 189.769 229.816 189.112 C 230.056 188.451 230.426 187.844 230.904 187.328 C 232.032 186 233.4 184.88 234.48 183.504 C 235.65 182.192 236.229 180.456 236.08 178.704 C 241.09 182.835 247.672 184.537 254.056 183.352 C 259.776 182.232 265.256 177.216 264.592 170.912 C 264.335 168.745 262.726 166.982 260.592 166.528 C 257.768 165.824 255.232 167.328 252.672 168.296 C 248.008 170.056 243.44 167.032 238.728 166.528 C 234.728 166.088 229.744 166.592 227.648 170.6 C 227.648 170.6 220.448 171.448 217.248 177.4 C 214.048 183.352 220.104 191.584 220.104 191.584 C 220.104 191.584 222.504 188.64 225.648 194.592 Z" fill="rgb(38,50,56)"></path>
  <path d="M 253.6 181.344 C 253.6 181.344 251.728 191.104 256.616 195.832 C 256.616 195.832 257.688 192.896 258.768 192.176 C 260.351 188.656 260.028 184.572 257.912 181.344 C 254.296 175.664 253.6 181.344 253.6 181.344 Z" fill="rgb(38,50,56)"></path>
  <path d="M 262.512 170.24 C 261.642 172.939 259.576 175.085 256.912 176.056 C 250.128 178.824 243.544 175.76 236.744 175.16 C 231.2 174.664 225.08 179.672 224.688 185.368 M 220.504 183.864 C 220.674 179.276 223.479 175.198 227.704 173.4" fill="transparent" opacity="0.2" stroke-width="0.88" stroke="rgb(255,255,255)" stroke-linecap="round" stroke-linejoin="round"></path>
  <path d="M 229.224 221.208 C 232.207 224.317 235.807 226.769 239.792 228.408 C 239.792 228.408 247.912 226.048 252.04 220.408" fill="transparent" stroke-width="0.88" stroke="rgb(38,50,56)" stroke-linecap="round" stroke-linejoin="round"></path>
  <path d="M 227.997 203.484 C 226.343 199.877 227.926 195.613 231.532 193.959 C 235.138 192.304 239.403 193.887 241.057 197.493 C 242.711 201.1 241.129 205.364 237.522 207.018 C 233.916 208.672 229.651 207.09 227.997 203.484 Z" fill="transparent" stroke-width="0.88" stroke="rgb(38,50,56)" stroke-linecap="round" stroke-linejoin="round"></path>
  <path d="M 243.437 201.395 C 242.954 197.457 245.754 193.873 249.692 193.39 C 253.63 192.906 257.215 195.706 257.698 199.644 C 258.182 203.583 255.381 207.167 251.443 207.65 C 247.505 208.134 243.921 205.334 243.437 201.395 Z" fill="transparent" stroke-width="0.88" stroke="rgb(38,50,56)" stroke-linecap="round" stroke-linejoin="round"></path>
  <path d="M 230.792 218.528 C 229.321 218.914 228.071 219.881 227.328 221.208 C 226.056 223.448 226.824 230.496 226.824 230.496 C 226.824 230.496 233.392 236.992 238.984 239.736 L 240.632 230.464 L 243.192 239.736 C 243.192 239.736 251.848 233.616 254.248 228.44 C 254.248 228.44 255.048 222.4 254.248 220.44 C 253.875 219.324 252.84 218.565 251.664 218.544 M 220.504 280.56 C 220.504 280.56 217.936 263.36 214.52 256.344 M 207.136 241.08 C 209.125 243.907 210.9 246.878 212.448 249.968 M 274.584 253.92 C 275.274 251.044 276.219 248.236 277.408 245.528 M 269.28 280.56 C 269.28 280.56 271.128 268.768 273.336 259.056 M 272.416 264 C 274.202 261.632 276.714 259.912 279.568 259.104" fill="transparent" stroke-width="0.88" stroke="rgb(38,50,56)" stroke-linecap="round" stroke-linejoin="round"></path>
  <path d="M 254.6 226.872 C 254.6 226.872 269.504 232.832 279.128 236.216 C 279.128 236.216 290.968 247.344 303.664 285.912 C 303.664 285.912 292.032 305.48 269.904 311.752" fill="transparent" stroke-width="0.88" stroke="rgb(38,50,56)" stroke-linecap="round" stroke-linejoin="round"></path>
  <path d="M 273.744 293.704 L 284.44 284.8 C 284.44 284.8 290.096 280.504 295.976 283.44 M 273.336 262.936 C 273.336 262.936 282.176 276 284.44 284.8 M 212.92 287.768 L 209.792 284.8 C 209.792 284.8 205.152 284 199.888 287.512 M 209.792 284.8 C 209.792 284.8 213.68 272 217.512 265.448" fill="transparent" stroke-width="0.88" stroke="rgb(38,50,56)" stroke-linecap="round" stroke-linejoin="round"></path>
  <path d="M 226.6 228.44 C 226.6 228.44 205.152 236.488 203.048 238.84 C 200.944 241.192 192.952 286.192 192.736 291.344 C 192.552 295.952 209.256 306.296 217.536 310.656" fill="transparent" stroke-width="0.88" stroke="rgb(38,50,56)" stroke-linecap="round" stroke-linejoin="round"></path>
  <path d="M 242.64 243.648 C 242.64 244.43 242.006 245.064 241.224 245.064 C 240.442 245.064 239.808 244.43 239.808 243.648 C 239.808 242.866 240.442 242.232 241.224 242.232 C 241.6 242.23 241.962 242.378 242.228 242.644 C 242.494 242.91 242.642 243.272 242.64 243.648 Z M 267.456 319.024 L 218.656 319.024 C 218.024 319.024 217.512 318.512 217.512 317.88 C 217.512 317.248 218.024 316.736 218.656 316.736 L 267.456 316.736 C 268.088 316.736 268.6 317.248 268.6 317.88 C 268.6 318.512 268.088 319.024 267.456 319.024 Z" fill="rgb(38,50,56)"></path>
  <path d="M 269.168 315.2 L 275.704 284.48 C 275.909 283.515 275.668 282.509 275.046 281.743 C 274.425 280.978 273.49 280.534 272.504 280.536 L 215.464 280.536 C 214.486 280.536 213.56 280.975 212.94 281.731 C 212.32 282.487 212.072 283.481 212.264 284.44 L 218.128 314.136 C 218.424 315.638 219.725 316.733 221.256 316.768 L 265.888 317.792 C 267.462 317.827 268.838 316.739 269.168 315.2 Z" fill="rgb(255,255,255)" stroke-width="0.88" stroke="rgb(38,50,56)" stroke-linecap="round" stroke-linejoin="round"></path>
  <path d="M 248.352 298.264 C 248.348 300.777 246.308 302.811 243.795 302.808 C 241.282 302.805 239.247 300.766 239.248 298.253 C 239.249 295.74 241.287 293.704 243.8 293.704 C 245.009 293.704 246.168 294.185 247.022 295.04 C 247.875 295.895 248.354 297.055 248.352 298.264 Z" fill="rgb(38,50,56)"></path>
  <path d="M 257.304 283.472 L 264.08 283.472 M 224.944 283.472 L 250.664 283.472" fill="transparent" stroke-width="0.88" stroke="rgb(38,50,56)" stroke-linecap="round" stroke-linejoin="round"></path>
  <path d="M 269.28 347.816 L 264.08 361.464 C 264.08 361.464 250.816 358.12 233.832 354.64 C 216.064 351 197.512 346.288 187.888 329.4 C 186.72 327.344 185.936 324.912 186.488 322.608 C 187.872 316.776 195.464 315.192 200.464 314.608 C 203.607 314.268 206.766 314.092 209.928 314.08 C 211.528 314.08 216.848 313.208 218.136 314.16 C 220.071 315.572 222.137 316.796 224.304 317.816 C 227.144 319.024 268.6 316.736 268.6 316.736 C 269.321 315.163 269.763 313.477 269.904 311.752 C 276.424 308.44 291.504 305.64 297.904 306.88 C 307.928 308.824 313.776 314.672 312.664 320.8 C 311.552 326.928 289.408 343.36 269.28 347.816 Z" fill="rgb(38,50,56)"></path>
  <path d="M 269.28 347.816 C 269.28 347.816 256.664 344.472 246.36 337.512 C 236.056 330.552 228.008 322.472 213.648 324.144" fill="transparent" stroke-width="0.88" stroke="rgb(255,255,255)" stroke-linecap="round" stroke-linejoin="round"></path>
  <path d="M 244 335.872 C 250.512 334 255.288 329.784 260.512 325.744 C 266.022 321.322 271.939 317.432 278.184 314.128" fill="transparent" stroke-width="0.88" stroke="rgb(255,255,255)" stroke-linecap="round" stroke-linejoin="round"></path>
  <path d="M 241.704 201.64 L 243.616 201.64" fill="transparent" stroke-width="0.88" stroke="rgb(38,50,56)" stroke-linecap="round" stroke-linejoin="round"></path>
</svg>