<?xml version="1.0" encoding="utf-8"?>
<!-- Generator: Adobe Illustrator 24.3.0, SVG Export Plug-In . SVG Version: 6.00 Build 0)  -->
<svg version="1.1" id="Layer_1" xmlns="http://www.w3.org/2000/svg" xmlns:xlink="http://www.w3.org/1999/xlink" x="0px" y="0px"
	 viewBox="0 0 750 500" style="enable-background:new 0 0 750 500;" xml:space="preserve">
<style type="text/css">
	.st0{fill:#F5F5F5;}
	.st1{fill:#263238;}
	.st2{fill:#455A64;}
	.st3{fill:#E0E0E0;}
	.st4{fill:#FFFFFF;}
	.st5{fill:#AFDEE9;}
	.st6{fill:#FFBE9D;}
	.st7{opacity:0.2;enable-background:new    ;}
	.st8{opacity:0.2;}
	.st9{fill:#EB996E;}
	.st10{fill:#FFDED9;}
	.st11{fill:#B78876;}
	.st12{fill:#AA6550;}
	.st13{fill:#FAFAFA;}
	.st14{opacity:0.3;}
	.st15{fill:#FAEBB3;}
	#freepik_stories-job-hunt:not(.animated)
	.animable {opacity: 0;}
	#freepik--magnifying-glass--inject-127 {animation: 3.5s Infinite ease floating;
	animation-delay: 0s;}
	@keyframes floating {
		0% {
			transform: translateY(0px) rotate(1deg);
			}
		50% {
			transform: translateY(-12px) rotate(-1deg);
			}
		100% {
			transform: translateY(0px) rotate(1deg);
			}
		}
	.animator-hidden { display: none; }
</style>
<g id="freepik--background-simple--inject-127">
	<path class="st0" d="M91.9,144.4c-4.1,92.2,38.2,159.9,124,228.6c73.7,59,158.6,78.8,254.4,80.1c54.2,0.7,115.4-15.1,156.9-42.9
		s71.9-73.5,71.4-122.2s-37.2-97.1-87.1-104.8c-50.4-7.7-100.7,24.4-151,16.3c-36.5-5.9-65.9-31.8-89-59.6s-42.8-58.8-71.1-81.7
		c-23.6-19-53.3-31.8-84-32.8S154,35.7,133.6,57.9C133.5,57.8,94.1,94.3,91.9,144.4z"/>
</g>
<g id="freepik--Floor--inject-127">
	<path class="st1" d="M698.4,458.2c0,0.1-143.2,0.3-319.8,0.3s-319.9-0.1-319.9-0.3s143.2-0.3,319.9-0.3S698.4,458,698.4,458.2z"/>
</g>
<g id="freepik--Device--inject-127">
	<path class="st1" d="M592.1,69.8H152.5c-7.6,0-13.7,6.1-13.7,13.7l0,0v310.5c0,7.6,6.1,13.7,13.7,13.7l0,0h168.7
		c0,0,10.7,33.2-22.5,50.4h157.8c0,0-37.6-12.9-27.9-50.4h163.6c7.6,0,13.7-6.1,13.7-13.7V83.6C605.8,76,599.7,69.8,592.1,69.8z"/>
	<path class="st2" d="M378.1,375.1c6,8.5-3.4,17.9-11.9,11.9c-0.3-0.2-0.5-0.5-0.7-0.7c-6-8.5,3.4-17.9,11.9-11.9
		C377.7,374.6,378,374.9,378.1,375.1z"/>
	<path class="st3" d="M151.9,88.4h439.8c1.8,0,3.3,1.5,3.3,3.3v258.2c0,1.8-1.5,3.3-3.3,3.3H151.9c-1.8,0-3.3-1.5-3.3-3.3V91.7
		C148.7,89.9,150.1,88.4,151.9,88.4z"/>
	<rect x="148.7" y="107.8" class="st4" width="446.3" height="245.4"/>
	<path class="st2" d="M185.3,98.7c0,2-1.6,3.6-3.6,3.6s-3.6-1.6-3.6-3.6c0-2,1.6-3.6,3.6-3.6c0,0,0,0,0,0
		C183.7,95.1,185.3,96.7,185.3,98.7z"/>
	<path class="st2" d="M163.7,98.7c0,2-1.6,3.6-3.6,3.6s-3.6-1.6-3.6-3.6s1.6-3.6,3.6-3.6c0,0,0,0,0,0
		C162.1,95.1,163.7,96.7,163.7,98.7C163.7,98.7,163.7,98.7,163.7,98.7z"/>
	<path class="st2" d="M174,98.7c0,2-1.6,3.6-3.6,3.6s-3.6-1.6-3.6-3.6s1.6-3.6,3.6-3.6c0,0,0,0,0,0C172.4,95.1,174,96.7,174,98.7
		C174,98.7,174,98.7,174,98.7z"/>
</g>
<g id="freepik--character-3--inject-127">
	<rect x="463.6" y="122.6" class="st0" width="117.5" height="196.4"/>
	<polygon class="st5" points="494.8,238.3 496,240.8 498.8,241.2 496.8,243.2 497.3,246 494.8,244.7 492.2,246 492.7,243.2 
		490.7,241.2 493.5,240.8 	"/>
	<polygon class="st5" points="508.8,238.3 510,240.8 512.8,241.2 510.8,243.2 511.3,246 508.8,244.7 506.2,246 506.7,243.2 
		504.7,241.2 507.5,240.8 	"/>
	<polygon class="st5" points="522.8,238.3 524,240.8 526.8,241.2 524.8,243.2 525.3,246 522.8,244.7 520.2,246 520.7,243.2 
		518.7,241.2 521.5,240.8 	"/>
	<polygon class="st5" points="536.8,238.3 538,240.8 540.8,241.2 538.8,243.2 539.3,246 536.8,244.7 534.2,246 534.7,243.2 
		532.7,241.2 535.5,240.8 	"/>
	<polygon class="st5" points="550.7,238.3 552,240.8 554.8,241.2 552.8,243.2 553.3,246 550.7,244.7 548.2,246 548.7,243.2 
		546.7,241.2 549.5,240.8 	"/>
	<path class="st5" d="M517.5,261.3c0,0.1-8.9,0.3-19.9,0.3s-19.9-0.1-19.9-0.3s8.9-0.3,19.9-0.3S517.5,261.1,517.5,261.3z"/>
	<path class="st1" d="M567.6,270c0,0.1-19.9,0.3-44.5,0.3s-44.5-0.1-44.5-0.3s19.9-0.3,44.5-0.3C547.7,269.7,567.6,269.8,567.6,270z
		"/>
	<path class="st1" d="M567.6,277.4c0,0.1-19.9,0.3-44.5,0.3s-44.5-0.1-44.5-0.3s19.9-0.3,44.5-0.3
		C547.7,277.1,567.6,277.2,567.6,277.4z"/>
	<path class="st1" d="M567.6,284.8c0,0.1-19.9,0.3-44.5,0.3s-44.5-0.1-44.5-0.3s19.9-0.3,44.5-0.3
		C547.7,284.6,567.6,284.7,567.6,284.8z"/>
	<path class="st1" d="M567.6,292.2c0,0.1-19.9,0.3-44.5,0.3s-44.5-0.1-44.5-0.3s19.9-0.3,44.5-0.3
		C547.7,292,567.6,292.1,567.6,292.2z"/>
	<path class="st1" d="M567.6,299.7c0,0.1-19.9,0.3-44.5,0.3s-44.5-0.1-44.5-0.3s19.9-0.3,44.5-0.3
		C547.7,299.4,567.6,299.5,567.6,299.7z"/>
	<rect x="471.3" y="132.6" class="st3" width="101.2" height="97.2"/>
	<polygon class="st6" points="557.5,212.9 564.1,229.8 548.2,229.8 544.6,220.6 	"/>
	<path class="st5" d="M496.8,229.8H540c0.7-6.4,1.1-12.4,1.1-12.4l2.2,6l18.1-9.1c0,0-6.6-17.6-12.1-23.5c-7-7.5-19.5-6.8-19.5-6.8
		l-16.3,0.3c-4.2,0.5-8.2,1.7-12,3.5l-0.4,0.1v0.1c-3.5,3-14.1,17.2-14.1,17.2l3.9,3.8l8,7.4c0,0,0,0.1,0,0.1
		C499,217.4,496.8,229.8,496.8,229.8z"/>
	<path class="st1" d="M530.3,183.4c0,0,0,0.1,0.1,0.3c0.1,0.3,0.1,0.6,0.1,0.9c0.1,1.1-0.1,2.1-0.4,3.2c-0.5,1.5-1.4,2.9-2.7,3.9
		c-3.2,2.6-7.7,2.7-11,0.3c-1.3-1-2.3-2.3-2.9-3.8c-0.4-1-0.6-2.1-0.6-3.1c0-0.3,0-0.6,0.1-0.9c0-0.2,0-0.3,0.1-0.3
		c0,1.4,0.3,2.8,0.8,4.1c0.6,1.4,1.6,2.6,2.8,3.5c3.1,2.2,7.4,2.1,10.4-0.3c1.2-1,2.1-2.3,2.6-3.7
		C530.1,186.3,530.4,184.9,530.3,183.4z"/>
	<path class="st1" d="M545.7,187.3c0,0.1-0.4,0-1.2,0.3c-1,0.4-1.9,1-2.5,1.9c-0.9,1.3-1.5,2.8-1.6,4.4c-0.2,1.8-0.3,3.8-0.4,5.9
		c-0.1,4.2,0,8,0.2,10.8c0.1,1.3,0.2,2.4,0.2,3.3c0.1,0.4,0.1,0.8,0,1.2c-0.1-0.4-0.2-0.8-0.2-1.2c-0.1-0.8-0.3-1.9-0.4-3.3
		c-0.4-3.6-0.5-7.2-0.4-10.8c0-2,0.2-4,0.4-6c0.2-1.7,0.8-3.2,1.8-4.6c0.7-0.9,1.7-1.5,2.7-1.9c0.3-0.1,0.6-0.1,0.9-0.1
		C545.6,187.3,545.7,187.3,545.7,187.3z"/>
	<path class="st1" d="M507,185.5c-0.1,0.4-0.2,0.8-0.3,1.2c-0.3,0.9-0.6,2-1,3.3c-0.8,2.8-1.9,6.6-3.1,10.9s-2,8.2-2.6,11
		c-0.3,1.3-0.5,2.4-0.8,3.4c-0.1,0.4-0.2,0.8-0.3,1.2c0-0.4,0-0.8,0.1-1.3c0.1-0.8,0.3-2,0.6-3.4c0.5-2.9,1.4-6.8,2.5-11.1
		s2.3-8.1,3.2-10.9c0.5-1.4,0.9-2.5,1.1-3.2C506.6,186.2,506.8,185.9,507,185.5z"/>
	<path class="st7" d="M539.7,201l6,21.3l-2.4,1.2l-2.2-6C541.1,217.5,538.9,204.8,539.7,201z"/>
	<g class="st8">
		<path d="M507.7,185.5c-3.5,1.8,5,6.3,8.9,6.3l-2.6-7.6C514,184.2,508.9,184.9,507.7,185.5z"/>
	</g>
	<path class="st6" d="M522.3,193.2L522.3,193.2c-4.7,0.3-8.9-3.3-9.2-8c0-0.3,0-0.6,0-0.9c0.1-2.8,0.2-5,0.2-5s-6.9-0.6-7.4-7.4
		s-0.4-22.5-0.4-22.5l0,0c7.6-3.9,16.8-3.4,23.9,1.4l1.1,0.7l-0.1,33.2C530.3,189.2,526.8,192.9,522.3,193.2z"/>
	<path class="st1" d="M509.2,161.4c0.4-0.4,0.4-1,0-1.4c-0.4-0.4-1-0.4-1.4,0c-0.4,0.4-0.4,1,0,1.4c0,0,0,0,0,0
		C508.2,161.8,508.8,161.8,509.2,161.4z"/>
	<path class="st1" d="M506.2,159.4c0.1,0.1,0.7-0.4,1.7-0.5s1.6,0.4,1.7,0.2s-0.1-0.3-0.4-0.5c-0.4-0.3-0.9-0.4-1.4-0.3
		c-0.5,0-1,0.2-1.3,0.6C506.2,159.1,506.1,159.3,506.2,159.4z"/>
	<path class="st1" d="M517.8,159.9c-0.5,0.3-0.6,0.9-0.2,1.4c0.3,0.5,0.9,0.6,1.4,0.2c0.5-0.3,0.6-0.9,0.2-1.4c0,0,0,0,0,0
		C518.8,159.7,518.2,159.6,517.8,159.9z"/>
	<path class="st1" d="M516.1,159.4c0.1,0.1,0.8-0.4,1.7-0.5s1.6,0.4,1.7,0.2s-0.1-0.3-0.4-0.5c-0.4-0.3-0.9-0.4-1.4-0.3
		c-0.5,0-1,0.2-1.3,0.6C516.1,159.1,516,159.4,516.1,159.4z"/>
	<path class="st1" d="M513.1,167.7c-0.5-0.2-1-0.2-1.5-0.2c-0.2,0-0.4-0.1-0.5-0.2c0-0.2,0-0.5,0.1-0.7l0.6-2c0.6-1.7,1-3.4,1.3-5.1
		c-0.8,1.6-1.4,3.2-1.8,4.9c-0.2,0.7-0.4,1.3-0.6,2c-0.1,0.3-0.2,0.7-0.1,1c0.1,0.2,0.3,0.3,0.5,0.4c0.1,0,0.3,0,0.4,0
		C512.1,167.8,512.6,167.8,513.1,167.7z"/>
	<path class="st9" d="M513.3,179.2c3.1-0.2,6.2-1.2,8.7-3.1c0,0-1.8,5-8.6,4.9L513.3,179.2z"/>
	<path class="st6" d="M530.2,158.7c0.1-0.1,5.6-0.6,4.7,4.6c-0.7,4.5-5.6,3.1-5.6,3S530.2,158.7,530.2,158.7z"/>
	<path class="st9" d="M531.2,164.4c0,0,0.1,0.1,0.2,0.1c0.2,0.1,0.4,0.1,0.6,0.1c0.6-0.3,1-1,1-1.7c0-0.4,0-0.8-0.1-1.1
		c-0.1-0.3-0.3-0.5-0.5-0.6c-0.2-0.1-0.4,0-0.5,0.2c-0.1,0.1,0,0.2-0.1,0.2s-0.1-0.1,0-0.3c0-0.1,0.1-0.2,0.2-0.3
		c0.1-0.1,0.3-0.1,0.4-0.1c0.4,0.1,0.7,0.4,0.8,0.8c0.2,0.4,0.2,0.8,0.2,1.3c0,0.8-0.5,1.6-1.3,1.9c-0.3,0.1-0.5,0-0.7-0.2
		C531.2,164.5,531.2,164.4,531.2,164.4z"/>
	<path class="st1" d="M529.1,163.5c-1,0.6-2.5-0.2-3-1.3c-0.4-1.2-0.6-2.4-0.5-3.6c-0.1-1.7-0.3-3.3-0.9-4.9c-0.2-1.9-1.9-3.3-3.8-3
		c-0.5,0.1-1,0.2-1.5,0.5c-1.1,0.5-2.3,0.8-3.5,0.9c-1.6-0.1-2.9-1.4-4.5-1.6s-2.9,0.5-4.4,0.9c-1.4,0.5-3,0.4-4.4-0.1
		c-1.4-0.6-2.4-2-2.4-3.5c0.1-1.5,1.4-2.6,2.9-2.5c0.1,0,0.2,0,0.2,0c-1-0.7-1.2-2-0.6-3c0.1-0.1,0.1-0.2,0.2-0.3
		c1-0.9,2.3-1.2,3.5-0.7c1.2,0.5,2.3,1.2,3.2,2.1c0.3-1.1,1.2-2,2.4-2c1.2,0,2.3,0.4,3.2,1.1c1,0.6,1.8,1.4,2.8,2
		c2,1.1,4.4,1.2,6.6,1.6s4.7,1.3,5.8,3.3c1,1.8,0.3,3.9,0.2,5.9s-0.1,2.6-0.2,4.5C530.5,159.8,530.6,162.6,529.1,163.5z"/>
	<path class="st4" d="M512.3,170.4c0,0.1,0.2,0.2,0.7,0.2c1.2,0,2.3-0.8,2.7-2c0.1-0.4,0.1-0.7,0-0.7s-0.4,1-1.4,1.8
		C513.7,170,513,170.3,512.3,170.4z"/>
	<path class="st2" d="M504.5,146.7c-0.3,0.2-0.5,0.6-0.4,1c0,0.4,0.2,0.8,0.6,1.1c0.4,0.4,1,0.5,1.6,0.4c0.7-0.1,1.3-0.4,1.9-0.8
		c0.6-0.4,1.3-0.8,2-1c0.8-0.2,1.7,0,2.4,0.4c0.8,0.4,1.5,0.9,2.3,1.4c0.8,0.5,1.7,0.8,2.6,0.8c0.9-0.1,1.7-0.5,2.3-1.1
		c0.6-0.5,1.2-0.9,1.9-1.1c0.6-0.2,1.3-0.1,1.9,0.1c0.9,0.3,1.6,1,2.1,1.8c0.1,0.3,0.2,0.7,0.3,1c0-0.3-0.1-0.7-0.2-1
		c-0.4-0.9-1.2-1.6-2.1-1.9c-0.6-0.2-1.3-0.3-2-0.1c-0.7,0.2-1.4,0.6-2,1.1c-0.6,0.5-1.4,0.9-2.2,1c-0.9,0-1.8-0.3-2.5-0.8
		c-0.8-0.5-1.5-1-2.3-1.4c-0.8-0.4-1.6-0.6-2.5-0.4c-0.7,0.2-1.4,0.6-2,1c-0.5,0.4-1.2,0.6-1.8,0.8c-0.5,0.1-1.1,0-1.5-0.3
		c-0.3-0.3-0.5-0.6-0.6-1C504.1,147.3,504.2,146.9,504.5,146.7z"/>
	<path class="st2" d="M507.5,143.1c0-0.1-0.1-0.1-0.2-0.2c-0.2-0.1-0.5-0.1-0.8,0c-0.4,0.2-0.6,0.6-0.6,1c0.1,0.6,0.5,1,1,1.2
		c0.6,0.2,1.3,0.2,1.9-0.1c0.7-0.3,1.4-0.5,2.1-0.6c0.8-0.1,1.6,0.2,2.1,0.8c0.6,0.6,1.3,1.2,2,1.6c0.8,0.3,1.8,0.2,2.6-0.1
		c0.7-0.3,1.5-0.6,2.3-0.7c2.3-0.3,4.5,0.8,5.7,2.8c0.3,0.6,0.4,0.9,0.4,0.9c-0.1-0.3-0.2-0.6-0.4-0.9c-0.4-0.8-1.1-1.5-1.8-2.1
		c-1.2-0.8-2.6-1.1-3.9-0.9c-0.8,0.1-1.6,0.4-2.3,0.7c-0.8,0.4-1.6,0.4-2.4,0.1c-0.7-0.4-1.4-1-2-1.6c-0.6-0.6-1.4-0.9-2.2-0.9
		c-0.7,0.1-1.4,0.4-2.1,0.6c-0.6,0.2-1.2,0.3-1.8,0.1c-0.5-0.2-0.9-0.6-0.9-1.1c-0.1-0.4,0.1-0.8,0.5-0.9c0.2-0.1,0.5-0.1,0.7,0
		C507.4,143,507.5,143.1,507.5,143.1z"/>
	<path class="st1" d="M527.5,148.4c0.1,0.1,0.5-0.8,1.4-1.3s1.8-0.5,1.8-0.7s-0.2-0.2-0.6-0.2c-1,0-2,0.6-2.4,1.5
		C527.5,148.1,527.5,148.4,527.5,148.4z"/>
	<path class="st1" d="M528.3,143.4c-0.1,0,0.1,1.1-0.1,2.3s-0.6,2.2-0.5,2.3C528.8,146.7,529.1,144.9,528.3,143.4L528.3,143.4z"/>
	<path class="st2" d="M529.9,161.6c0.4-0.6,0.5-1.3,0.3-1.9c-0.2-0.7-0.6-1.3-1.1-1.9c-0.3-0.3-0.4-0.7-0.5-1.1c0-0.4,0-0.9,0.2-1.3
		c0.3-0.9,0.3-1.8,0.2-2.6c-0.2-0.7-0.6-1.4-1.2-1.8c-0.4-0.3-0.9-0.4-1.4-0.4c-0.2,0-0.4,0.1-0.5,0.1c0,0,0.2,0,0.5-0.1
		c0.5,0,0.9,0.2,1.3,0.4c0.6,0.4,1,1,1.1,1.7c0.2,0.8,0.1,1.7-0.2,2.6c-0.1,0.4-0.2,0.9-0.2,1.4c0.1,0.4,0.3,0.8,0.6,1.2
		c0.5,0.5,0.9,1.1,1.1,1.8c0.1,0.5,0.1,0.9,0,1.4C530.1,161.3,530,161.4,529.9,161.6z"/>
	<path class="st1" d="M525,210c0,0.2,0,0.4,0,0.6c0,0.5,0,1,0,1.7c0,1.5,0.1,3.6,0.1,6.1l-0.1-0.2l3.1,2.9h-0.3l5.3-2.1l-0.2,0.2
		c0-0.2,0.1-0.3,0.1-0.5c0.6-3.1,1.1-6.1,1.6-8.7l0.2,0.3c-3,0-5.4-0.1-7.2-0.1l-2.1-0.1C525.5,210.1,525.2,210.1,525,210
		c0.2,0,0.5-0.1,0.7-0.1l2-0.1c1.8,0,4.3-0.1,7.3-0.1h0.3v0.3c-0.5,2.6-1,5.6-1.5,8.7l-0.1,0.5v0.1l-0.1,0.1l-5.3,2.1l-0.2,0.1
		l-0.1-0.1l-3-2.9l-0.1-0.1v-0.1c0-2.6,0.1-4.7,0.1-6.2c0-0.7,0-1.2,0.1-1.7C525,210.4,525,210.2,525,210z"/>
	<path class="st1" d="M534.4,212.6c-1.5,0.3-3.1,0.5-4.7,0.4c-1.6,0.1-3.2,0-4.7-0.4c1.6-0.2,3.2-0.2,4.7-0.2
		C531.3,212.4,532.8,212.4,534.4,212.6z"/>
	<path class="st6" d="M489.3,207.4c0.2,0.2-16,22.4-16,22.4h15.9l9.8-13.4L489.3,207.4z"/>
</g>
<g id="freepik--character-2--inject-127">
	<rect x="289.5" y="86.1" class="st0" width="167.5" height="279.9"/>
	<polygon class="st10" points="334,250.9 335.8,254.6 339.8,255.2 336.9,258 337.6,262 334,260.1 330.4,262 331.1,258 328.2,255.2 
		332.2,254.6 	"/>
	<polygon class="st10" points="353.9,250.9 355.7,254.6 359.7,255.2 356.8,258 357.5,262 353.9,260.1 350.3,262 351,258 
		348.1,255.2 352.1,254.6 	"/>
	<polygon class="st10" points="373.9,250.9 375.7,254.6 379.7,255.2 376.8,258 377.5,262 373.9,260.1 370.3,262 371,258 
		368.1,255.2 372.1,254.6 	"/>
	<polygon class="st10" points="393.8,250.9 395.6,254.6 399.6,255.2 396.7,258 397.4,262 393.8,260.1 390.2,262 390.9,258 
		388,255.2 392,254.6 	"/>
	<polygon class="st10" points="413.8,250.9 415.6,254.6 419.6,255.2 416.7,258 417.4,262 413.8,260.1 410.2,262 410.9,258 
		408,255.2 412,254.6 	"/>
	<path class="st10" d="M366.5,283.8c0,0.1-12.7,0.3-28.4,0.3s-28.4-0.1-28.4-0.3s12.7-0.3,28.4-0.3S366.5,283.6,366.5,283.8z"/>
	<path class="st1" d="M437.9,296.1c0,0.1-28.4,0.3-63.4,0.3s-63.4-0.1-63.4-0.3s28.4-0.3,63.4-0.3S437.9,295.9,437.9,296.1z"/>
	<path class="st1" d="M437.9,306.7c0,0.1-28.4,0.3-63.4,0.3s-63.4-0.1-63.4-0.3s28.4-0.3,63.4-0.3S437.9,306.5,437.9,306.7z"/>
	<path class="st1" d="M437.9,317.3c0,0.1-28.4,0.3-63.4,0.3s-63.4-0.1-63.4-0.3s28.4-0.3,63.4-0.3S437.9,317.1,437.9,317.3z"/>
	<path class="st1" d="M437.9,327.9c0,0.1-28.4,0.3-63.4,0.3s-63.4-0.1-63.4-0.3s28.4-0.3,63.4-0.3S437.9,327.7,437.9,327.9z"/>
	<path class="st1" d="M437.9,338.5c0,0.1-28.4,0.3-63.4,0.3s-63.4-0.1-63.4-0.3s28.4-0.3,63.4-0.3S437.9,338.3,437.9,338.5z"/>
	<rect x="300.6" y="100.3" class="st3" width="144.3" height="138.5"/>
	<path class="st1" d="M364.5,123.3c1.5-5.1,6.1-8.9,11.3-10.1s11.5-2.9,16.2-0.5c2.9,1.5,5.8,3.7,6.9,6.8c1.4,3.7-0.7,10.5-1.8,14.3
		s-1.8,8.1,0.2,11.4s6.1,4.5,8.7,7.3c3.5,4.2,3.1,10.5-1,14.1c4.5-0.3,8.4,4.4,8.2,8.9s-3.5,8.6-7.5,10.6s-8.8,2.5-13.3,2.5
		c-5.6,0-11.3-0.6-16.8-1.8c-4.5-1-9.3-2.5-12.3-6.1c-2.7-3.3-3.5-7.8-3.5-12.1c0-15.1,7.9-30.1,4.5-44.9"/>
	<path class="st1" d="M368.1,119.8c-6.8-4.7-16.2-2.9-20.9,3.9c-2.1,3-3,6.7-2.5,10.3c0.4,3,1.6,6,0.9,8.9
		c-1.4,5.4-9.1,7.5-10.1,13.1c-0.4,2.2,0.4,4.4,1,6.5s1,4.5-0.1,6.5c-0.8,1.4-2.3,2.3-3.5,3.5c-3.7,3.7-3.6,10.2-0.5,14.5
		s8.6,6.3,13.9,6.1s10.3-2.3,14.8-5.1"/>
	<path class="st11" d="M357.1,125.9l0.1,3.6l0.7,53.9c0.1,6.3,5.5,11.2,12.2,11l0,0c6.8-0.1,12.3-5.4,12.3-11.7
		c0-6.6,0.2-13.6,0.2-13.6s8.5-1.4,10.3-12.6c0.9-5.5,0.6-14.6,0.1-22.1c-0.4-6.5-6-11.4-12.5-11c-0.2,0-0.4,0-0.5,0L357.1,125.9z"
		/>
	<path class="st1" d="M388.7,140.8c0,0.8-0.6,1.4-1.4,1.4c-0.7,0.1-1.4-0.5-1.5-1.2c0,0,0,0,0,0c0-0.8,0.6-1.4,1.4-1.4
		C388,139.4,388.6,140,388.7,140.8C388.7,140.7,388.7,140.7,388.7,140.8z"/>
	<path class="st1" d="M391,139.2c-0.2,0.2-1.3-0.6-2.8-0.6s-2.7,0.8-2.8,0.6s0.1-0.4,0.6-0.8c0.7-0.5,1.5-0.7,2.3-0.7
		c0.8,0,1.6,0.3,2.2,0.7C390.9,138.7,391.1,139.1,391,139.2z"/>
	<path class="st1" d="M373.9,140.8c0,0.8-0.6,1.4-1.4,1.4c-0.8,0.1-1.4-0.5-1.5-1.3c0,0,0,0,0,0c0-0.8,0.6-1.4,1.4-1.4
		C373.2,139.4,373.8,140,373.9,140.8C373.9,140.7,373.9,140.7,373.9,140.8z"/>
	<path class="st1" d="M375.9,139.4c-0.2,0.2-1.3-0.6-2.8-0.6s-2.7,0.8-2.8,0.6s0.1-0.4,0.6-0.8c0.7-0.5,1.5-0.7,2.3-0.7
		c0.8,0,1.6,0.3,2.2,0.7C375.8,139,376,139.4,375.9,139.4z"/>
	<path class="st1" d="M381.5,150.9c0.8-0.3,1.7-0.4,2.5-0.4c0.4,0,0.8-0.1,0.8-0.4c0-0.4-0.1-0.8-0.3-1.2l-1.2-3
		c-1.6-4.3-2.8-7.8-2.6-7.8s1.6,3.3,3.2,7.6c0.4,1.1,0.8,2.1,1.1,3c0.3,0.5,0.3,1,0.2,1.5c-0.1,0.3-0.3,0.5-0.6,0.6
		c-0.2,0.1-0.4,0.1-0.7,0.1C383.2,150.9,382.3,151,381.5,150.9z"/>
	<path class="st12" d="M382.5,169.1c-5.3,0.1-10.4-1.3-14.9-4c0,0,3.6,7.7,14.8,6.6L382.5,169.1z"/>
	<path class="st12" d="M380.8,154.6c-0.6-0.7-1.5-1.1-2.5-1c-0.7,0.1-1.3,0.4-1.7,0.9c-0.4,0.5-0.5,1.3-0.1,1.8
		c0.5,0.6,1.3,0.8,2,0.5c0.7-0.3,1.4-0.7,2-1.2c0.2-0.1,0.3-0.3,0.4-0.5C381,155,381,154.8,380.8,154.6"/>
	<path class="st1" d="M377,151.9c0.2,0,0.2,1.6,1.7,2.8s3.2,1,3.2,1.2s-0.4,0.3-1.1,0.4c-1,0-1.9-0.3-2.7-0.9
		c-0.7-0.6-1.2-1.4-1.3-2.4C376.6,152.3,376.8,151.9,377,151.9z"/>
	<path class="st1" d="M366.2,120.7c0-0.1,0.2-0.2,0.3-0.2s0.1,0.2,0.1,0.3c0,0.1-0.2,0.2-0.3,0.2
		C366.1,120.9,366.1,120.8,366.2,120.7z"/>
	<path class="st1" d="M356.5,178.6c3.3-1.2,5.9-3.9,7.1-7.2c1.2-3.3,1.3-6.9,0.2-10.3c-0.4-1.6-1.1-3.2-0.4-4.7
		c0.6-1,1.5-1.8,2.4-2.5c1.9-1.8,3-4.3,3.2-7c0.1-2.6-0.4-5.3-1.4-7.7c-0.5-1.4-1.2-2.8-0.7-4.2c0.4-0.9,1.1-1.7,1.9-2.4
		c1.6-1.5,2.9-3.2,3.9-5.2c0.7-1.4,1.2-3,0.5-4.4c-0.8-1.7-2.9-2.2-4.8-2.3c-4.4-0.3-9.3,0.6-12.1,4.1c-2.5,3.1-2.8,7.3-3,11.3
		c-0.6,12.5-1.1,25.1,1,37.4"/>
	<path class="st1" d="M397.2,124.6c-0.6,0.4-1.3,0.7-1.9,1c-0.6,0.4-1.1,0.9-1.6,1.4c-0.3,0.3-0.6,0.6-0.9,0.9l-0.2,0.2l-0.3,0.3
		l-0.8,0.7c-0.7,0.7-1.5,1.3-2.4,1.9c-1.3,0.9-2.7,1.5-4.1,1.9c-2.9,0.6-5.8,0.3-8.5-1c-1.8-0.9-3.4-2.1-4.6-3.7
		c-1.9-2.5-2.2-4.6-1.3-5.7s3.1-1,5.5-0.3c1.2,0.3,2.4,0.6,3.6,0.7c1,0.1,1.9,0.1,2.9-0.1c0.5-0.1,0.9-0.3,1.4-0.5
		c0.6-0.3,1.4-0.7,2.3-1.1c0.5-0.2,0.9-0.4,1.4-0.6c0.2-0.1,0.5-0.2,0.8-0.3s0.6-0.2,0.9-0.3c1.1-0.3,2.2-0.4,3.3-0.3
		c1.8,0.1,3.5,0.9,4.6,2.4C397.9,122.9,397.9,124,397.2,124.6z"/>
	<path class="st2" d="M340.9,186.3c-0.1,0-0.1-0.1-0.2-0.2c-0.2-0.2-0.3-0.3-0.4-0.5c-0.5-0.7-0.9-1.5-1.1-2.3
		c-0.4-1.3-0.4-2.7-0.2-4c0.4-1.8,1.3-3.4,2.7-4.6c1.5-1.4,3.4-2.4,5.2-3.8c0.9-0.7,1.7-1.6,2.4-2.6c0.7-1,0.9-2.3,0.8-3.5
		c-0.3-2.5-2.4-4.7-2.6-7.8c-0.1-3.1,1.5-6,4.3-7.4c1.3-0.6,2.6-1.3,3.8-2.2c1-0.9,1.6-2.3,1.5-3.7c-0.1-1.4-0.4-2.7-1-3.9
		c-0.6-1.2-1.3-2.4-1.9-3.5c-0.6-1.1-1-2.4-1.3-3.7c-0.2-1.2,0-2.5,0.5-3.6c0.8-2,2.3-3.8,4.2-4.9c1.6-0.9,3.3-1.5,5.1-1.8
		c1.3-0.2,2.7-0.3,4-0.3c1.1,0,2,0.1,2.5,0.1l0.7,0.1c0.1,0,0.2,0,0.2,0c-0.3,0-0.6,0-0.9,0c-0.6,0-1.4,0-2.5,0
		c-1.3,0-2.7,0.1-4,0.3c-1.7,0.3-3.4,0.9-4.9,1.8c-1.8,1.1-3.2,2.8-4,4.7c-0.4,1.1-0.6,2.3-0.4,3.4c0.2,1.2,0.6,2.4,1.2,3.5
		c0.6,1.1,1.3,2.3,1.9,3.5c0.6,1.3,1,2.7,1.1,4.1c0.1,1.5-0.5,3-1.7,4.1c-1.2,0.9-2.5,1.7-3.9,2.2c-2.6,1.3-4.2,4.1-4,7
		c0.1,2.8,2.2,5,2.6,7.7c0.2,1.3-0.1,2.7-0.8,3.8c-0.7,1-1.5,1.9-2.5,2.7c-1.9,1.4-3.8,2.4-5.2,3.7c-1.4,1.1-2.3,2.7-2.7,4.4
		c-0.3,1.3-0.2,2.6,0.1,3.9C339.7,184.4,340.2,185.4,340.9,186.3z"/>
	<path class="st2" d="M403.1,184.1c0.5-0.3,0.8-0.7,1-1.2c0.2-0.6,0.1-1.2-0.1-1.8c-0.4-0.7-0.9-1.4-1.6-1.8
		c-0.8-0.5-1.7-0.9-2.7-1.6c-1.1-0.7-1.8-1.8-2-3c0-1.4,0.4-2.7,1.3-3.8c0.8-1.1,1.8-2.1,2.6-3.3c0.8-1.1,1.2-2.5,1-3.8
		c-0.2-1.3-0.8-2.4-1.5-3.4c-1.4-2-3.2-3.5-4.4-5c-1-1.2-1.6-2.6-1.9-4.1c-0.1-0.4-0.1-0.8,0-1.2c0-0.3,0.1-0.4,0.1-0.4
		c0,0.5,0,1.1,0.1,1.6c0.3,1.4,1,2.8,2,3.9c1.1,1.5,2.9,2.9,4.5,5c0.8,1.1,1.4,2.3,1.6,3.7c0.1,0.7,0.1,1.5-0.1,2.2
		c-0.2,0.7-0.6,1.4-1,2c-0.8,1.2-1.9,2.2-2.7,3.3c-0.8,1-1.2,2.2-1.2,3.5c0.2,1.1,0.8,2.1,1.8,2.7c0.9,0.6,1.8,1.1,2.6,1.6
		c0.8,0.5,1.4,1.2,1.7,2c0.3,0.6,0.3,1.3,0,2c-0.1,0.4-0.4,0.8-0.8,1C403.4,184.2,403.2,184.2,403.1,184.1z"/>
	<path class="st2" d="M398,120.1c0,0,0,0.1,0,0.3c0,0.3,0,0.7-0.1,1c-0.2,1.2-0.8,2.3-1.7,3.2c-1.3,1.3-3.2,2-5.1,1.8
		c-1.1-0.1-2.2-0.5-3.1-1.1c-0.9-0.7-1.8-1.5-2.5-2.4c-0.7-0.9-1.5-1.7-2.4-2.3c-0.9-0.6-1.8-1.1-2.8-1.4c-1.7-0.5-3.5-0.6-5.2-0.2
		c-1.2,0.3-2.3,0.7-3.3,1.4c-0.7,0.5-1.1,0.8-1.1,0.7c0.3-0.4,0.6-0.7,1-0.9c1-0.7,2.1-1.3,3.3-1.6c1.8-0.5,3.7-0.4,5.4,0.1
		c1,0.3,2,0.8,2.9,1.4c0.9,0.7,1.8,1.5,2.5,2.4c0.7,0.9,1.5,1.7,2.4,2.4c0.9,0.6,1.8,0.9,2.9,1c1.8,0.2,3.5-0.4,4.8-1.6
		c0.9-0.8,1.5-1.9,1.8-3C397.9,120.6,397.9,120.1,398,120.1z"/>
	<path class="st1" d="M376.3,133.4c-0.1,0.4-1.7,0.2-3.5,0.4s-3.3,0.7-3.5,0.3c-0.1-0.2,0.1-0.6,0.7-1c1.6-1,3.6-1.2,5.3-0.6
		C376,132.9,376.4,133.2,376.3,133.4z"/>
	<path class="st1" d="M390.5,134.7c-0.3,0.4-1.3,0-2.6,0s-2.4,0.2-2.6-0.1c-0.1-0.2,0.1-0.5,0.5-0.9c0.6-0.4,1.4-0.6,2.1-0.6
		c0.7,0,1.5,0.3,2.1,0.7C390.4,134.2,390.6,134.5,390.5,134.7z"/>
	<path class="st10" d="M346.9,239.3c0.5,0.9-3.4-12.4-3.4-12.4l-3.3,12.2l-24.5,0.2c0,0,13.9-45.3,20.5-51.7
		c8.6-8.3,24.7-8.7,24.7-8.7l9.6,8.2l15.2-7.8l0.6,0.1c10.1,1.2,19,7.5,23.6,16.6l16.5,42.8h-21.8l-4.7-12.6l1.6,12.6"/>
	<path class="st13" d="M353,179.9l22.1,50.3l11.2-50.8c0,0-3.1-0.2-7.5-0.4c-2.5-0.1-5.3,9.6-8.3,9.6c-1.9,0-3.8-9.8-5.7-9.8
		c-2.4,0-4.8,0-6.9,0.2C356,179,354.4,179.8,353,179.9z"/>
	<path class="st13" d="M357.2,180.4v-4.6c0,0,13.2,0.2,13.4,10.7c0,0,1.9-10.4,12.5-10.7l0.7,3.5l-3,12.1l-7.7,5.1h-10.4l-4.3-5.6
		L357.2,180.4z"/>
	<path class="st1" d="M374.9,231.5c0-0.2,0.1-0.4,0.1-0.6c0.2-0.5,0.4-1,0.6-1.5c0.4-0.8,1-1.5,1.6-2.1c0.7-0.8,1.5-1.6,2.4-2.5
		c2.1-2.1,4-4.5,5.5-7.1c0.8-1.5,1.3-3.2,1.4-5c0.1-1.9-0.4-3.7-1.5-5.2l-0.4-0.4h0.6c0.2,0,0.4,0,0.7,0c0.9-0.2,1.7-0.7,2.3-1.5
		c0.6-0.7,0.9-1.6,1-2.5c0.1-1.8,0-3.6-0.4-5.4c-0.6-3.4-1.1-6.5-1.5-9.2s-0.7-4.6-1-6.2c-0.1-0.7-0.2-1.2-0.2-1.7
		c0-0.2-0.1-0.4,0-0.6c0.1,0.2,0.1,0.4,0.2,0.6c0.1,0.4,0.2,1,0.3,1.7c0.3,1.5,0.7,3.6,1.1,6.2l1.6,9.1c0.4,1.8,0.6,3.7,0.4,5.5
		c-0.1,1-0.5,2-1.1,2.8c-0.6,0.9-1.6,1.4-2.6,1.6c-0.3,0-0.5,0-0.8,0l0.2-0.4c1.2,1.6,1.8,3.6,1.6,5.6c-0.1,1.8-0.6,3.6-1.5,5.2
		c-1.6,2.6-3.5,5-5.6,7.1c-0.9,0.9-1.7,1.7-2.5,2.5c-0.6,0.6-1.1,1.3-1.6,2C375.2,230.8,375,231.6,374.9,231.5z"/>
	<path class="st1" d="M374.9,231.1c-0.2-0.1-0.3-0.3-0.4-0.5l-1.1-1.4c-1-1.2-2.4-2.8-4.3-4.9s-4-4.4-6.2-7.3
		c-1.2-1.5-2.2-3.1-3.1-4.8c-0.9-1.9-1.1-4.1-0.4-6.1c0.1-0.3,0.2-0.5,0.4-0.8l0.1,0.4c-1.9-0.7-3.6-1.9-5-3.4
		c-1.2-1.4-2.2-3-2.8-4.8c-1.1-3-1.5-6.1-1.2-9.3c0.1-2.1,0.4-4.2,0.8-6.2c0.1-0.7,0.2-1.2,0.3-1.7c0-0.2,0.1-0.4,0.1-0.6
		c0,0.2,0,0.4,0,0.6c-0.1,0.4-0.1,1-0.2,1.7c-0.2,1.5-0.5,3.6-0.6,6.2c-0.2,3.1,0.3,6.2,1.3,9.1c0.6,1.7,1.6,3.3,2.8,4.6
		c1.3,1.5,2.9,2.6,4.7,3.3l0.3,0.1l-0.2,0.3c-0.1,0.2-0.2,0.5-0.4,0.7c-0.6,1.9-0.5,3.9,0.4,5.7c0.8,1.7,1.8,3.3,3,4.7
		c2.2,2.9,4.3,5.3,6.1,7.4s3.2,3.8,4.1,5c0.5,0.6,0.8,1.1,1,1.4C374.7,230.8,374.8,230.9,374.9,231.1z"/>
	<path class="st1" d="M374.7,239.2c-0.2-1.5-0.3-3-0.1-4.5c0-1.5,0.1-3,0.4-4.5C375.2,233.2,375.1,236.2,374.7,239.2z"/>
	<path class="st1" d="M342.9,229.9c0.1-0.6,0.3-1.2,0.4-1.7c0.3-1.1,0.7-2.7,1.1-4.7c1-5.2,1.4-10.6,1.2-15.9
		c-0.1-2.9-0.5-5.8-1.2-8.7c-0.6-2.3-1.6-4.5-3.1-6.4c-1-1.3-2.2-2.3-3.6-3.1c-1-0.5-1.6-0.7-1.6-0.8c0.2,0,0.3,0.1,0.5,0.1
		c0.4,0.1,0.8,0.3,1.2,0.5c1.5,0.7,2.8,1.7,3.8,3c1.6,1.9,2.7,4.1,3.3,6.5c0.7,2.9,1.1,5.8,1.2,8.8c0.3,5.4-0.2,10.7-1.4,16
		c-0.5,2-0.9,3.6-1.3,4.7c-0.2,0.5-0.3,1-0.4,1.2S342.9,230,342.9,229.9z"/>
	<path class="st1" d="M400.1,221.8c-0.1-0.6-0.1-1.1-0.1-1.7c0-1.1,0-2.6-0.1-4.6c-0.2-5-0.6-10-1.3-14.9c-1-6.6-2.4-13.1-4.2-19.4
		l-0.1-0.3l0.2,0.2c0.4,0.3,0.7,0.5,1,0.9c-0.4-0.2-0.7-0.4-1.1-0.7l0.1-0.1c2.1,6.3,3.6,12.8,4.5,19.4c0.7,5,1.1,10,1.2,15
		c0,1.9,0,3.5-0.1,4.6C400.2,220.7,400.2,221.2,400.1,221.8z"/>
	<path class="st1" d="M368.1,180.5c0,0.1-0.2,0-0.6,0.3c-0.4,0.4-0.8,0.9-1,1.4c-1,1.8-1.5,3.8-1.8,5.8l-0.1,0.6l-0.4-0.5l-0.7-1
		c-1.7-2.2-3.3-4-4.5-5.4c-0.7-0.7-1.3-1.4-1.9-2.2c0.8,0.6,1.5,1.2,2.2,1.9c1.7,1.7,3.2,3.4,4.7,5.3l0.7,1l-0.5,0.1
		c0.2-2.1,0.9-4.1,2-5.9c0.3-0.6,0.7-1.1,1.3-1.4C367.9,180.4,368.1,180.5,368.1,180.5z"/>
	<path class="st1" d="M383.6,179.5c-0.5,0.9-1.1,1.7-1.8,2.4c-1.1,1.5-2.8,3.5-4.5,5.7l-1,1.2l-0.4,0.5v-0.7c0-1.1-0.1-2.3-0.2-3.4
		c-0.1-0.9-0.5-1.8-0.9-2.5c-0.5-0.7-1-1.3-1.7-1.8c0.2,0,0.5,0.1,0.6,0.3c0.6,0.3,1,0.8,1.4,1.3c0.5,0.8,0.9,1.7,1.1,2.6
		c0.2,1.2,0.3,2.3,0.3,3.5l-0.5-0.1l1-1.2c1.8-2.2,3.5-4.2,4.7-5.6C382.2,180.9,382.9,180.2,383.6,179.5z"/>
	<path class="st1" d="M374.5,229c-0.1-0.5-0.2-1.1-0.2-1.7c-0.1-1.2-0.3-2.7-0.5-4.6c-0.4-3.9-0.9-9.2-1.4-15.1s-1-11.2-1.3-15.1
		c-0.1-1.9-0.2-3.4-0.3-4.6c0-0.6,0-1.1,0-1.7c0.1,0.6,0.2,1.1,0.2,1.7c0.1,1.2,0.3,2.7,0.5,4.6c0.4,3.9,0.9,9.2,1.4,15.1
		s1,11.2,1.2,15.1c0.1,1.9,0.2,3.4,0.3,4.6C374.5,227.9,374.5,228.4,374.5,229z"/>
	<path class="st1" d="M374.5,195.5c0-0.1,0.4-0.3,0.9,0.1c0.3,0.2,0.5,0.6,0.5,0.9c-0.1,0.7-0.7,1.2-1.3,1.1c-0.3,0-0.6-0.2-0.8-0.4
		c-0.2-0.3-0.3-0.7-0.1-1.1c0.2-0.6,0.7-0.6,0.7-0.6s-0.3,0.2-0.3,0.7c0,0.2,0,0.5,0.2,0.7c0.2,0.2,0.5,0.3,0.8,0.2
		c0.3-0.1,0.5-0.3,0.5-0.6c0-0.2-0.1-0.5-0.3-0.6C374.9,195.6,374.5,195.6,374.5,195.5z"/>
	<path class="st1" d="M376.4,208c0-0.1,0.4-0.2,0.9,0.3c0.3,0.3,0.4,0.7,0.3,1.1c-0.1,0.5-0.6,0.8-1.1,0.8c-0.5,0-1-0.2-1.2-0.7
		c-0.1-0.4,0-0.8,0.2-1.1C376,207.8,376.5,207.9,376.4,208c-0.1,0.1-0.4,0.1-0.6,0.5c-0.1,0.2-0.1,0.5-0.1,0.7
		c0.1,0.3,0.4,0.4,0.7,0.4c0.3,0,0.6-0.2,0.7-0.4c0.1-0.2,0-0.5-0.1-0.7C376.8,208.1,376.4,208,376.4,208z"/>
	<g class="st14">
		<path d="M351.7,180.5c-1.9,6.6-3.6,14.2-0.2,20.1c1,1.8,2.5,3.3,3.5,5.2c1.7,3.1,1.8,6.9,2.9,10.3c2.1,6.9,9.6,13.6,16.8,14.7
			c-3.7-4.5-9.4-10.3-12.8-15.4c-1.1-1.3-1.9-2.9-2.3-4.5c-0.4-1.9-0.7-3.8,0.5-5.3c-4.8-0.7-7.5-5.7-8.4-10.4
			c-0.8-4.8-0.6-9.7,0.6-14.4"/>
	</g>
	<g class="st14">
		<path d="M400.3,215.9c-1.2,7.1-0.4,16.5,4,22.3c1.6-7.8,0.8-18.1-4-24.5"/>
	</g>
</g>
<g id="freepik--character-1--inject-127">
	<rect x="165.9" y="128.3" class="st0" width="117.5" height="196.4"/>
	<polygon class="st15" points="197.1,243.9 198.3,246.5 201.1,246.9 199.1,248.9 199.6,251.7 197.1,250.4 194.5,251.7 195,248.9 
		193,246.9 195.8,246.5 	"/>
	<polygon class="st15" points="211.1,243.9 212.3,246.5 215.1,246.9 213.1,248.9 213.6,251.7 211.1,250.4 208.5,251.7 209,248.9 
		207,246.9 209.8,246.5 	"/>
	<polygon class="st15" points="225,243.9 226.3,246.5 229.1,246.9 227.1,248.9 227.6,251.7 225,250.4 222.5,251.7 223,248.9 
		221,246.9 223.8,246.5 	"/>
	<polygon class="st15" points="239,243.9 240.3,246.5 243.1,246.9 241.1,248.9 241.6,251.7 239,250.4 236.5,251.7 237,248.9 
		235,246.9 237.8,246.5 	"/>
	<polygon class="st15" points="253,243.9 254.3,246.5 257.1,246.9 255.1,248.9 255.6,251.7 253,250.4 250.5,251.7 251,248.9 
		249,246.9 251.8,246.5 	"/>
	<path class="st15" d="M219.8,267c0,0.1-8.9,0.3-19.9,0.3S180,267.1,180,267s8.9-0.3,19.9-0.3S219.8,266.8,219.8,267z"/>
	<path class="st1" d="M269.9,275.6c0,0.1-19.9,0.3-44.4,0.3s-44.4-0.1-44.4-0.3s19.9-0.3,44.4-0.3S269.9,275.5,269.9,275.6z"/>
	<path class="st1" d="M269.9,283c0,0.1-19.9,0.3-44.4,0.3S181,283.2,181,283s19.9-0.3,44.4-0.3S269.9,282.9,269.9,283z"/>
	<path class="st1" d="M269.9,290.5c0,0.1-19.9,0.3-44.4,0.3s-44.4-0.1-44.4-0.3s19.9-0.3,44.4-0.3S269.9,290.3,269.9,290.5z"/>
	<path class="st1" d="M269.9,297.9c0,0.1-19.9,0.3-44.4,0.3s-44.4-0.1-44.4-0.3s19.9-0.3,44.4-0.3S269.9,297.8,269.9,297.9z"/>
	<path class="st1" d="M269.9,305.4c0,0.1-19.9,0.3-44.4,0.3s-44.5-0.1-44.5-0.3s19.9-0.3,44.4-0.3S269.9,305.2,269.9,305.4z"/>
	<rect x="173.4" y="138.3" class="st3" width="101.2" height="97.2"/>
	<path class="st1" d="M230.3,186.4c0,2.5,0.2,4,0.2,6.6c-0.1,0.6,0.1,1.3,0.6,1.8c0.4,0.3,1,0.3,1.5,0.1c0.5-0.3,0.9-0.6,1.2-1.1
		c2.8-3.5,4.5-7.7,4.9-12.1c0.1-0.4,0-0.8-0.2-1.1c-0.4-0.5-1.1-0.3-1.7,0C234,181.8,231.7,183.9,230.3,186.4"/>
	<path class="st6" d="M213.3,156.2l0.1,2.5l0.5,37.8c0.2,4.5,4,7.9,8.5,7.7c0,0,0.1,0,0.1,0l0,0c4.8-0.1,8.6-3.8,8.6-8.2
		c0-4.6,0.1-9.6,0.1-9.6s6-1,7.2-8.8c0.6-3.9,0.4-10.3,0.1-15.5c-0.3-4.6-4.2-8-8.8-7.7c-0.1,0-0.2,0-0.4,0L213.3,156.2z"/>
	<path class="st1" d="M235.4,166.6c0,0.6-0.4,1-1,1c-0.5,0-0.9-0.4-1-0.9c0-0.6,0.4-1,1-1C235,165.7,235.4,166.1,235.4,166.6z"/>
	<path class="st1" d="M237.1,165.5c-0.1,0.1-0.9-0.4-2-0.4s-1.9,0.5-2,0.4s0.1-0.3,0.4-0.6c0.5-0.3,1-0.5,1.6-0.5
		c0.6,0,1.1,0.2,1.6,0.5C237,165.2,237.1,165.5,237.1,165.5z"/>
	<path class="st1" d="M225,166.6c0,0.6-0.4,1-1,1c-0.5,0-0.9-0.4-1-0.9c0-0.6,0.4-1,1-1C224.5,165.7,224.9,166.1,225,166.6z"/>
	<path class="st1" d="M226.5,165.7c-0.1,0.1-0.9-0.4-2-0.4s-1.9,0.5-2,0.4s0.1-0.3,0.4-0.6c0.5-0.3,1-0.5,1.6-0.5
		c0.6,0,1.1,0.2,1.6,0.5C226.4,165.4,226.5,165.7,226.5,165.7z"/>
	<path class="st1" d="M230.4,173.7c0.6-0.2,1.2-0.3,1.8-0.3c0.3,0,0.5-0.1,0.6-0.3c0-0.3,0-0.6-0.2-0.8c-0.3-0.7-0.5-1.4-0.8-2.1
		c-0.8-1.8-1.4-3.6-1.8-5.5c0.9,1.7,1.7,3.5,2.3,5.3l0.8,2.1c0.2,0.3,0.2,0.7,0.1,1.1c-0.1,0.2-0.2,0.3-0.4,0.4
		c-0.2,0-0.3,0.1-0.5,0.1C231.6,173.8,231,173.8,230.4,173.7z"/>
	<path class="st9" d="M231.1,186.5c-3.7,0.1-7.3-0.9-10.5-2.8c0,0,2.5,5.4,10.4,4.6L231.1,186.5z"/>
	<path class="st9" d="M229.9,176.3c-0.4-0.5-1.1-0.8-1.8-0.7c-0.5,0-0.9,0.3-1.2,0.7c-0.3,0.4-0.3,0.9-0.1,1.3
		c0.4,0.4,0.9,0.5,1.4,0.4c0.5-0.2,1-0.5,1.4-0.8c0.1-0.1,0.2-0.2,0.3-0.3C230.1,176.6,230.1,176.5,229.9,176.3"/>
	<path class="st1" d="M227.2,174.5c0.2,0,0.2,1.2,1.2,2s2.2,0.7,2.3,0.9s-0.3,0.2-0.8,0.2c-0.7,0-1.4-0.2-1.9-0.7
		c-0.5-0.4-0.8-1-0.9-1.7C227,174.8,227.1,174.5,227.2,174.5z"/>
	<path class="st1" d="M225,155.6c0.8,0.2,1.5,0.8,2,1.5c0.4,0.7,0.9,1.4,1.5,2.1c1.4,1.4,3.5,1.7,5.2,0.8c0.6,0.6,1.5,1.3,2.3,1
		c0.5-0.2,0.8-0.6,0.9-1.1c0.1-0.5,0-1-0.2-1.5c-0.8-1.9-2.9-2.9-5-3.3c-2.5-0.5-5.1-0.3-7.4,0.6"/>
	<path class="st1" d="M206.1,235.8c0.4,0.6-2.4-8.7-2.4-8.7l-2.3,8.5l-17.2,0.1c0,0,9.7-31.8,14.4-36.2c6-5.8,17.3-6.1,17.3-6.1
		l17.5,0.3h0.4c7.1,0.9,13.3,5.3,16.5,11.7l11.6,30.1h-15.3l-3.3-8.9l1.1,8.9"/>
	<path class="st15" d="M241.2,192.6c-0.5-1.3-2.4-1.2-3.3-2.3s-0.1-2.8,0.6-4.2c3.3-6.4,3-14,2.4-21.1c-0.3-3.1-0.6-6.2-1.9-9
		c-2.6-5.5-9.1-9.9-17-9.6c-6.5,0.2-11.4,6.1-14.9,11.6s-5.4,14-4.2,20.4c0.6,3.2,4,5.7,3.4,8.9c-0.4,2-2.5,4.4-2.1,6.4
		c0.6,2.7,4.5,3.7,6.9,5.2c2.3,1.7,4.5,3.6,6.5,5.7c2,2.1,4.4,3.7,7.1,4.8c2.7,0.9,6,0.8,8.2-1.1c3.6-3,3.3-8.9,6.6-12.3
		C240.4,195.1,241.8,194,241.2,192.6z M236.1,158.1c1.3,2,1.4,4.6,1.8,7c0.6,4,0.7,8.1,0.1,12.2c-0.6,4.1-2.4,7.8-5.3,10.8
		c-2.9,2.9-7.1,4.2-11.2,3.4c-4.4-1-5.9-5-7.1-9.4s1.6-8.4,2.8-12.8c1-3.4,1.3-8.2,3.5-10.9s5.8-2.9,6.9-2.9
		C227.5,155.4,233.4,154.1,236.1,158.1L236.1,158.1z"/>
	<g class="st14">
		<path d="M204.5,190.6c2.6,1.4,4.7,3.7,6.9,5.8s4.5,4.1,7.4,4.9s6.4-0.1,7.9-2.8c-8.6,1.2-16.9-3.6-20-11.7"/>
	</g>
	<g class="st14">
		<path d="M237.5,188.7c-0.6,2.1-2,3.9-3.9,4.9c-0.5,0.2-0.9,0.4-1.3,0.7c-0.4,0.3-0.5,0.8-0.4,1.3c0.3,0.5,0.9,0.7,1.4,0.5
			c0.5-0.2,1-0.5,1.3-0.9c1.4-1.4,2.9-2.9,3.4-4.9"/>
	</g>
</g>
<g id="freepik--Arrows--inject-127">
	
		<ellipse transform="matrix(0.2312 -0.9729 0.9729 0.2312 226.6625 752.1365)" class="st3" cx="589.3" cy="232.6" rx="14.7" ry="14.6"/>
	<path class="st1" d="M587,238.9c0.6-0.7,1.3-1.3,2-1.9c1.3-1.1,3.2-2.6,5.2-4.3v0.4l-0.1-0.1c-2-1.8-3.8-3.4-5.1-4.6
		c-0.7-0.6-1.4-1.3-2-2c0.8,0.5,1.6,1.1,2.3,1.7c1.4,1.1,3.2,2.7,5.2,4.4l0.1,0.1l0.2,0.2l-0.2,0.2c-2,1.7-3.9,3.2-5.3,4.2
		C588.6,237.9,587.8,238.4,587,238.9z"/>
	<circle class="st3" cx="158" cy="233.2" r="14.6"/>
	<path class="st1" d="M161,226.4c-0.6,0.7-1.3,1.3-2.1,1.9c-1.3,1.1-3.1,2.7-5.2,4.3v-0.4l0.1,0.1c2,1.8,3.8,3.4,5.1,4.6
		c0.7,0.6,1.4,1.3,2,2c-0.8-0.5-1.6-1.1-2.3-1.7c-1.4-1.1-3.2-2.7-5.2-4.4l-0.1-0.1l-0.2-0.2l0.2-0.2c2.1-1.7,3.9-3.1,5.3-4.2
		C159.4,227.4,160.2,226.9,161,226.4z"/>
</g>
<g id="freepik--magnifying-glass--inject-127">
	<path class="st2" d="M318.5,89.2c-54.8,29.1-75.7,97.2-46.5,152c14,26.3,37.8,46,66.3,54.7l0,0c35.1,10.7,73.2,3.7,102.1-19
		l94.7,118.5l14.5-11.5l-95.5-119.5c11.3-12.3,19.7-27,24.6-43c1.2-3.9,2.2-7.8,2.9-11.8c11.7-61-28.3-119.9-89.3-131.6
		C367.3,73.3,341.2,77.2,318.5,89.2z M398.8,98.8C448.3,114,476.2,166.4,461,216c-15.2,49.6-67.7,77.5-117.2,62.3
		c-49.6-15.2-77.5-67.7-62.3-117.2c7.3-23.8,23.7-43.7,45.7-55.4C349.2,93.9,375,91.4,398.8,98.8L398.8,98.8z"/>
</g>
</svg>
