<!-- ProjectBg with pics -->
<svg xmlns="http://www.w3.org/2000/svg" width="954" height="522">
  <!-- <g transform="translate(648.808 128.432)">
    <path d="M 242 14.935 L 242 136.065 C 242 144.311 235.343 150.996 227.128 151 L 14.872 151 C 6.657 150.996 -0 144.311 0 136.065 L 0 14.935 C 0 14.578 0 14.262 0.047 13.885 C 0.589 6.067 7.064 0.002 14.872 0 L 227.128 0 C 234.945 0.003 241.424 6.083 241.953 13.912 C 241.987 14.235 242 14.585 242 14.935 Z" fill="rgb(255,255,255)" stroke-width="1.93" stroke="rgb(38,50,56)" stroke-linecap="round" stroke-linejoin="round"></path>
    <path d="M 7.238 19.482 L 235.519 19.482 L 235.519 131.377 C 235.519 139.105 229.278 145.369 221.579 145.369 L 21.185 145.369 C 13.486 145.369 7.245 139.105 7.245 131.377 L 7.245 19.482 Z" fill="rgb(38,50,56)"></path>
    <path d="M 235.526 19.482 L 235.526 131.377 C 235.567 139.061 229.395 145.325 221.74 145.369 L 21.025 145.369 C 13.369 145.325 7.197 139.061 7.238 131.377 L 7.238 19.482 Z" fill="rgb(255,255,255)" opacity="0.2"></path>
    <path d="M 241.953 13.912 L 0.047 13.912 C 0.589 6.094 7.064 0.029 14.872 0.027 L 227.128 0.027 C 234.936 0.029 241.411 6.094 241.953 13.912 Z" fill="rgb(250, 235, 179)" stroke-width="1.93" stroke="rgb(38,50,56)" stroke-miterlimit="10"></path>
    <path d="M 29.771 6.943 C 29.771 8.403 28.592 9.586 27.137 9.586 C 25.682 9.586 24.503 8.403 24.503 6.943 C 24.503 5.482 25.682 4.299 27.137 4.299 C 28.592 4.299 29.771 5.482 29.771 6.943 Z M 40.91 6.943 C 40.91 8.403 39.73 9.586 38.276 9.586 C 36.821 9.586 35.642 8.403 35.642 6.943 C 35.642 5.482 36.821 4.299 38.276 4.299 C 39.73 4.299 40.91 5.482 40.91 6.943 Z" fill="rgb(38,50,56)"></path>
    <path d="M 46.781 6.943 C 46.781 5.482 47.96 4.299 49.415 4.299 C 50.869 4.299 52.049 5.482 52.049 6.943 C 52.049 8.403 50.869 9.586 49.415 9.586 C 47.96 9.586 46.781 8.403 46.781 6.943 Z" fill="rgb(38,50,56)"></path>
    <path d="M 235.519 19.482 L 235.519 131.377 C 235.519 139.105 229.278 145.369 221.579 145.369 L 21.185 145.369 C 14.531 145.368 8.806 140.646 7.513 134.094 L 7.513 134.054 C 7.343 133.167 7.257 132.266 7.258 131.363 L 7.258 19.482 Z" fill="transparent" stroke-width="1.93" stroke="rgb(38,50,56)" stroke-miterlimit="10"></path>
    <path d="M 235.305 36.785 C 234.327 36.234 233.288 35.802 232.208 35.5 L 230.955 29.882 L 225.633 29.882 L 224.394 35.5 C 223.308 35.797 222.263 36.229 221.284 36.785 L 216.478 33.697 L 212.718 37.457 L 215.741 42.281 C 215.188 43.264 214.758 44.313 214.461 45.402 L 208.865 46.647 L 208.865 51.988 L 214.461 53.246 C 214.754 54.341 215.185 55.394 215.741 56.381 L 212.665 61.238 L 216.431 65.012 L 221.264 61.924 C 222.241 62.481 223.283 62.915 224.367 63.216 L 225.613 68.827 L 230.915 68.827 L 232.161 63.216 C 233.241 62.912 234.281 62.479 235.258 61.924 L 235.506 62.086 L 235.506 36.65 Z M 228.308 56.294 C 225.526 56.294 223.018 54.611 221.954 52.031 C 220.89 49.451 221.48 46.482 223.448 44.509 C 225.416 42.535 228.374 41.946 230.944 43.017 C 233.513 44.087 235.187 46.606 235.184 49.398 C 235.184 51.228 234.459 52.983 233.169 54.276 C 231.88 55.57 230.131 56.295 228.308 56.294 Z M 139.397 42.2 L 139.397 30.939 L 127.602 28.308 C 126.965 26.02 126.065 23.815 124.921 21.736 L 126.348 19.482 L 70.654 19.482 L 72.028 21.675 C 70.869 23.745 69.969 25.95 69.347 28.241 L 57.544 30.878 L 57.544 42.166 L 69.347 44.81 C 69.969 47.118 70.869 49.341 72.028 51.43 L 65.547 61.662 L 73.489 69.627 L 83.676 63.115 C 85.743 64.282 87.941 65.197 90.224 65.84 L 92.851 77.646 L 104.044 77.646 L 106.684 65.813 C 108.96 65.167 111.151 64.252 113.212 63.088 L 123.406 69.6 L 131.341 61.635 L 124.901 51.403 C 126.042 49.327 126.942 47.126 127.581 44.844 Z M 98.514 51.12 C 90.508 51.12 84.018 44.606 84.018 36.569 C 84.018 28.533 90.508 22.018 98.514 22.018 C 106.521 22.018 113.011 28.533 113.011 36.569 C 113.013 40.429 111.486 44.131 108.767 46.86 C 106.048 49.59 102.36 51.122 98.514 51.12 Z M 64.957 119.53 L 65.433 110.589 L 56.204 107.979 C 55.776 106.142 55.141 104.359 54.314 102.665 L 59.89 94.807 L 53.912 88.154 L 45.561 92.863 C 43.965 91.855 42.258 91.036 40.474 90.421 L 38.879 80.922 L 29.979 80.512 L 27.405 89.802 C 25.571 90.215 23.794 90.847 22.11 91.686 L 14.289 86.095 L 7.647 92.089 L 12.379 100.478 C 11.364 102.073 10.545 103.786 9.939 105.578 L 7.258 106.022 L 7.258 118.131 L 9.215 118.682 C 9.621 120.526 10.249 122.312 11.085 124.004 L 7.238 129.419 L 7.493 134.054 L 7.493 134.094 L 11.467 138.514 L 19.832 133.771 C 21.425 134.8 23.138 135.629 24.932 136.24 L 26.5 145.363 L 26.574 145.746 L 35.474 146.217 L 35.709 145.363 L 38.048 136.933 C 39.89 136.519 41.676 135.887 43.369 135.05 L 51.177 140.633 L 57.812 134.646 L 53.121 126.25 C 54.126 124.657 54.934 122.947 55.527 121.158 Z M 41.319 105.571 C 38.201 102.09 33.301 100.837 28.904 102.398 C 24.507 103.958 21.48 108.023 21.234 112.698 C 20.989 117.372 23.573 121.735 27.782 123.75 C 31.991 125.766 36.995 125.037 40.461 121.905 C 45.171 117.633 45.554 110.343 41.319 105.598 Z M 136.147 106.203 C 136.491 104.819 136.673 103.399 136.69 101.972 L 143.09 98.608 L 141.321 92.089 L 134.096 92.426 C 133.364 91.207 132.494 90.079 131.502 89.062 L 133.64 82.126 L 127.809 78.763 L 122.93 84.104 C 121.553 83.771 120.144 83.59 118.728 83.566 L 115.377 77.141 L 108.889 78.911 L 109.231 86.169 C 108.017 86.904 106.893 87.777 105.88 88.773 L 98.963 86.627 L 95.612 92.473 L 100.974 97.364 C 100.627 98.743 100.45 100.159 100.445 101.582 L 94.031 104.945 L 95.8 111.457 L 103.038 111.114 C 103.756 112.339 104.623 113.469 105.619 114.478 L 103.467 121.38 L 109.305 124.744 L 114.157 119.442 C 115.536 119.791 116.951 119.969 118.373 119.974 L 121.724 126.405 L 128.211 124.636 L 127.923 118.433 L 127.876 117.37 C 129.107 116.643 130.246 115.769 131.268 114.767 L 138.178 116.92 L 141.033 111.915 L 141.515 111.067 Z M 120.819 110.159 C 117.417 111.101 113.784 109.889 111.62 107.09 C 109.456 104.292 109.188 100.459 110.941 97.384 C 112.694 94.309 116.122 92.6 119.623 93.055 C 123.123 93.511 126.004 96.041 126.918 99.462 C 128.158 104.104 125.435 108.881 120.819 110.159 Z M 210.353 117.666 L 211.827 108.719 L 202.806 105.08 C 202.601 103.173 202.167 101.298 201.513 99.496 L 208.007 92.237 L 202.752 84.837 L 193.798 88.652 C 192.312 87.456 190.687 86.444 188.959 85.638 L 188.437 75.89 L 179.523 74.41 L 175.87 83.425 C 173.979 83.648 172.119 84.088 170.328 84.737 L 163.076 78.218 L 155.737 83.492 L 159.544 92.473 C 158.496 93.786 157.586 95.204 156.83 96.704 C 156.729 96.913 156.622 97.121 156.528 97.33 L 146.823 97.868 L 145.342 106.802 L 146.803 107.394 L 154.363 110.455 C 154.569 112.353 155.004 114.218 155.657 116.012 L 149.149 123.317 L 154.41 130.717 L 163.357 126.883 C 164.839 128.09 166.462 129.111 168.19 129.924 L 168.692 139.624 L 177.599 141.104 L 181.245 132.157 C 183.141 131.949 185.004 131.511 186.795 130.852 L 194.033 137.371 L 201.405 132.09 L 197.598 123.102 C 198.811 121.609 199.835 119.97 200.648 118.225 Z M 185.354 117.263 C 181.519 120.025 176.404 120.195 172.395 117.696 C 168.386 115.196 166.271 110.518 167.038 105.844 C 167.805 101.169 171.302 97.419 175.898 96.341 C 180.494 95.264 185.284 97.072 188.035 100.922 C 191.786 106.181 190.579 113.497 185.34 117.263 Z" fill="rgb(38,50,56)"></path>
  </g> -->
  <g transform="translate(792.165 223.543)">
    <path d="M 13.021 170.136 C 5.83 170.136 0 170.136 0 170.136 L 0 0 C 0 0 5.83 0 13.021 0 L 116.892 0 C 124.083 0 129.913 0 129.913 0 L 129.913 170.136 C 129.913 170.136 124.083 170.136 116.892 170.136 Z" fill="rgb(175,222,233)" stroke-width="1.93" stroke="rgb(38,50,56)" stroke-miterlimit="10"></path>
    <path d="M 13.021 170.136 C 5.83 170.136 0 170.136 0 170.136 L 0 0 C 0 0 5.83 0 13.021 0 L 116.892 0 C 124.083 0 129.913 0 129.913 0 L 129.913 170.136 C 129.913 170.136 124.083 170.136 116.892 170.136 Z" fill="rgb(0,0,0)" opacity="0.2"></path>
    <path d="M 142 25.897 L 142 169.947 C 142.003 173.408 140.632 176.728 138.19 179.176 C 135.748 181.624 132.434 183 128.979 183 L 25.108 183 C 21.655 182.997 18.344 181.621 15.904 179.173 C 13.464 176.725 12.095 173.406 12.097 169.947 L 12.097 25.897 C 12.097 18.697 17.921 12.859 25.108 12.854 L 128.979 12.854 C 136.17 12.854 142 18.694 142 25.897 Z" fill="rgb(255,255,255)" stroke-width="1.93" stroke="rgb(38,50,56)" stroke-linecap="round" stroke-linejoin="round"></path>
    <path d="M 142 25.897 L 142 33.607 L 12.097 33.607 L 12.097 25.897 C 12.097 18.697 17.921 12.859 25.108 12.854 L 128.979 12.854 C 136.17 12.854 142 18.694 142 25.897 Z" fill="rgb(175,222,233)" stroke-width="1.93" stroke="rgb(38,50,56)" stroke-miterlimit="10"></path>
    <path d="M 24.314 42.541 L 56.276 42.541 L 56.276 47.914 L 24.314 47.914 Z M 24.314 90.684 L 56.276 90.684 L 56.276 96.057 L 24.314 96.057 Z M 24.314 134.34 L 56.276 134.34 L 56.276 139.712 L 24.314 139.712 Z" fill="rgb(175,222,233)"></path>
    <path d="M 24.314 55.843 L 115.084 55.843 L 115.084 59.783 L 24.314 59.783 Z M 24.314 63.374 L 98.716 63.374 L 98.716 67.215 L 24.314 67.215 Z M 24.314 70.786 L 108.459 70.786 L 108.459 74.627 L 24.314 74.627 Z M 24.314 78.188 L 108.459 78.188 L 108.459 82.029 L 24.314 82.029 Z M 24.314 99.499 L 115.084 99.499 L 115.084 103.439 L 24.314 103.439 Z M 24.314 107.03 L 98.716 107.03 L 98.716 110.871 L 24.314 110.871 Z M 24.314 114.442 L 108.459 114.442 L 108.459 118.282 L 24.314 118.282 Z M 24.314 147.433 L 115.084 147.433 L 115.084 151.372 L 24.314 151.372 Z M 24.314 154.974 L 98.716 154.974 L 98.716 158.814 L 24.314 158.814 Z M 24.314 162.386 L 108.459 162.386 L 108.459 166.226 L 24.314 166.226 Z" fill="rgb(38,50,56)"></path>
  </g>
  <g transform="translate(791.518 1.625)">
    <path d="M 161 15.154 L 161 71.856 C 161 75.874 159.402 79.727 156.558 82.568 C 153.714 85.408 149.857 87.003 145.837 87 L 15.163 87 C 11.143 87.003 7.286 85.408 4.442 82.568 C 1.598 79.727 -0 75.874 0 71.856 L 0 15.154 C 0.005 6.787 6.791 0.005 15.163 0 L 145.837 0 C 154.211 0 161 6.785 161 15.154 Z" fill="rgb(255,255,255)" stroke-width="1.93" stroke="rgb(34,34,33)" stroke-miterlimit="10"></path>
    <path d="M 161 15.154 L 161 16.452 L 0 16.452 L 0 15.154 C 0.005 6.787 6.791 0.005 15.163 0 L 145.837 0 C 154.211 0 161 6.785 161 15.154 Z" fill="rgb(255, 222, 217)" stroke-width="1.93" stroke="rgb(38,50,56)" stroke-miterlimit="10"></path>
    <path d="M 23.657 10.939 C 22.991 11.605 21.99 11.805 21.12 11.446 C 20.25 11.086 19.682 10.238 19.682 9.297 C 19.682 8.356 20.25 7.508 21.12 7.148 C 21.99 6.788 22.991 6.988 23.657 7.655 C 24.557 8.564 24.557 10.029 23.657 10.939 Z M 34.438 10.939 C 33.773 11.605 32.771 11.805 31.901 11.446 C 31.031 11.086 30.463 10.238 30.463 9.297 C 30.463 8.356 31.031 7.508 31.901 7.148 C 32.771 6.788 33.773 6.988 34.438 7.655 C 35.338 8.564 35.338 10.029 34.438 10.939 Z M 45.219 10.939 C 44.554 11.605 43.553 11.805 42.682 11.446 C 41.812 11.086 41.245 10.238 41.245 9.297 C 41.245 8.356 41.812 7.508 42.682 7.148 C 43.553 6.788 44.554 6.988 45.219 7.655 C 46.12 8.564 46.12 10.029 45.219 10.939 Z" fill="rgb(38,50,56)"></path>
    <path d="M 10.267 26.878 L 62.893 26.878 L 62.893 72.34 L 10.267 72.34 Z" fill="transparent" stroke-width="1.93" stroke="rgb(38,50,56)" stroke-linecap="round" stroke-linejoin="round" stroke-dasharray="7.72"></path>
    <path d="M 71.018 26.878 L 131.584 26.878 L 131.584 30.076 L 71.018 30.076 Z M 71.018 33.496 L 117.478 33.496 L 117.478 36.684 L 71.018 36.684 Z M 71.018 40.085 L 140.194 40.085 L 140.194 43.311 L 71.018 43.311 Z M 71.018 46.509 L 129.927 46.509 L 129.927 49.735 L 71.018 49.735 Z" fill="rgb(38,50,56)"></path>
  </g>
</svg>