<!-- Resume -->
<svg xmlns="http://www.w3.org/2000/svg" width="577" height="577">
  <path d="M 495.32 339.784 C 493.319 324.597 489.978 309.618 485.338 295.02 C 480.387 278.864 474.617 262.581 475.217 245.733 C 475.644 233.858 479.233 222.341 480.987 210.582 C 483.861 191.783 482.084 172.431 477.133 154.036 C 473.567 140.823 468.282 127.875 459.823 117.108 C 452.253 107.472 442.351 99.798 431.688 93.82 C 403.508 77.883 370.526 72.864 338.214 70.74 C 307.195 68.663 275.541 69.044 245.687 77.664 C 208.161 88.443 176.772 114.276 158.975 149.028 C 139.784 186.602 128.683 228.827 101.794 262.12 C 87.6 279.695 69.09 294.639 60.966 315.711 C 49.345 345.842 63.782 382.147 90.116 400.842 C 106.722 412.636 126.836 418.267 144.885 427.719 C 161.537 436.431 176.331 448.341 192.73 457.526 C 252.968 491.258 327.736 484.68 394.241 466.493 C 427.499 457.434 462.327 444.013 481.414 415.302 C 496.047 393.249 498.528 366.533 495.32 339.784 Z" fill="rgb(255, 222, 217)"></path>
  <path d="M 495.32 339.784 C 493.319 324.597 489.978 309.618 485.338 295.02 C 480.387 278.864 474.617 262.581 475.217 245.733 C 475.644 233.858 479.233 222.341 480.987 210.582 C 483.861 191.783 482.084 172.431 477.133 154.036 C 473.567 140.823 468.282 127.875 459.823 117.108 C 452.253 107.472 442.351 99.798 431.688 93.82 C 403.508 77.883 370.526 72.864 338.214 70.74 C 307.195 68.663 275.541 69.044 245.687 77.664 C 208.161 88.443 176.772 114.276 158.975 149.028 C 139.784 186.602 128.683 228.827 101.794 262.12 C 87.6 279.695 69.09 294.639 60.966 315.711 C 49.345 345.842 63.782 382.147 90.116 400.842 C 106.722 412.636 126.836 418.267 144.885 427.719 C 161.537 436.431 176.331 448.341 192.73 457.526 C 252.968 491.258 327.736 484.68 394.241 466.493 C 427.499 457.434 462.327 444.013 481.414 415.302 C 496.047 393.249 498.528 366.533 495.32 339.784 Z" fill="rgb(255, 255, 255)" opacity="0.8"></path>
  <path d="M 100.963 489.561 C 100.963 482.156 188.171 476.152 295.747 476.152 C 403.323 476.152 490.531 482.156 490.531 489.561 C 490.531 496.967 403.323 502.971 295.747 502.971 C 188.171 502.971 100.963 496.967 100.963 489.561 Z" fill="rgb(38,50,56)"></path>
  <path d="M 146.316 122.07 L 430.984 122.07 L 430.984 488.477 L 146.316 488.477 Z" fill="rgb(255,255,255)" stroke-width="1.14" stroke="rgb(38,50,56)" stroke-linecap="round" stroke-linejoin="round"></path>
  <path d="M 146.316 122.07 L 191.726 122.07 L 191.726 488.477 L 146.316 488.477 Z" fill="rgb(255, 222, 217)"></path>
  <path d="M 280.434 176.204 L 367.734 176.204 L 367.734 186.475 L 280.434 186.475 Z" fill="rgb(255, 222, 217)" stroke-width="1.14" stroke="rgb(38,50,56)" stroke-linecap="round" stroke-linejoin="round"></path>
  <path d="M 182.136 263.712 L 421.441 263.712 L 421.441 273.983 L 182.136 273.983 Z M 182.136 404.869 L 421.441 404.869 L 421.441 415.14 L 182.136 415.14 Z" fill="rgb(255, 222, 217)"></path>
  <path d="M 280.434 193.895 L 335.456 193.895 L 335.456 204.166 L 280.434 204.166 Z M 280.434 211.217 L 335.456 211.217 L 335.456 221.487 L 280.434 221.487 Z M 267.197 285.292 L 272.863 285.292 L 272.863 290.958 L 267.197 290.958 Z M 267.197 358.167 L 272.863 358.167 L 272.863 363.833 L 267.197 363.833 Z M 347.158 285.292 L 352.824 285.292 L 352.824 290.958 L 347.158 290.958 Z M 347.158 358.167 L 352.824 358.167 L 352.824 363.833 L 347.158 363.833 Z" fill="rgb(255, 222, 217)" stroke-width="1.14" stroke="rgb(38,50,56)" stroke-linecap="round" stroke-linejoin="round"></path>
  <path d="M 146.316 122.07 L 430.984 122.07 L 430.984 140.707 L 146.316 140.707 Z" fill="rgb(38,50,56)" stroke-width="1.14" stroke="rgb(38,50,56)" stroke-linecap="round" stroke-linejoin="round"></path>
  <path d="M 332.156 289.227 L 282.049 289.227 C 281.157 289.227 280.434 288.504 280.434 287.611 C 280.434 286.719 281.157 285.996 282.049 285.996 L 332.156 285.996 C 333.048 285.996 333.771 286.719 333.771 287.611 C 333.771 288.504 333.048 289.227 332.156 289.227 Z M 332.156 297.317 L 282.049 297.317 C 281.155 297.31 280.434 296.584 280.434 295.689 C 280.434 294.797 281.157 294.074 282.049 294.074 L 332.156 294.074 C 333.048 294.074 333.771 294.797 333.771 295.689 C 333.771 296.584 333.05 297.31 332.156 297.317 Z M 332.156 305.395 L 282.049 305.395 C 281.157 305.395 280.434 304.671 280.434 303.779 C 280.434 302.887 281.157 302.163 282.049 302.163 L 332.156 302.163 C 333.048 302.163 333.771 302.887 333.771 303.779 C 333.771 304.671 333.048 305.395 332.156 305.395 Z M 332.156 313.473 L 282.049 313.473 C 281.157 313.473 280.434 312.749 280.434 311.857 C 280.434 310.965 281.157 310.241 282.049 310.241 L 332.156 310.241 C 333.048 310.241 333.771 310.965 333.771 311.857 C 333.771 312.749 333.048 313.473 332.156 313.473 Z M 332.156 321.551 L 282.049 321.551 C 281.157 321.551 280.434 320.827 280.434 319.935 C 280.434 319.043 281.157 318.319 282.049 318.319 L 332.156 318.319 C 333.048 318.319 333.771 319.043 333.771 319.935 C 333.771 320.827 333.048 321.551 332.156 321.551 Z M 407.951 289.227 L 357.844 289.227 C 356.952 289.227 356.228 288.504 356.228 287.611 C 356.228 286.719 356.952 285.996 357.844 285.996 L 407.951 285.996 C 408.843 285.996 409.566 286.719 409.566 287.611 C 409.566 288.504 408.843 289.227 407.951 289.227 Z M 407.951 297.317 L 357.844 297.317 C 356.95 297.31 356.228 296.584 356.228 295.689 C 356.228 294.797 356.952 294.074 357.844 294.074 L 407.951 294.074 C 408.843 294.074 409.566 294.797 409.566 295.689 C 409.566 296.584 408.845 297.31 407.951 297.317 Z M 407.951 305.395 L 357.844 305.395 C 356.952 305.395 356.228 304.671 356.228 303.779 C 356.228 302.887 356.952 302.163 357.844 302.163 L 407.951 302.163 C 408.843 302.163 409.566 302.887 409.566 303.779 C 409.566 304.671 408.843 305.395 407.951 305.395 Z M 407.951 313.473 L 357.844 313.473 C 356.952 313.473 356.228 312.749 356.228 311.857 C 356.228 310.965 356.952 310.241 357.844 310.241 L 407.951 310.241 C 408.843 310.241 409.566 310.965 409.566 311.857 C 409.566 312.749 408.843 313.473 407.951 313.473 Z M 407.951 321.551 L 357.844 321.551 C 356.952 321.551 356.228 320.827 356.228 319.935 C 356.228 319.043 356.952 318.319 357.844 318.319 L 407.951 318.319 C 408.843 318.319 409.566 319.043 409.566 319.935 C 409.566 320.827 408.843 321.551 407.951 321.551 Z M 332.156 360.89 L 282.049 360.89 C 281.155 360.884 280.434 360.157 280.434 359.263 C 280.434 358.371 281.157 357.648 282.049 357.648 L 332.156 357.648 C 333.048 357.648 333.771 358.371 333.771 359.263 C 333.771 360.157 333.05 360.884 332.156 360.89 Z M 332.156 368.968 L 282.049 368.968 C 281.157 368.968 280.434 368.245 280.434 367.353 C 280.434 366.461 281.157 365.737 282.049 365.737 L 332.156 365.737 C 333.048 365.737 333.771 366.461 333.771 367.353 C 333.771 368.245 333.048 368.968 332.156 368.968 Z M 332.156 377.046 L 282.049 377.046 C 281.157 377.046 280.434 376.323 280.434 375.431 C 280.434 374.539 281.157 373.815 282.049 373.815 L 332.156 373.815 C 333.048 373.815 333.771 374.539 333.771 375.431 C 333.771 376.323 333.048 377.046 332.156 377.046 Z M 332.156 385.124 L 282.049 385.124 C 281.157 385.124 280.434 384.401 280.434 383.509 C 280.434 382.617 281.157 381.893 282.049 381.893 L 332.156 381.893 C 333.048 381.893 333.771 382.617 333.771 383.509 C 333.771 384.401 333.048 385.124 332.156 385.124 Z M 332.156 393.214 L 282.049 393.214 C 281.157 393.214 280.434 392.491 280.434 391.598 C 280.434 390.706 281.157 389.983 282.049 389.983 L 332.156 389.983 C 333.048 389.983 333.771 390.706 333.771 391.598 C 333.771 392.491 333.048 393.214 332.156 393.214 Z M 407.951 360.89 L 357.844 360.89 C 356.95 360.884 356.228 360.157 356.228 359.263 C 356.228 358.371 356.952 357.648 357.844 357.648 L 407.951 357.648 C 408.843 357.648 409.566 358.371 409.566 359.263 C 409.566 360.157 408.845 360.884 407.951 360.89 Z M 407.951 368.968 L 357.844 368.968 C 356.952 368.968 356.228 368.245 356.228 367.353 C 356.228 366.461 356.952 365.737 357.844 365.737 L 407.951 365.737 C 408.843 365.737 409.566 366.461 409.566 367.353 C 409.566 368.245 408.843 368.968 407.951 368.968 Z M 407.951 377.046 L 357.844 377.046 C 356.952 377.046 356.228 376.323 356.228 375.431 C 356.228 374.539 356.952 373.815 357.844 373.815 L 407.951 373.815 C 408.843 373.815 409.566 374.539 409.566 375.431 C 409.566 376.323 408.843 377.046 407.951 377.046 Z M 407.951 385.124 L 357.844 385.124 C 356.952 385.124 356.228 384.401 356.228 383.509 C 356.228 382.617 356.952 381.893 357.844 381.893 L 407.951 381.893 C 408.843 381.893 409.566 382.617 409.566 383.509 C 409.566 384.401 408.843 385.124 407.951 385.124 Z M 407.951 393.214 L 357.844 393.214 C 356.952 393.214 356.228 392.491 356.228 391.598 C 356.228 390.706 356.952 389.983 357.844 389.983 L 407.951 389.983 C 408.843 389.983 409.566 390.706 409.566 391.598 C 409.566 392.491 408.843 393.214 407.951 393.214 Z M 407.951 430.096 L 357.844 430.096 C 356.952 430.096 356.228 429.372 356.228 428.48 C 356.228 427.588 356.952 426.865 357.844 426.865 L 407.951 426.865 C 408.843 426.865 409.566 427.588 409.566 428.48 C 409.566 429.372 408.843 430.096 407.951 430.096 Z M 407.951 438.174 L 357.844 438.174 C 356.952 438.174 356.228 437.45 356.228 436.558 C 356.228 435.666 356.952 434.943 357.844 434.943 L 407.951 434.943 C 408.843 434.943 409.566 435.666 409.566 436.558 C 409.566 437.45 408.843 438.174 407.951 438.174 Z M 407.951 446.263 L 357.844 446.263 C 356.952 446.263 356.228 445.54 356.228 444.648 C 356.228 443.755 356.952 443.032 357.844 443.032 L 407.951 443.032 C 408.843 443.032 409.566 443.755 409.566 444.648 C 409.566 445.54 408.843 446.263 407.951 446.263 Z" fill="rgb(38,50,56)"></path>
  <path d="M 357.844 454.341 C 356.952 454.341 356.228 454.341 356.228 454.341 L 356.228 451.11 C 356.228 451.11 356.952 451.11 357.844 451.11 L 407.951 451.11 C 408.843 451.11 409.566 451.11 409.566 451.11 L 409.566 454.341 C 409.566 454.341 408.843 454.341 407.951 454.341 Z" fill="rgb(38,50,56)"></path>
  <path d="M 407.951 462.419 L 357.844 462.419 C 356.952 462.419 356.228 461.696 356.228 460.804 C 356.228 459.911 356.952 459.188 357.844 459.188 L 407.951 459.188 C 408.843 459.188 409.566 459.911 409.566 460.804 C 409.566 461.696 408.843 462.419 407.951 462.419 Z M 403.104 336.102 C 399.95 336.104 397.257 338.382 396.734 341.492 L 389.002 341.492 C 388.419 338.447 385.755 336.245 382.655 336.245 C 379.555 336.245 376.891 338.447 376.308 341.492 L 368.576 341.492 C 367.993 338.447 365.329 336.245 362.229 336.245 C 359.129 336.245 356.465 338.447 355.882 341.492 L 348.046 341.492 C 347.489 338.424 344.817 336.194 341.699 336.194 C 338.581 336.194 335.91 338.424 335.352 341.492 L 327.609 341.492 C 327.052 338.424 324.38 336.194 321.262 336.194 C 318.144 336.194 315.472 338.424 314.915 341.492 L 307.172 341.492 C 306.614 338.424 303.943 336.194 300.825 336.194 C 297.707 336.194 295.035 338.424 294.478 341.492 L 286.734 341.492 C 286.174 338.18 283.169 335.85 279.821 336.131 C 276.474 336.412 273.9 339.211 273.9 342.571 C 273.9 345.93 276.474 348.729 279.821 349.01 C 283.169 349.292 286.174 346.962 286.734 343.65 L 294.478 343.65 C 295.035 346.717 297.707 348.948 300.825 348.948 C 303.943 348.948 306.614 346.717 307.172 343.65 L 314.915 343.65 C 315.472 346.717 318.144 348.948 321.262 348.948 C 324.38 348.948 327.052 346.717 327.609 343.65 L 335.352 343.65 C 335.91 346.717 338.581 348.948 341.699 348.948 C 344.817 348.948 347.489 346.717 348.046 343.65 L 355.79 343.65 C 356.373 346.695 359.036 348.896 362.137 348.896 C 365.237 348.896 367.9 346.695 368.484 343.65 L 376.216 343.65 C 376.799 346.695 379.462 348.896 382.563 348.896 C 385.663 348.896 388.326 346.695 388.91 343.65 L 396.641 343.65 C 397.217 347.029 400.331 349.371 403.737 348.986 C 407.144 348.602 409.657 345.624 409.464 342.201 C 409.271 338.779 406.44 336.102 403.011 336.102 Z" fill="rgb(38,50,56)"></path>
  <path d="M 252.368 427.465 C 247.961 427.46 243.985 430.111 242.296 434.182 C 240.606 438.252 241.535 442.939 244.65 446.057 C 247.764 449.175 252.451 450.11 256.523 448.424 C 260.595 446.739 263.25 442.766 263.25 438.358 C 263.254 435.47 262.108 432.699 260.067 430.656 C 258.026 428.613 255.256 427.465 252.368 427.465 Z M 252.368 443.782 C 250.168 443.787 248.182 442.464 247.337 440.432 C 246.493 438.4 246.957 436.06 248.513 434.504 C 250.069 432.948 252.41 432.483 254.442 433.328 C 256.474 434.172 257.797 436.158 257.792 438.358 C 257.786 441.351 255.361 443.776 252.368 443.782 Z" fill="rgb(255, 222, 217)" stroke-width="1.14" stroke="rgb(38,50,56)" stroke-linecap="round" stroke-linejoin="round"></path>
  <path d="M 255.611 442.686 L 260.804 445.213 C 263.449 441.961 263.991 437.48 262.197 433.691 C 260.404 429.902 256.594 427.481 252.403 427.465 L 252.403 432.923 C 254.727 432.948 256.777 434.45 257.5 436.659 C 258.223 438.868 257.459 441.292 255.599 442.686 Z" fill="rgb(38,50,56)" stroke-width="1.14" stroke="rgb(38,50,56)" stroke-linecap="round" stroke-linejoin="round"></path>
  <path d="M 257.607 462.754 L 247.221 462.754 C 246.534 462.757 245.873 462.486 245.386 462.001 C 244.899 461.516 244.625 460.857 244.625 460.169 L 244.625 460.169 C 244.625 458.735 245.787 457.573 247.221 457.573 L 257.607 457.573 C 259.041 457.573 260.204 458.735 260.204 460.169 L 260.204 460.169 C 260.204 460.857 259.93 461.516 259.443 462.001 C 258.955 462.486 258.295 462.757 257.607 462.754 Z M 284.83 427.465 C 278.814 427.465 273.937 432.342 273.937 438.358 C 273.937 444.375 278.814 449.252 284.83 449.252 C 290.847 449.252 295.724 444.375 295.724 438.358 C 295.727 435.468 294.58 432.696 292.537 430.652 C 290.493 428.608 287.72 427.462 284.83 427.465 Z M 284.83 443.782 C 282.631 443.782 280.648 442.457 279.808 440.424 C 278.967 438.392 279.434 436.053 280.991 434.499 C 282.548 432.946 284.888 432.484 286.918 433.329 C 288.949 434.174 290.27 436.159 290.266 438.358 C 290.266 439.799 289.693 441.18 288.673 442.198 C 287.653 443.215 286.271 443.785 284.83 443.782 Z" fill="rgb(255, 222, 217)" stroke-width="1.14" stroke="rgb(38,50,56)" stroke-linecap="round" stroke-linejoin="round"></path>
  <path d="M 295.666 437.216 C 295.074 431.699 290.437 427.503 284.888 427.465 L 284.888 432.923 C 287.867 432.955 290.266 435.379 290.266 438.358 C 290.254 438.567 290.231 438.775 290.196 438.982 Z" fill="rgb(38,50,56)" stroke-width="1.14" stroke="rgb(38,50,56)" stroke-linecap="round" stroke-linejoin="round"></path>
  <path d="M 290.023 462.754 L 279.637 462.754 C 278.95 462.757 278.289 462.486 277.802 462.001 C 277.315 461.516 277.041 460.857 277.041 460.169 L 277.041 460.169 C 277.041 458.735 278.203 457.573 279.637 457.573 L 290.023 457.573 C 291.457 457.573 292.62 458.735 292.62 460.169 L 292.62 460.169 C 292.62 460.857 292.346 461.516 291.859 462.001 C 291.371 462.486 290.711 462.757 290.023 462.754 Z M 317.488 427.465 C 311.472 427.465 306.595 432.342 306.595 438.358 C 306.595 444.375 311.472 449.252 317.488 449.252 C 323.505 449.252 328.382 444.375 328.382 438.358 C 328.385 435.468 327.239 432.696 325.195 430.652 C 323.151 428.608 320.379 427.462 317.488 427.465 Z M 317.488 443.782 C 315.289 443.782 313.306 442.457 312.466 440.424 C 311.625 438.392 312.092 436.053 313.649 434.499 C 315.206 432.946 317.546 432.484 319.577 433.329 C 321.607 434.174 322.928 436.159 322.924 438.358 C 322.924 439.799 322.351 441.18 321.331 442.198 C 320.311 443.215 318.929 443.785 317.488 443.782 Z" fill="rgb(255, 222, 217)" stroke-width="1.14" stroke="rgb(38,50,56)" stroke-linecap="round" stroke-linejoin="round"></path>
  <path d="M 317.546 427.465 L 317.546 432.923 C 320.067 432.927 322.255 434.664 322.83 437.119 C 323.405 439.574 322.216 442.102 319.959 443.225 C 317.702 444.348 314.968 443.771 313.357 441.832 L 309.041 445.202 C 312.228 449.131 317.703 450.346 322.253 448.133 C 326.802 445.92 329.227 440.864 328.104 435.931 C 326.98 430.998 322.605 427.489 317.546 427.465 Z" fill="rgb(38,50,56)" stroke-width="1.14" stroke="rgb(38,50,56)" stroke-linecap="round" stroke-linejoin="round"></path>
  <path d="M 322.681 462.754 L 312.295 462.754 C 311.608 462.757 310.947 462.486 310.46 462.001 C 309.973 461.516 309.699 460.857 309.699 460.169 L 309.699 460.169 C 309.696 459.479 309.968 458.817 310.456 458.33 C 310.944 457.842 311.606 457.569 312.295 457.573 L 322.681 457.573 C 324.115 457.573 325.278 458.735 325.278 460.169 L 325.278 460.169 C 325.278 460.857 325.004 461.516 324.517 462.001 C 324.03 462.486 323.369 462.757 322.681 462.754 Z" fill="rgb(255, 222, 217)" stroke-width="1.14" stroke="rgb(38,50,56)" stroke-linecap="round" stroke-linejoin="round"></path>
  <path d="M 156.898 210.813 C 156.898 183.892 178.722 162.068 205.643 162.068 C 232.564 162.068 254.388 183.892 254.388 210.813 C 254.388 237.734 232.564 259.558 205.643 259.558 C 178.722 259.558 156.898 237.734 156.898 210.813 Z" fill="rgb(255,255,255)"></path>
  <path d="M 220.414 482.003 C 220.414 482.003 227.453 492.585 226.484 496.774 C 225.515 500.963 219.329 499.67 216.398 495.158 C 213.467 490.646 206.012 483.907 207.362 481.01 C 208.712 478.114 217.783 479.429 220.414 482.003 Z M 190.168 481.414 C 190.168 481.414 181.663 494.039 183.024 497.489 C 184.386 500.94 188.794 499.913 192.164 496.797 C 195.534 493.681 202.262 484.934 202.262 484.934 C 202.262 484.934 196.607 477.964 190.168 481.414 Z" fill="rgb(255,255,255)" stroke-width="1.17" stroke="rgb(38,50,56)" stroke-linecap="round" stroke-linejoin="round"></path>
  <path d="M 183.024 497.489 C 185.331 497.807 187.677 497.348 189.695 496.185 C 193.572 494.224 200.334 485.372 200.334 485.372 M 209.728 483.122 C 209.728 483.122 213.409 490.046 217.552 493.97 C 221.695 497.893 223.726 499.013 226.449 496.774" fill="transparent" stroke-width="0.88" stroke="rgb(38,50,56)" stroke-linecap="round" stroke-linejoin="round"></path>
  <path d="M 178.224 323.87 C 178.224 323.87 170.78 339.057 171.115 345.265 C 171.45 351.474 172.812 382.886 174.843 393.237 C 176.874 403.588 178.87 429.369 180.255 439.674 C 181.64 449.979 190.514 474.121 190.514 474.121 C 190.514 474.121 189.152 479.649 190.168 481.368 C 191.183 483.087 201.927 485.926 202.262 484.888 C 202.596 483.849 204.293 480.745 204.57 477.641 C 204.847 474.536 199.838 441.405 201.869 434.158 C 203.9 426.911 204.293 378.189 204.57 373.169 C 204.847 368.149 204.489 359.321 204.489 359.321 C 205.723 359.701 207.065 359.295 207.882 358.294 C 209.232 356.563 213.709 403.473 215.071 414.517 C 216.433 425.561 213.375 428.665 212.359 435.566 C 211.344 442.467 208.978 464.889 208.978 467.658 C 208.978 470.428 205.931 479.383 207.281 481.114 C 208.632 482.845 211.505 482.557 212.682 482.88 C 216.213 483.861 218.972 482.326 220.322 481.98 C 221.672 481.633 222.814 476.637 222.814 476.637 C 222.814 476.637 233.685 445.917 235.716 433.142 C 237.747 420.368 241.128 396.664 240.459 382.17 C 239.79 367.676 235.716 338.318 235.716 338.318 L 234.701 329.686 Z" fill="rgb(38,50,56)" stroke-width="1.17" stroke="rgb(38,50,56)" stroke-linecap="round" stroke-linejoin="round"></path>
  <path d="M 173.469 341.434 C 173.469 341.434 172.812 349.95 178.385 355.513 M 173.792 353.551 C 173.792 353.551 177.07 359.125 181.005 359.771" fill="transparent" stroke-width="0.58" stroke="rgb(255,255,255)" stroke-linecap="round" stroke-linejoin="round"></path>
  <path d="M 199.988 446.748 C 199.988 446.748 195.372 457.757 194.749 463.77 C 194.126 469.782 199.988 467.439 201.304 471.444 C 202.619 475.448 193.445 475.125 195.084 476.117 C 196.722 477.11 201.627 477.791 201.627 477.791 M 208.874 474.121 C 209.855 473.786 220.991 471.813 219.675 465.777 C 218.36 459.742 211.817 459.43 212.751 452.426 C 213.686 445.421 223.876 430.05 223.876 425.711 C 223.876 421.372 216.675 405.204 216.017 395.187" fill="transparent" stroke-width="0.59" stroke="rgb(255,255,255)" stroke-linecap="round" stroke-linejoin="round"></path>
  <path d="M 224.88 340.788 C 224.88 340.788 217.344 351.589 216.363 353.228 C 215.383 354.867 225.203 346.027 225.203 346.027 M 205.17 336.968 C 205.17 336.968 205.989 344.861 205.989 346.488 L 205.989 355.478 M 205.989 350.585 C 205.989 350.585 209.532 350.043 210.34 347.319 C 211.147 344.596 210.894 339.149 210.894 339.149" fill="transparent" stroke-width="0.58" stroke="rgb(255,255,255)" stroke-linecap="round" stroke-linejoin="round"></path>
  <path d="M 274.363 243.309 C 270.301 231.458 269.621 225.03 269.286 221.649 C 268.951 218.268 265.224 219.272 265.224 219.272 C 265.224 219.272 257.146 224.014 257.146 225.042 C 257.146 226.069 260.873 251.11 261.543 255.507 C 261.949 258.085 262.176 260.688 262.223 263.297 C 262.223 263.297 248.006 248.064 244.279 244.336 C 241.44 241.486 239.19 239.051 236.778 237.597 C 235.474 236.443 233.212 236.016 229.727 234.862 C 223.634 232.831 217.206 228.088 209.751 228.423 C 204.857 228.759 200.052 229.905 195.534 231.816 C 195.534 231.816 184.709 236.893 177.254 240.274 C 176.386 240.662 175.562 241.142 174.796 241.705 C 173.573 241.555 171.023 242.213 168.115 248.733 C 164.064 257.873 145.785 281.911 142.727 290.369 C 139.669 298.828 146.108 307.299 153.217 314.061 C 158.345 319.104 163.203 324.416 167.769 329.975 L 175.847 320.027 C 176.075 322.241 176.461 324.435 177.001 326.594 C 178.016 329.975 181.397 333.702 194.945 334.672 C 208.493 335.641 238.924 337.51 237.932 330.609 C 236.535 320.8 237.251 289.308 236.582 280.849 C 236.383 275.423 236.495 269.991 236.916 264.578 C 238.474 266.551 241.532 270.209 243.667 271.652 C 246.714 273.683 259.592 283.192 264.67 285.246 C 269.747 287.3 276.856 283.896 279.903 277.168 C 282.949 270.44 278.426 255.161 274.363 243.309 Z M 164.018 299.498 C 162.656 294.085 161.987 292.054 161.987 292.054 C 161.987 292.054 170.665 282.707 174.843 277.722 C 175.408 291.096 175.766 305.729 175.373 307.876 C 175.065 311.474 175.147 315.096 175.616 318.677 C 173.354 315.573 165.172 304.16 164.018 299.498 Z" fill="rgb(255, 133, 133)" stroke-width="1.17" stroke="rgb(38,50,56)" stroke-linecap="round" stroke-linejoin="round"></path>
  <path d="M 274.363 243.309 C 270.301 231.458 269.621 225.03 269.286 221.649 C 268.951 218.268 265.224 219.272 265.224 219.272 C 265.224 219.272 257.146 224.014 257.146 225.042 C 257.146 226.069 260.873 251.11 261.543 255.507 C 261.949 258.085 262.176 260.688 262.223 263.297 C 262.223 263.297 248.006 248.064 244.279 244.336 C 241.44 241.486 239.19 239.051 236.778 237.597 C 235.474 236.443 233.212 236.016 229.727 234.862 C 223.634 232.831 217.206 228.088 209.751 228.423 C 204.857 228.759 200.052 229.905 195.534 231.816 C 195.534 231.816 184.709 236.893 177.254 240.274 C 176.386 240.662 175.562 241.142 174.796 241.705 C 173.573 241.555 171.023 242.213 168.115 248.733 C 164.064 257.873 145.785 281.911 142.727 290.369 C 139.669 298.828 146.108 307.299 153.217 314.061 C 158.345 319.104 163.203 324.416 167.769 329.975 L 175.847 320.027 C 176.075 322.241 176.461 324.435 177.001 326.594 C 178.016 329.975 181.397 333.702 194.945 334.672 C 208.493 335.641 238.924 337.51 237.932 330.609 C 236.535 320.8 237.251 289.308 236.582 280.849 C 236.383 275.423 236.495 269.991 236.916 264.578 C 238.474 266.551 241.532 270.209 243.667 271.652 C 246.714 273.683 259.592 283.192 264.67 285.246 C 269.747 287.3 276.856 283.896 279.903 277.168 C 282.949 270.44 278.426 255.161 274.363 243.309 Z M 164.018 299.498 C 162.656 294.085 161.987 292.054 161.987 292.054 C 161.987 292.054 170.665 282.707 174.843 277.722 C 175.408 291.096 175.766 305.729 175.373 307.876 C 175.065 311.474 175.147 315.096 175.616 318.677 C 173.354 315.573 165.172 304.16 164.018 299.498 Z" fill="rgb(255, 222, 217)" opacity="0.1"></path>
  <path d="M 179.032 276.268 C 181.174 273.051 183.039 269.657 184.605 266.124 M 187.548 267.105 C 186.765 268.737 185.648 270.188 184.271 271.363" fill="transparent" stroke-width="0.88" stroke="rgb(38,50,56)" stroke-linecap="round" stroke-linejoin="round"></path>
  <path d="M 262.177 263.285 C 262.269 267.224 263.931 270.963 266.793 273.671 M 263.516 268.744 C 263.24 271.823 263.93 274.913 265.489 277.583" fill="transparent" stroke-width="1.17" stroke="rgb(38,50,56)" stroke-linecap="round" stroke-linejoin="round"></path>
  <path d="M 161.987 292.054 C 161.987 292.054 159.494 289.689 153.344 290.716 M 149.939 289.354 C 149.939 289.354 151.647 286.619 158.121 288.662 M 244.117 254.203 C 242.755 254.538 236.951 264.439 236.951 264.439 L 250.949 260.689" fill="transparent" stroke-width="0.88" stroke="rgb(38,50,56)" stroke-linecap="round" stroke-linejoin="round"></path>
  <path d="M 203.923 247.452 C 203.923 247.452 206.543 251.053 212.44 249.426 C 218.337 247.798 220.299 241.567 219.364 237.632 C 218.429 233.697 198.684 236.974 203.923 247.452 Z" fill="rgb(255,255,255)" stroke-width="1.17" stroke="rgb(38,50,56)" stroke-linecap="round" stroke-linejoin="round"></path>
  <path d="M 198.315 225.03 C 198.315 225.03 194.357 227.661 193.837 230.038 C 193.318 232.416 194.622 240.044 195.672 242.675 C 196.722 245.306 200.161 251.364 200.161 251.364 C 200.161 251.364 212.013 244.521 212.855 243.99 C 213.698 243.459 222.087 248.202 223.922 247.452 C 225.757 246.702 219.445 230.592 216.548 227.176 C 213.652 223.761 202.527 221.856 198.315 225.03 Z" fill="rgb(255,255,255)" stroke-width="1.17" stroke="rgb(38,50,56)" stroke-linecap="round" stroke-linejoin="round"></path>
  <path d="M 196.18 216.329 C 196.18 216.329 196.445 220.541 196.976 226.865 C 197.507 233.189 199.642 238.186 203.104 241.082 C 206.566 243.979 211.528 245.56 212.844 243.979 C 214.159 242.398 215.74 235.82 215.152 231.862 C 214.563 227.903 213.836 219.491 213.836 219.491 Z" fill="rgb(255,255,255)" stroke-width="1.17" stroke="rgb(38,50,56)" stroke-linecap="round" stroke-linejoin="round"></path>
  <path d="M 214.644 226.934 C 214.252 223.253 213.894 219.491 213.894 219.491 L 196.18 216.329 C 196.18 216.329 196.445 220.541 196.976 226.865 C 197.177 229.789 197.851 232.662 198.973 235.37 Z" fill="rgb(255, 222, 217)" opacity="0.5"></path>
  <path d="M 190.41 210.028 C 190.41 210.028 186.463 206.081 185.667 209.497 C 184.871 212.913 188.044 218.198 192.522 216.871 L 192.522 213.721 Z" fill="rgb(255,255,255)" stroke-width="1.17" stroke="rgb(38,50,56)" stroke-linecap="round" stroke-linejoin="round"></path>
  <path d="M 190.41 210.028 C 190.41 210.028 186.463 206.081 185.667 209.497 C 184.871 212.913 188.044 218.198 192.522 216.871 L 192.522 213.721 Z" fill="rgb(255, 222, 217)" opacity="0.5" stroke-width="1.17" stroke="rgb(38,50,56)" stroke-linecap="round" stroke-linejoin="round"></path>
  <path d="M 186.948 202.896 C 186.948 202.896 193.537 220.541 199.33 223.968 C 205.123 227.396 216.71 230.546 219.872 218.198 C 223.034 205.851 214.609 187.906 211.713 182.632 C 208.816 177.358 198.015 175.789 191.172 181.051 C 184.328 186.313 182.771 191.299 186.948 202.896 Z" fill="rgb(255,255,255)" stroke-width="1.17" stroke="rgb(38,50,56)" stroke-linecap="round" stroke-linejoin="round"></path>
  <path d="M 194.253 187.952 C 197.049 186.658 200.081 185.952 203.162 185.875 L 209.728 180.347 C 205.412 177.024 196.93 176.62 191.206 181.028 C 184.351 186.302 182.771 191.299 186.983 202.896 C 186.983 202.896 193.572 220.541 199.365 223.968 C 201.42 225.176 203.645 226.067 205.966 226.611 C 203.173 223.01 198.88 217.287 197.519 214.367 C 195.441 209.913 194.553 200.715 191.876 195.372 C 189.198 190.029 190.098 190.029 194.253 187.952 Z" fill="rgb(255, 222, 217)" opacity="0.5"></path>
  <path d="M 208.055 197.622 C 208.055 197.622 210.686 202.365 209.636 203.393 C 208.912 204.017 207.914 204.219 207.005 203.923" fill="transparent" stroke-width="1.17" stroke="rgb(38,50,56)" stroke-linecap="round" stroke-linejoin="round"></path>
  <path d="M 195.938 196.838 C 195.938 196.838 196.469 193.676 200.415 193.676" fill="transparent" stroke-width="2.35" stroke="rgb(38,50,56)" stroke-linecap="round" stroke-linejoin="round"></path>
  <path d="M 198.315 200 C 198.315 200 201.211 201.315 202.262 198.419 M 210.951 197.888 C 210.951 197.888 213.848 199.203 214.909 196.307" fill="transparent" stroke-width="1.17" stroke="rgb(38,50,56)" stroke-linecap="round" stroke-linejoin="round"></path>
  <path d="M 208.551 191.841 C 210.011 190.353 212.376 190.257 213.952 191.622" fill="transparent" stroke-width="2.35" stroke="rgb(38,50,56)" stroke-linecap="round" stroke-linejoin="round"></path>
  <path d="M 220.414 208.055 C 217.344 206.716 210.028 203.762 207.582 204.997 C 204.42 206.578 196.249 212.117 196.249 216.329 C 196.249 216.329 190.987 209.22 190.987 206.578 C 190.987 203.935 193.087 203.116 191.252 199.734 C 189.418 196.353 186.763 196.042 187.56 192.095 C 188.287 188.437 195.568 184.559 199.1 184.017 C 201.306 185.883 204.115 186.884 207.005 186.833 C 212.775 186.833 217.541 183.128 217.541 178.535 C 217.541 173.942 212.821 170.25 207.005 170.25 C 205.71 170.244 204.422 170.434 203.185 170.815 C 197.669 170.411 196.619 174.496 192.799 176.735 C 188.979 178.974 186.579 185.575 186.579 185.575 L 186.74 185.575 C 183.948 189.66 183.959 194.587 186.994 202.885 C 186.994 202.885 193.583 220.529 199.377 223.957 C 205.17 227.384 216.756 230.535 219.918 218.187 C 220.686 214.866 220.854 211.435 220.414 208.055 Z" fill="rgb(38,50,56)" stroke-width="1.17" stroke="rgb(38,50,56)" stroke-linecap="round" stroke-linejoin="round"></path>
  <path d="M 214.125 207.789 C 214.125 207.789 210.178 213.317 205.7 209.636" fill="transparent" stroke-width="1.17" stroke="rgb(255,255,255)" stroke-linecap="round" stroke-linejoin="round"></path>
  <path d="M 176.193 319.473 C 177.757 320.46 179.133 321.719 180.255 323.189 C 181.63 325.072 183.101 326.882 184.663 328.613 C 184.663 328.613 188.379 328.948 188.044 330.644 C 187.71 332.34 187.029 333.344 185.332 333.344 C 183.636 333.344 179.92 329.963 179.92 329.963 L 174.508 338.422 C 174.508 338.422 169.43 334.706 167.734 329.963 Z" fill="rgb(255,255,255)" stroke-width="1.17" stroke="rgb(38,50,56)" stroke-linecap="round" stroke-linejoin="round"></path>
  <path d="M 156.898 210.813 C 156.898 183.892 178.722 162.068 205.643 162.068 C 232.564 162.068 254.388 183.892 254.388 210.813 C 254.388 237.734 232.564 259.558 205.643 259.558 C 178.722 259.558 156.898 237.734 156.898 210.813 Z" fill="transparent" stroke-width="2.35" stroke="rgb(38,50,56)" stroke-linecap="round" stroke-linejoin="round"></path>
  <path d="M 249.656 201.338 C 249.656 201.338 246.264 200.992 245.594 203.023 C 244.925 205.054 243.898 207.085 243.898 208.447 C 243.898 209.809 244.233 210.813 245.929 211.147 C 247.625 211.482 248.641 209.116 248.641 209.116 Z M 250.326 198.961 C 250.326 198.961 248.641 208.101 248.641 210.813 C 248.715 212.898 249.423 214.911 250.672 216.583 C 251.289 217.282 252.121 217.757 253.038 217.933 L 254.734 215.902 C 254.734 215.902 252.703 218.614 255.403 221.995 C 258.104 225.376 260.146 225.042 262.512 224.026 C 264.878 223.01 265.558 221.66 264.543 217.933 C 263.527 214.205 262.858 208.112 262.177 204.396 C 261.496 200.681 259.131 199.319 257.781 199.319 C 256.43 199.319 252.726 197.946 250.326 198.961 Z" fill="rgb(255,255,255)" stroke-width="1.17" stroke="rgb(38,50,56)" stroke-linecap="round" stroke-linejoin="round"></path>
  <path d="M 249.091 212.717 C 249.091 212.717 248.491 210.617 251.041 210.316 C 253.591 210.016 257.804 209.566 257.804 209.566 M 249.391 207.316 C 249.391 207.316 255.242 205.804 257.354 206.104 M 249.841 203.104 C 252.024 202.716 254.236 202.515 256.453 202.504 M 251.791 214.367 C 252.73 215.212 254.02 215.552 255.253 215.279" fill="transparent" stroke-width="0.58" stroke="rgb(38,50,56)" stroke-linecap="round" stroke-linejoin="round"></path>
</svg>