<!-- Resume -->
<svg xmlns="http://www.w3.org/2000/svg" width="596" height="596">
  <path d="M 511.63 350.972 C 509.563 335.286 506.113 319.813 501.319 304.735 C 496.206 288.047 490.246 271.228 490.866 253.824 C 491.307 241.559 495.014 229.663 496.826 217.516 C 499.794 198.098 497.958 178.109 492.844 159.108 C 489.161 145.46 483.702 132.086 474.964 120.964 C 467.145 111.011 456.917 103.084 445.903 96.91 C 416.795 80.448 382.727 75.263 349.351 73.07 C 317.31 70.924 284.614 71.317 253.777 80.222 C 215.015 91.356 182.593 118.039 164.21 153.935 C 144.387 192.746 132.92 236.362 105.146 270.751 C 90.485 288.905 71.365 304.341 62.973 326.107 C 50.97 357.23 65.882 394.731 93.083 414.041 C 110.236 426.223 131.013 432.04 149.656 441.803 C 166.856 450.802 182.138 463.104 199.076 472.592 C 261.298 507.434 338.528 500.64 407.223 481.854 C 441.576 472.497 477.551 458.634 497.267 428.977 C 512.381 406.198 514.944 378.603 511.63 350.972 Z" fill="rgb(250, 212, 122)"></path>
  <path d="M 511.63 350.972 C 509.563 335.286 506.113 319.813 501.319 304.735 C 496.206 288.047 490.246 271.228 490.866 253.824 C 491.307 241.559 495.014 229.663 496.826 217.516 C 499.794 198.098 497.958 178.109 492.844 159.108 C 489.161 145.46 483.702 132.086 474.964 120.964 C 467.145 111.011 456.917 103.084 445.903 96.91 C 416.795 80.448 382.727 75.263 349.351 73.07 C 317.31 70.924 284.614 71.317 253.777 80.222 C 215.015 91.356 182.593 118.039 164.21 153.935 C 144.387 192.746 132.92 236.362 105.146 270.751 C 90.485 288.905 71.365 304.341 62.973 326.107 C 50.97 357.23 65.882 394.731 93.083 414.041 C 110.236 426.223 131.013 432.04 149.656 441.803 C 166.856 450.802 182.138 463.104 199.076 472.592 C 261.298 507.434 338.528 500.64 407.223 481.854 C 441.576 472.497 477.551 458.634 497.267 428.977 C 512.381 406.198 514.944 378.603 511.63 350.972 Z" fill="rgb(255,255,255)" opacity="0.8"></path>
  <path d="M 104.288 505.682 C 104.288 498.032 194.367 491.831 305.486 491.831 C 416.604 491.831 506.683 498.032 506.683 505.682 C 506.683 513.332 416.604 519.533 305.486 519.533 C 194.367 519.533 104.288 513.332 104.288 505.682 Z" fill="rgb(38,50,56)"></path>
  <path d="M 151.134 126.09 L 445.176 126.09 L 445.176 504.562 L 151.134 504.562 Z" fill="rgb(255,255,255)" stroke-width="1.18" stroke="rgb(38,50,56)" stroke-linecap="round" stroke-linejoin="round"></path>
  <path d="M 151.134 126.09 L 198.039 126.09 L 198.039 504.562 L 151.134 504.562 Z" fill="rgb(250, 235, 179)"></path>
  <path d="M 289.668 182.006 L 379.843 182.006 L 379.843 192.615 L 289.668 192.615 Z" fill="rgb(250, 235, 179)" stroke-width="1.18" stroke="rgb(38,50,56)" stroke-linecap="round" stroke-linejoin="round"></path>
  <path d="M 188.133 272.396 L 435.318 272.396 L 435.318 283.005 L 188.133 283.005 Z M 188.133 418.201 L 435.318 418.201 L 435.318 428.81 L 188.133 428.81 Z" fill="rgb(250, 235, 179)"></path>
  <path d="M 289.668 200.28 L 346.502 200.28 L 346.502 210.889 L 289.668 210.889 Z M 289.668 218.172 L 346.502 218.172 L 346.502 228.781 L 289.668 228.781 Z M 275.996 294.686 L 281.848 294.686 L 281.848 300.539 L 275.996 300.539 Z M 275.996 369.961 L 281.848 369.961 L 281.848 375.814 L 275.996 375.814 Z M 358.589 294.686 L 364.442 294.686 L 364.442 300.539 L 358.589 300.539 Z M 358.589 369.961 L 364.442 369.961 L 364.442 375.814 L 358.589 375.814 Z" fill="rgb(250, 235, 179)" stroke-width="1.18" stroke="rgb(38,50,56)" stroke-linecap="round" stroke-linejoin="round"></path>
  <path d="M 151.134 126.09 L 445.176 126.09 L 445.176 145.341 L 151.134 145.341 Z" fill="rgb(38,50,56)" stroke-width="1.18" stroke="rgb(38,50,56)" stroke-linecap="round" stroke-linejoin="round"></path>
  <path d="M 343.093 298.751 L 291.337 298.751 C 290.415 298.751 289.668 298.004 289.668 297.082 C 289.668 296.161 290.415 295.413 291.337 295.413 L 343.093 295.413 C 344.015 295.413 344.762 296.161 344.762 297.082 C 344.762 298.004 344.015 298.751 343.093 298.751 Z M 343.093 307.107 L 291.337 307.107 C 290.413 307.1 289.668 306.35 289.668 305.426 C 289.668 304.505 290.415 303.757 291.337 303.757 L 343.093 303.757 C 344.015 303.757 344.762 304.505 344.762 305.426 C 344.762 306.35 344.017 307.1 343.093 307.107 Z M 343.093 315.451 L 291.337 315.451 C 290.415 315.451 289.668 314.704 289.668 313.782 C 289.668 312.86 290.415 312.113 291.337 312.113 L 343.093 312.113 C 344.015 312.113 344.762 312.86 344.762 313.782 C 344.762 314.704 344.015 315.451 343.093 315.451 Z M 343.093 323.795 L 291.337 323.795 C 290.415 323.795 289.668 323.048 289.668 322.126 C 289.668 321.204 290.415 320.457 291.337 320.457 L 343.093 320.457 C 344.015 320.457 344.762 321.204 344.762 322.126 C 344.762 323.048 344.015 323.795 343.093 323.795 Z M 343.093 332.139 L 291.337 332.139 C 290.415 332.139 289.668 331.392 289.668 330.47 C 289.668 329.548 290.415 328.801 291.337 328.801 L 343.093 328.801 C 344.015 328.801 344.762 329.548 344.762 330.47 C 344.762 331.392 344.015 332.139 343.093 332.139 Z M 421.384 298.751 L 369.627 298.751 C 368.706 298.751 367.958 298.004 367.958 297.082 C 367.958 296.161 368.706 295.413 369.627 295.413 L 421.384 295.413 C 422.306 295.413 423.053 296.161 423.053 297.082 C 423.053 298.004 422.306 298.751 421.384 298.751 Z M 421.384 307.107 L 369.627 307.107 C 368.704 307.1 367.958 306.35 367.958 305.426 C 367.958 304.505 368.706 303.757 369.627 303.757 L 421.384 303.757 C 422.306 303.757 423.053 304.505 423.053 305.426 C 423.053 306.35 422.307 307.1 421.384 307.107 Z M 421.384 315.451 L 369.627 315.451 C 368.706 315.451 367.958 314.704 367.958 313.782 C 367.958 312.86 368.706 312.113 369.627 312.113 L 421.384 312.113 C 422.306 312.113 423.053 312.86 423.053 313.782 C 423.053 314.704 422.306 315.451 421.384 315.451 Z M 421.384 323.795 L 369.627 323.795 C 368.706 323.795 367.958 323.048 367.958 322.126 C 367.958 321.204 368.706 320.457 369.627 320.457 L 421.384 320.457 C 422.306 320.457 423.053 321.204 423.053 322.126 C 423.053 323.048 422.306 323.795 421.384 323.795 Z M 421.384 332.139 L 369.627 332.139 C 368.706 332.139 367.958 331.392 367.958 330.47 C 367.958 329.548 368.706 328.801 369.627 328.801 L 421.384 328.801 C 422.306 328.801 423.053 329.548 423.053 330.47 C 423.053 331.392 422.306 332.139 421.384 332.139 Z M 343.093 372.774 L 291.337 372.774 C 290.413 372.768 289.668 372.017 289.668 371.093 C 289.668 370.172 290.415 369.425 291.337 369.425 L 343.093 369.425 C 344.015 369.425 344.762 370.172 344.762 371.093 C 344.762 372.017 344.017 372.768 343.093 372.774 Z M 343.093 381.118 L 291.337 381.118 C 290.415 381.118 289.668 380.371 289.668 379.449 C 289.668 378.528 290.415 377.781 291.337 377.781 L 343.093 377.781 C 344.015 377.781 344.762 378.528 344.762 379.449 C 344.762 380.371 344.015 381.118 343.093 381.118 Z M 343.093 389.462 L 291.337 389.462 C 290.415 389.462 289.668 388.715 289.668 387.793 C 289.668 386.872 290.415 386.125 291.337 386.125 L 343.093 386.125 C 344.015 386.125 344.762 386.872 344.762 387.793 C 344.762 388.715 344.015 389.462 343.093 389.462 Z M 343.093 397.806 L 291.337 397.806 C 290.415 397.806 289.668 397.059 289.668 396.137 C 289.668 395.216 290.415 394.469 291.337 394.469 L 343.093 394.469 C 344.015 394.469 344.762 395.216 344.762 396.137 C 344.762 397.059 344.015 397.806 343.093 397.806 Z M 343.093 406.162 L 291.337 406.162 C 290.415 406.162 289.668 405.415 289.668 404.493 C 289.668 403.572 290.415 402.824 291.337 402.824 L 343.093 402.824 C 344.015 402.824 344.762 403.572 344.762 404.493 C 344.762 405.415 344.015 406.162 343.093 406.162 Z M 421.384 372.774 L 369.627 372.774 C 368.704 372.768 367.958 372.017 367.958 371.093 C 367.958 370.172 368.706 369.425 369.627 369.425 L 421.384 369.425 C 422.306 369.425 423.053 370.172 423.053 371.093 C 423.053 372.017 422.307 372.768 421.384 372.774 Z M 421.384 381.118 L 369.627 381.118 C 368.706 381.118 367.958 380.371 367.958 379.449 C 367.958 378.528 368.706 377.781 369.627 377.781 L 421.384 377.781 C 422.306 377.781 423.053 378.528 423.053 379.449 C 423.053 380.371 422.306 381.118 421.384 381.118 Z M 421.384 389.462 L 369.627 389.462 C 368.706 389.462 367.958 388.715 367.958 387.793 C 367.958 386.872 368.706 386.125 369.627 386.125 L 421.384 386.125 C 422.306 386.125 423.053 386.872 423.053 387.793 C 423.053 388.715 422.306 389.462 421.384 389.462 Z M 421.384 397.806 L 369.627 397.806 C 368.706 397.806 367.958 397.059 367.958 396.137 C 367.958 395.216 368.706 394.469 369.627 394.469 L 421.384 394.469 C 422.306 394.469 423.053 395.216 423.053 396.137 C 423.053 397.059 422.306 397.806 421.384 397.806 Z M 421.384 406.162 L 369.627 406.162 C 368.706 406.162 367.958 405.415 367.958 404.493 C 367.958 403.572 368.706 402.824 369.627 402.824 L 421.384 402.824 C 422.306 402.824 423.053 403.572 423.053 404.493 C 423.053 405.415 422.306 406.162 421.384 406.162 Z M 421.384 444.258 L 369.627 444.258 C 368.706 444.258 367.958 443.511 367.958 442.59 C 367.958 441.668 368.706 440.921 369.627 440.921 L 421.384 440.921 C 422.306 440.921 423.053 441.668 423.053 442.59 C 423.053 443.511 422.306 444.258 421.384 444.258 Z M 421.384 452.602 L 369.627 452.602 C 368.706 452.602 367.958 451.855 367.958 450.934 C 367.958 450.012 368.706 449.265 369.627 449.265 L 421.384 449.265 C 422.306 449.265 423.053 450.012 423.053 450.934 C 423.053 451.855 422.306 452.602 421.384 452.602 Z M 421.384 460.958 L 369.627 460.958 C 368.706 460.958 367.958 460.211 367.958 459.29 C 367.958 458.368 368.706 457.621 369.627 457.621 L 421.384 457.621 C 422.306 457.621 423.053 458.368 423.053 459.29 C 423.053 460.211 422.306 460.958 421.384 460.958 Z" fill="rgb(38,50,56)"></path>
  <path d="M 369.627 469.302 C 368.706 469.302 367.958 469.302 367.958 469.302 L 367.958 465.965 C 367.958 465.965 368.706 465.965 369.627 465.965 L 421.384 465.965 C 422.306 465.965 423.053 465.965 423.053 465.965 L 423.053 469.302 C 423.053 469.302 422.306 469.302 421.384 469.302 Z" fill="rgb(38,50,56)"></path>
  <path d="M 421.384 477.646 L 369.627 477.646 C 368.706 477.646 367.958 476.899 367.958 475.978 C 367.958 475.056 368.706 474.309 369.627 474.309 L 421.384 474.309 C 422.306 474.309 423.053 475.056 423.053 475.978 C 423.053 476.899 422.306 477.646 421.384 477.646 Z M 416.378 347.17 C 413.12 347.171 410.339 349.524 409.798 352.737 L 401.811 352.737 C 401.209 349.591 398.458 347.317 395.255 347.317 C 392.053 347.317 389.302 349.591 388.699 352.737 L 380.713 352.737 C 380.11 349.591 377.359 347.317 374.157 347.317 C 370.955 347.317 368.203 349.591 367.601 352.737 L 359.507 352.737 C 358.932 349.568 356.172 347.264 352.951 347.264 C 349.731 347.264 346.971 349.568 346.395 352.737 L 338.397 352.737 C 337.821 349.568 335.062 347.264 331.841 347.264 C 328.62 347.264 325.86 349.568 325.285 352.737 L 317.287 352.737 C 316.711 349.568 313.951 347.264 310.731 347.264 C 307.51 347.264 304.75 349.568 304.175 352.737 L 296.176 352.737 C 295.597 349.316 292.493 346.909 289.036 347.199 C 285.578 347.49 282.92 350.381 282.92 353.851 C 282.92 357.321 285.578 360.212 289.036 360.503 C 292.493 360.794 295.597 358.387 296.176 354.966 L 304.175 354.966 C 304.75 358.135 307.51 360.438 310.731 360.438 C 313.951 360.438 316.711 358.135 317.287 354.966 L 325.285 354.966 C 325.86 358.135 328.62 360.438 331.841 360.438 C 335.062 360.438 337.821 358.135 338.397 354.966 L 346.395 354.966 C 346.971 358.135 349.731 360.438 352.951 360.438 C 356.172 360.438 358.932 358.135 359.507 354.966 L 367.506 354.966 C 368.108 358.111 370.859 360.385 374.062 360.385 C 377.264 360.385 380.015 358.111 380.618 354.966 L 388.604 354.966 C 389.206 358.111 391.958 360.385 395.16 360.385 C 398.362 360.385 401.113 358.111 401.716 354.966 L 409.702 354.966 C 410.297 358.456 413.513 360.876 417.032 360.478 C 420.551 360.081 423.147 357.005 422.947 353.47 C 422.748 349.934 419.823 347.17 416.282 347.17 Z" fill="rgb(38,50,56)"></path>
  <path d="M 260.678 441.541 C 256.126 441.536 252.019 444.274 250.274 448.479 C 248.529 452.683 249.488 457.525 252.706 460.746 C 255.923 463.966 260.764 464.931 264.97 463.19 C 269.176 461.449 271.919 457.345 271.919 452.793 C 271.922 449.81 270.739 446.948 268.631 444.837 C 266.523 442.727 263.662 441.541 260.678 441.541 Z M 260.678 458.396 C 258.406 458.4 256.354 457.034 255.482 454.935 C 254.61 452.836 255.089 450.419 256.697 448.811 C 258.304 447.204 260.722 446.724 262.821 447.597 C 264.92 448.469 266.286 450.52 266.281 452.793 C 266.274 455.885 263.77 458.389 260.678 458.396 Z" fill="rgb(250, 235, 179)" stroke-width="1.18" stroke="rgb(38,50,56)" stroke-linecap="round" stroke-linejoin="round"></path>
  <path d="M 264.028 457.263 L 269.392 459.874 C 272.124 456.515 272.684 451.885 270.831 447.972 C 268.979 444.059 265.044 441.557 260.714 441.541 L 260.714 447.179 C 263.115 447.204 265.232 448.756 265.979 451.038 C 266.726 453.319 265.937 455.823 264.016 457.263 Z" fill="rgb(38,50,56)" stroke-width="1.18" stroke="rgb(38,50,56)" stroke-linecap="round" stroke-linejoin="round"></path>
  <path d="M 266.09 477.992 L 255.362 477.992 C 254.652 477.995 253.97 477.715 253.466 477.214 C 252.963 476.713 252.68 476.032 252.68 475.322 L 252.68 475.322 C 252.68 473.841 253.881 472.64 255.362 472.64 L 266.09 472.64 C 267.571 472.64 268.772 473.841 268.772 475.322 L 268.772 475.322 C 268.772 476.032 268.489 476.713 267.986 477.214 C 267.483 477.715 266.8 477.995 266.09 477.992 Z M 294.209 441.541 C 287.995 441.541 282.957 446.579 282.957 452.793 C 282.957 459.008 287.995 464.046 294.209 464.046 C 300.424 464.046 305.462 459.008 305.462 452.793 C 305.465 449.808 304.281 446.944 302.17 444.833 C 300.059 442.722 297.195 441.537 294.209 441.541 Z M 294.209 458.396 C 291.938 458.396 289.89 457.026 289.021 454.927 C 288.153 452.828 288.636 450.412 290.244 448.807 C 291.852 447.202 294.269 446.725 296.366 447.598 C 298.464 448.47 299.829 450.521 299.824 452.793 C 299.824 454.281 299.232 455.708 298.179 456.759 C 297.125 457.81 295.697 458.399 294.209 458.396 Z" fill="rgb(250, 235, 179)" stroke-width="1.18" stroke="rgb(38,50,56)" stroke-linecap="round" stroke-linejoin="round"></path>
  <path d="M 305.402 451.613 C 304.791 445.914 300.001 441.581 294.269 441.541 L 294.269 447.179 C 297.346 447.211 299.824 449.716 299.824 452.793 C 299.812 453.009 299.788 453.224 299.752 453.437 Z" fill="rgb(38,50,56)" stroke-width="1.18" stroke="rgb(38,50,56)" stroke-linecap="round" stroke-linejoin="round"></path>
  <path d="M 299.573 477.992 L 288.845 477.992 C 288.135 477.995 287.453 477.715 286.95 477.214 C 286.446 476.713 286.163 476.032 286.163 475.322 L 286.163 475.322 C 286.163 473.841 287.364 472.64 288.845 472.64 L 299.573 472.64 C 301.055 472.64 302.255 473.841 302.255 475.322 L 302.255 475.322 C 302.255 476.032 301.973 476.713 301.469 477.214 C 300.966 477.715 300.284 477.995 299.573 477.992 Z M 327.943 441.541 C 321.728 441.541 316.691 446.579 316.691 452.793 C 316.691 459.008 321.728 464.046 327.943 464.046 C 334.158 464.046 339.196 459.008 339.196 452.793 C 339.199 449.808 338.014 446.944 335.903 444.833 C 333.792 442.722 330.928 441.537 327.943 441.541 Z M 327.943 458.396 C 325.671 458.396 323.623 457.026 322.755 454.927 C 321.887 452.828 322.369 450.412 323.977 448.807 C 325.586 447.202 328.002 446.725 330.1 447.598 C 332.197 448.47 333.562 450.521 333.557 452.793 C 333.557 454.281 332.965 455.708 331.912 456.759 C 330.859 457.81 329.431 458.399 327.943 458.396 Z" fill="rgb(250, 235, 179)" stroke-width="1.18" stroke="rgb(38,50,56)" stroke-linecap="round" stroke-linejoin="round"></path>
  <path d="M 328.003 441.541 L 328.003 447.179 C 330.607 447.183 332.866 448.977 333.46 451.513 C 334.054 454.048 332.826 456.66 330.495 457.82 C 328.163 458.98 325.34 458.384 323.676 456.381 L 319.218 459.862 C 322.509 463.92 328.164 465.175 332.864 462.89 C 337.564 460.604 340.068 455.381 338.908 450.285 C 337.747 445.19 333.228 441.566 328.003 441.541 Z" fill="rgb(38,50,56)" stroke-width="1.18" stroke="rgb(38,50,56)" stroke-linecap="round" stroke-linejoin="round"></path>
  <path d="M 333.307 477.992 L 322.579 477.992 C 321.869 477.995 321.187 477.715 320.683 477.214 C 320.18 476.713 319.897 476.032 319.897 475.322 L 319.897 475.322 C 319.894 474.61 320.175 473.926 320.679 473.422 C 321.183 472.918 321.867 472.637 322.579 472.64 L 333.307 472.64 C 334.788 472.64 335.989 473.841 335.989 475.322 L 335.989 475.322 C 335.989 476.032 335.706 476.713 335.203 477.214 C 334.699 477.715 334.017 477.995 333.307 477.992 Z" fill="rgb(250, 235, 179)" stroke-width="1.18" stroke="rgb(38,50,56)" stroke-linecap="round" stroke-linejoin="round"></path>
  <path d="M 162.064 217.755 C 162.064 189.947 184.607 167.404 212.414 167.404 C 240.222 167.404 262.764 189.947 262.764 217.755 C 262.764 245.562 240.222 268.105 212.414 268.105 C 184.607 268.105 162.064 245.562 162.064 217.755 Z" fill="rgb(255,255,255)"></path>
  <path d="M 227.672 497.875 C 227.672 497.875 234.943 508.805 233.942 513.132 C 232.941 517.459 226.552 516.124 223.524 511.463 C 220.496 506.803 212.796 499.841 214.19 496.849 C 215.585 493.858 224.954 495.216 227.672 497.875 Z M 196.43 497.267 C 196.43 497.267 187.645 510.307 189.051 513.871 C 190.458 517.435 195.011 516.374 198.492 513.156 C 201.972 509.938 208.922 500.902 208.922 500.902 C 208.922 500.902 203.081 493.703 196.43 497.267 Z" fill="rgb(255,255,255)" stroke-width="1.22" stroke="rgb(38,50,56)" stroke-linecap="round" stroke-linejoin="round"></path>
  <path d="M 189.051 513.871 C 191.434 514.199 193.857 513.725 195.941 512.524 C 199.946 510.498 206.931 501.355 206.931 501.355 M 216.634 499.031 C 216.634 499.031 220.437 506.183 224.716 510.236 C 228.995 514.288 231.093 515.445 233.906 513.132" fill="transparent" stroke-width="0.91" stroke="rgb(38,50,56)" stroke-linecap="round" stroke-linejoin="round"></path>
  <path d="M 184.092 334.535 C 184.092 334.535 176.404 350.222 176.75 356.634 C 177.095 363.047 178.502 395.494 180.6 406.186 C 182.698 416.878 184.76 443.507 186.19 454.152 C 187.621 464.797 196.787 489.733 196.787 489.733 C 196.787 489.733 195.381 495.443 196.43 497.219 C 197.479 498.995 208.576 501.927 208.922 500.855 C 209.268 499.782 211.02 496.575 211.306 493.369 C 211.592 490.162 206.419 455.94 208.517 448.454 C 210.614 440.968 211.02 390.642 211.306 385.457 C 211.592 380.272 211.222 371.153 211.222 371.153 C 212.498 371.546 213.883 371.126 214.727 370.092 C 216.122 368.304 220.746 416.759 222.153 428.166 C 223.56 439.574 220.401 442.78 219.352 449.908 C 218.303 457.037 215.859 480.197 215.859 483.058 C 215.859 485.919 212.712 495.169 214.107 496.957 C 215.502 498.745 218.47 498.447 219.686 498.78 C 223.333 499.794 226.182 498.208 227.577 497.851 C 228.971 497.493 230.151 492.332 230.151 492.332 C 230.151 492.332 241.38 460.601 243.478 447.405 C 245.576 434.21 249.068 409.726 248.377 394.755 C 247.686 379.783 243.478 349.459 243.478 349.459 L 242.429 340.542 Z" fill="rgb(38,50,56)" stroke-width="1.22" stroke="rgb(38,50,56)" stroke-linecap="round" stroke-linejoin="round"></path>
  <path d="M 179.181 352.677 C 179.181 352.677 178.502 361.474 184.259 367.219 M 179.515 365.193 C 179.515 365.193 182.9 370.95 186.965 371.618" fill="transparent" stroke-width="0.6" stroke="rgb(255,255,255)" stroke-linecap="round" stroke-linejoin="round"></path>
  <path d="M 206.574 461.459 C 206.574 461.459 201.806 472.831 201.162 479.041 C 200.518 485.251 206.574 482.832 207.932 486.968 C 209.291 491.104 199.815 490.77 201.508 491.795 C 203.2 492.82 208.266 493.524 208.266 493.524 M 215.752 489.733 C 216.765 489.388 228.268 487.349 226.909 481.115 C 225.55 474.881 218.792 474.559 219.757 467.324 C 220.723 460.088 231.248 444.211 231.248 439.729 C 231.248 435.247 223.81 418.547 223.13 408.2" fill="transparent" stroke-width="0.61" stroke="rgb(255,255,255)" stroke-linecap="round" stroke-linejoin="round"></path>
  <path d="M 232.285 352.01 C 232.285 352.01 224.501 363.167 223.488 364.859 C 222.475 366.552 232.619 357.421 232.619 357.421 M 211.926 348.064 C 211.926 348.064 212.772 356.217 212.772 357.898 L 212.772 367.184 M 212.772 362.13 C 212.772 362.13 216.431 361.569 217.266 358.756 C 218.1 355.943 217.838 350.317 217.838 350.317" fill="transparent" stroke-width="0.6" stroke="rgb(255,255,255)" stroke-linecap="round" stroke-linejoin="round"></path>
  <path d="M 283.398 251.321 C 279.202 239.079 278.499 232.44 278.153 228.947 C 277.808 225.455 273.957 226.492 273.957 226.492 C 273.957 226.492 265.613 231.391 265.613 232.452 C 265.613 233.513 269.464 259.379 270.155 263.921 C 270.575 266.583 270.81 269.272 270.858 271.967 C 270.858 271.967 256.173 256.232 252.323 252.382 C 249.39 249.438 247.066 246.923 244.575 245.421 C 243.228 244.229 240.891 243.788 237.291 242.596 C 230.998 240.498 224.358 235.599 216.658 235.944 C 211.603 236.292 206.64 237.476 201.972 239.449 C 201.972 239.449 190.792 244.694 183.091 248.186 C 182.194 248.587 181.343 249.082 180.552 249.664 C 179.289 249.509 176.654 250.189 173.651 256.924 C 169.467 266.364 150.585 291.194 147.427 299.931 C 144.268 308.668 150.919 317.418 158.262 324.403 C 163.56 329.612 168.577 335.099 173.293 340.84 L 181.637 330.565 C 181.873 332.852 182.271 335.118 182.829 337.348 C 183.878 340.84 187.37 344.691 201.365 345.692 C 215.359 346.693 246.792 348.624 245.767 341.496 C 244.324 331.364 245.063 298.834 244.372 290.097 C 244.167 284.493 244.283 278.881 244.718 273.29 C 246.327 275.328 249.486 279.107 251.691 280.597 C 254.838 282.695 268.14 292.517 273.385 294.639 C 278.63 296.76 285.973 293.244 289.12 286.295 C 292.266 279.345 287.594 263.563 283.398 251.321 Z M 169.419 309.36 C 168.012 303.769 167.321 301.671 167.321 301.671 C 167.321 301.671 176.285 292.016 180.6 286.867 C 181.184 300.682 181.554 315.797 181.148 318.014 C 180.83 321.731 180.914 325.472 181.399 329.171 C 179.062 325.964 170.611 314.175 169.419 309.36 Z" fill="rgb(250, 235, 179)" stroke-width="1.21" stroke="rgb(38,50,56)" stroke-linecap="round" stroke-linejoin="round"></path>
  <path d="M 283.398 251.321 C 279.202 239.079 278.499 232.44 278.153 228.947 C 277.808 225.455 273.957 226.492 273.957 226.492 C 273.957 226.492 265.613 231.391 265.613 232.452 C 265.613 233.513 269.464 259.379 270.155 263.921 C 270.575 266.583 270.81 269.272 270.858 271.967 C 270.858 271.967 256.173 256.232 252.323 252.382 C 249.39 249.438 247.066 246.923 244.575 245.421 C 243.228 244.229 240.891 243.788 237.291 242.596 C 230.998 240.498 224.358 235.599 216.658 235.944 C 211.603 236.292 206.64 237.476 201.972 239.449 C 201.972 239.449 190.792 244.694 183.091 248.186 C 182.194 248.587 181.343 249.082 180.552 249.664 C 179.289 249.509 176.654 250.189 173.651 256.924 C 169.467 266.364 150.585 291.194 147.427 299.931 C 144.268 308.668 150.919 317.418 158.262 324.403 C 163.56 329.612 168.577 335.099 173.293 340.84 L 181.637 330.565 C 181.873 332.852 182.271 335.118 182.829 337.348 C 183.878 340.84 187.37 344.691 201.365 345.692 C 215.359 346.693 246.792 348.624 245.767 341.496 C 244.324 331.364 245.063 298.834 244.372 290.097 C 244.167 284.493 244.283 278.881 244.718 273.29 C 246.327 275.328 249.486 279.107 251.691 280.597 C 254.838 282.695 268.14 292.517 273.385 294.639 C 278.63 296.76 285.973 293.244 289.12 286.295 C 292.266 279.345 287.594 263.563 283.398 251.321 Z M 169.419 309.36 C 168.012 303.769 167.321 301.671 167.321 301.671 C 167.321 301.671 176.285 292.016 180.6 286.867 C 181.184 300.682 181.554 315.797 181.148 318.014 C 180.83 321.731 180.914 325.472 181.399 329.171 C 179.062 325.964 170.611 314.175 169.419 309.36 Z" fill="rgb(0,0,0)" opacity="0.1"></path>
  <path d="M 184.927 285.365 C 187.14 282.042 189.066 278.537 190.684 274.887 M 193.724 275.9 C 192.915 277.587 191.761 279.085 190.339 280.299" fill="transparent" stroke-width="0.91" stroke="rgb(38,50,56)" stroke-linecap="round" stroke-linejoin="round"></path>
  <path d="M 270.81 271.955 C 270.905 276.024 272.622 279.886 275.578 282.683 M 272.193 277.593 C 271.909 280.774 272.621 283.965 274.232 286.724" fill="transparent" stroke-width="1.21" stroke="rgb(38,50,56)" stroke-linecap="round" stroke-linejoin="round"></path>
  <path d="M 167.321 301.671 C 167.321 301.671 164.746 299.228 158.393 300.289 M 154.877 298.882 C 154.877 298.882 156.641 296.057 163.328 298.167 M 252.156 262.574 C 250.749 262.919 244.753 273.147 244.753 273.147 L 259.212 269.273" fill="transparent" stroke-width="0.91" stroke="rgb(38,50,56)" stroke-linecap="round" stroke-linejoin="round"></path>
  <path d="M 210.638 255.601 C 210.638 255.601 213.344 259.32 219.435 257.639 C 225.526 255.958 227.553 249.521 226.587 245.457 C 225.622 241.392 205.227 244.777 210.638 255.601 Z" fill="rgb(255,255,255)" stroke-width="1.21" stroke="rgb(38,50,56)" stroke-linecap="round" stroke-linejoin="round"></path>
  <path d="M 204.845 232.44 C 204.845 232.44 200.757 235.158 200.22 237.613 C 199.684 240.069 201.031 247.948 202.116 250.666 C 203.2 253.383 206.752 259.641 206.752 259.641 C 206.752 259.641 218.994 252.573 219.864 252.025 C 220.735 251.476 229.4 256.375 231.296 255.601 C 233.191 254.826 226.671 238.185 223.679 234.657 C 220.687 231.129 209.196 229.162 204.845 232.44 Z" fill="rgb(255,255,255)" stroke-width="1.21" stroke="rgb(38,50,56)" stroke-linecap="round" stroke-linejoin="round"></path>
  <path d="M 202.64 223.452 C 202.64 223.452 202.914 227.803 203.462 234.335 C 204.011 240.867 206.216 246.029 209.792 249.021 C 213.368 252.013 218.494 253.646 219.852 252.013 C 221.211 250.38 222.844 243.585 222.236 239.497 C 221.629 235.408 220.878 226.718 220.878 226.718 Z" fill="rgb(255,255,255)" stroke-width="1.21" stroke="rgb(38,50,56)" stroke-linecap="round" stroke-linejoin="round"></path>
  <path d="M 221.712 234.407 C 221.307 230.604 220.937 226.718 220.937 226.718 L 202.64 223.452 C 202.64 223.452 202.914 227.803 203.462 234.335 C 203.67 237.356 204.366 240.323 205.525 243.12 Z" fill="rgb(175,222,233)" opacity="0.5"></path>
  <path d="M 196.68 216.944 C 196.68 216.944 192.603 212.867 191.781 216.396 C 190.958 219.924 194.236 225.383 198.861 224.013 L 198.861 220.758 Z" fill="rgb(255,255,255)" stroke-width="1.21" stroke="rgb(38,50,56)" stroke-linecap="round" stroke-linejoin="round"></path>
  <path d="M 196.68 216.944 C 196.68 216.944 192.603 212.867 191.781 216.396 C 190.958 219.924 194.236 225.383 198.861 224.013 L 198.861 220.758 Z" fill="rgb(175,222,233)" opacity="0.5" stroke-width="1.21" stroke="rgb(38,50,56)" stroke-linecap="round" stroke-linejoin="round"></path>
  <path d="M 193.104 209.577 C 193.104 209.577 199.91 227.803 205.894 231.343 C 211.878 234.884 223.846 238.138 227.112 225.383 C 230.378 212.629 221.676 194.093 218.684 188.646 C 215.692 183.198 204.535 181.577 197.467 187.013 C 190.398 192.448 188.789 197.598 193.104 209.577 Z" fill="rgb(255,255,255)" stroke-width="1.21" stroke="rgb(38,50,56)" stroke-linecap="round" stroke-linejoin="round"></path>
  <path d="M 200.649 194.141 C 203.538 192.805 206.67 192.075 209.852 191.995 L 216.634 186.286 C 212.176 182.853 203.415 182.436 197.502 186.989 C 190.422 192.436 188.789 197.598 193.14 209.577 C 193.14 209.577 199.946 227.803 205.93 231.343 C 208.052 232.591 210.351 233.511 212.748 234.073 C 209.864 230.354 205.429 224.442 204.023 221.426 C 201.877 216.825 200.959 207.325 198.194 201.806 C 195.428 196.287 196.358 196.287 200.649 194.141 Z" fill="rgb(175,222,233)" opacity="0.5"></path>
  <path d="M 214.906 204.13 C 214.906 204.13 217.623 209.029 216.539 210.09 C 215.791 210.735 214.76 210.943 213.821 210.638" fill="transparent" stroke-width="1.21" stroke="rgb(38,50,56)" stroke-linecap="round" stroke-linejoin="round"></path>
  <path d="M 202.39 203.319 C 202.39 203.319 202.938 200.053 207.015 200.053" fill="transparent" stroke-width="2.42" stroke="rgb(38,50,56)" stroke-linecap="round" stroke-linejoin="round"></path>
  <path d="M 204.845 206.586 C 204.845 206.586 207.837 207.944 208.922 204.952 M 217.898 204.404 C 217.898 204.404 220.89 205.763 221.986 202.771" fill="transparent" stroke-width="1.21" stroke="rgb(38,50,56)" stroke-linecap="round" stroke-linejoin="round"></path>
  <path d="M 215.418 198.158 C 216.926 196.621 219.369 196.522 220.997 197.932" fill="transparent" stroke-width="2.42" stroke="rgb(38,50,56)" stroke-linecap="round" stroke-linejoin="round"></path>
  <path d="M 227.672 214.906 C 224.501 213.523 216.944 210.471 214.417 211.747 C 211.151 213.38 202.712 219.102 202.712 223.452 C 202.712 223.452 197.276 216.11 197.276 213.38 C 197.276 210.65 199.445 209.804 197.55 206.311 C 195.655 202.819 192.913 202.497 193.736 198.42 C 194.487 194.642 202.008 190.637 205.656 190.076 C 207.934 192.004 210.836 193.038 213.821 192.985 C 219.781 192.985 224.704 189.158 224.704 184.414 C 224.704 179.67 219.829 175.856 213.821 175.856 C 212.484 175.85 211.153 176.047 209.875 176.44 C 204.178 176.023 203.093 180.242 199.147 182.555 C 195.202 184.867 192.723 191.686 192.723 191.686 L 192.889 191.686 C 190.005 195.905 190.017 200.995 193.152 209.566 C 193.152 209.566 199.958 227.791 205.942 231.331 C 211.926 234.872 223.893 238.126 227.159 225.371 C 227.953 221.941 228.126 218.397 227.672 214.906 Z" fill="rgb(38,50,56)" stroke-width="1.21" stroke="rgb(38,50,56)" stroke-linecap="round" stroke-linejoin="round"></path>
  <path d="M 221.176 214.632 C 221.176 214.632 217.099 220.341 212.474 216.539" fill="transparent" stroke-width="1.21" stroke="rgb(255,255,255)" stroke-linecap="round" stroke-linejoin="round"></path>
  <path d="M 181.995 329.993 C 183.61 331.013 185.031 332.313 186.19 333.832 C 187.611 335.776 189.131 337.646 190.744 339.434 C 190.744 339.434 194.582 339.78 194.236 341.532 C 193.891 343.284 193.187 344.321 191.435 344.321 C 189.683 344.321 185.845 340.829 185.845 340.829 L 180.254 349.566 C 180.254 349.566 175.009 345.728 173.257 340.829 Z" fill="rgb(255,255,255)" stroke-width="1.21" stroke="rgb(38,50,56)" stroke-linecap="round" stroke-linejoin="round"></path>
  <path d="M 162.064 217.755 C 162.064 189.947 184.607 167.404 212.414 167.404 C 240.222 167.404 262.764 189.947 262.764 217.755 C 262.764 245.562 240.222 268.105 212.414 268.105 C 184.607 268.105 162.064 245.562 162.064 217.755 Z" fill="transparent" stroke-width="2.42" stroke="rgb(38,50,56)" stroke-linecap="round" stroke-linejoin="round"></path>
  <path d="M 257.877 207.968 C 257.877 207.968 254.373 207.611 253.681 209.709 C 252.99 211.806 251.929 213.904 251.929 215.311 C 251.929 216.718 252.275 217.755 254.027 218.1 C 255.779 218.446 256.828 216.002 256.828 216.002 Z M 258.569 205.513 C 258.569 205.513 256.828 214.953 256.828 217.755 C 256.905 219.908 257.636 221.988 258.926 223.715 C 259.564 224.437 260.423 224.928 261.37 225.109 L 263.122 223.011 C 263.122 223.011 261.024 225.812 263.813 229.305 C 266.603 232.798 268.713 232.452 271.156 231.403 C 273.6 230.354 274.303 228.959 273.254 225.109 C 272.205 221.259 271.514 214.965 270.81 211.127 C 270.107 207.289 267.664 205.882 266.269 205.882 C 264.874 205.882 261.048 204.464 258.569 205.513 Z" fill="rgb(255,255,255)" stroke-width="1.21" stroke="rgb(38,50,56)" stroke-linecap="round" stroke-linejoin="round"></path>
  <path d="M 257.293 219.721 C 257.293 219.721 256.673 217.552 259.308 217.242 C 261.942 216.932 266.293 216.467 266.293 216.467 M 257.603 214.143 C 257.603 214.143 263.647 212.581 265.828 212.891 M 258.068 209.792 C 260.323 209.391 262.608 209.184 264.898 209.172 M 260.082 221.426 C 261.053 222.299 262.384 222.65 263.658 222.368" fill="transparent" stroke-width="0.6" stroke="rgb(38,50,56)" stroke-linecap="round" stroke-linejoin="round"></path>
</svg>