<svg id="Logo" xmlns="http://www.w3.org/2000/svg" xmlns:xlink="http://www.w3.org/1999/xlink" viewBox="0 0 300 335.22"><defs><style>.cls-1{fill:#1d1d1b;}.cls-2{fill:url(#linear-gradient);}.cls-3{fill:url(#linear-gradient-2);}.cls-4{fill:url(#linear-gradient-3);}.cls-5{fill:url(#linear-gradient-4);}.cls-6,.cls-9{opacity:0.8;}.cls-6{fill:url(#linear-gradient-5);}.cls-7{opacity:0.7;fill:url(#linear-gradient-6);}.cls-8{fill:url(#linear-gradient-7);}.cls-9{fill:url(#linear-gradient-8);}</style><linearGradient id="linear-gradient" x1="303.25" y1="334.1" x2="303.25" y2="64.23" gradientUnits="userSpaceOnUse"><stop offset="0" stop-color="#badee8"/><stop offset="1" stop-color="#9bcbda"/></linearGradient><linearGradient id="linear-gradient-2" x1="100" y1="168.03" x2="295" y2="168.03" gradientUnits="userSpaceOnUse"><stop offset="0" stop-color="#f9d8d5"/><stop offset="0.51" stop-color="#f8e2be"/><stop offset="0.94" stop-color="#f8e9ae"/></linearGradient><linearGradient id="linear-gradient-3" x1="100" y1="266.97" x2="324.38" y2="266.97" gradientUnits="userSpaceOnUse"><stop offset="0.26" stop-color="#f9d8d5"/><stop offset="1" stop-color="#badee8"/></linearGradient><linearGradient id="linear-gradient-4" x1="248.44" y1="371.21" x2="248.44" y2="371.2" gradientUnits="userSpaceOnUse"><stop offset="0" stop-color="#99c8d7"/><stop offset="1" stop-color="#c2e1ea"/></linearGradient><linearGradient id="linear-gradient-5" x1="106.93" y1="243.16" x2="244.81" y2="105.27" gradientUnits="userSpaceOnUse"><stop offset="0" stop-color="#c29da3"/><stop offset="0.01" stop-color="#c39ea4" stop-opacity="0.99"/><stop offset="0.17" stop-color="#dcc7cb" stop-opacity="0.57"/><stop offset="0.31" stop-color="#efe5e7" stop-opacity="0.26"/><stop offset="0.41" stop-color="#fbf8f8" stop-opacity="0.07"/><stop offset="0.46" stop-color="#fff" stop-opacity="0"/></linearGradient><linearGradient id="linear-gradient-6" x1="132" y1="177.48" x2="290.67" y2="336.14" gradientUnits="userSpaceOnUse"><stop offset="0.58" stop-color="#fff" stop-opacity="0"/><stop offset="1" stop-color="#72878d"/></linearGradient><linearGradient id="linear-gradient-7" x1="303.69" y1="346.75" x2="303.69" y2="89.66" xlink:href="#linear-gradient-4"/><linearGradient id="linear-gradient-8" x1="294.99" y1="155.97" x2="295" y2="155.96" xlink:href="#linear-gradient-5"/></defs><path class="cls-1" d="M324.35,231.9c0,.15,0,.28,0,.42.07-.8.14-1.61.2-2.42C324.51,230.57,324.44,231.24,324.35,231.9Z" transform="translate(-100 -35.99)"/><path class="cls-2" d="M399,36A37.5,37.5,0,0,0,362.5,73.49V212.56A152.56,152.56,0,0,1,209.94,365.12l-2.47,0A150.09,150.09,0,0,0,324.38,232.32c.07-.8.14-1.61.2-2.42A74.43,74.43,0,0,0,325,222V111a75,75,0,0,1,74-75Z" transform="translate(-100 -35.99)"/><path class="cls-3" d="M175,96V222a75,75,0,0,0,94.88,72.33A131.28,131.28,0,0,1,100,168.82V36h75A119.84,119.84,0,0,1,295,156a151.13,151.13,0,0,0-13.94-16A149.53,149.53,0,0,0,175,96Z" transform="translate(-100 -35.99)"/><path class="cls-4" d="M324.38,232.32a150.09,150.09,0,0,1-117,132.8A149.84,149.84,0,0,1,100,223.5c0-.75,0-1.5,0-2.24V168.82A131.35,131.35,0,0,0,269.88,294.29a74.43,74.43,0,0,0,10.21-3.61s0,0,.06,0a75.11,75.11,0,0,0,44.2-58.75C324.36,232.05,324.37,232.18,324.38,232.32Z" transform="translate(-100 -35.99)"/><path class="cls-5" d="M250.58,371.2h0Z" transform="translate(-100 -35.99)"/><path class="cls-6" d="M175,96V222a75,75,0,0,0,94.88,72.33A131.28,131.28,0,0,1,100,168.82V36h75A119.84,119.84,0,0,1,295,156a151.13,151.13,0,0,0-13.94-16A149.53,149.53,0,0,0,175,96Z" transform="translate(-100 -35.99)"/><path class="cls-7" d="M324.38,232.32a150.09,150.09,0,0,1-117,132.8A149.84,149.84,0,0,1,100,223.5c0-.75,0-1.5,0-2.24V168.82A131.35,131.35,0,0,0,269.88,294.29a74.43,74.43,0,0,0,10.21-3.61s0,0,.06,0a75.11,75.11,0,0,0,44.2-58.75C324.36,232.05,324.37,232.18,324.38,232.32Z" transform="translate(-100 -35.99)"/><path class="cls-8" d="M400,36V221.26c0,.74,0,1.49,0,2.23A150,150,0,0,1,257.85,371.06c-1.4.07-4.48.12-7.27.14h-4.29l-1,0a149.27,149.27,0,0,1-37.86-6.06l.09,0,2.47,0A152.56,152.56,0,0,0,362.5,212.56V73.49A37.5,37.5,0,0,1,399,36Z" transform="translate(-100 -35.99)"/><path class="cls-9" d="M295,156h0v0Z" transform="translate(-100 -35.99)"/></svg>