<svg id="Layer_1" enable-background="new 0 0 256 256" height="512" viewBox="0 0 256 256" width="512" xmlns="http://www.w3.org/2000/svg"><g><path d="m185.146 130.843c0 31.638-25.687 57.148-57.147 57.148-31.508 0-57.147-25.556-57.147-57.148 0-31.585 25.591-57.176 57.147-57.176s57.147 25.591 57.147 57.176z" fill="#f0c020"/><path d="m101.316 118.792h53.367v36.583h-53.367z" fill="#fc5d3d"/><path d="m127.989 180.464c-27.467 0-49.625-22.152-49.625-49.625 0-13.275 5.156-25.743 14.52-35.106.976-.977 2.56-.977 3.535 0 .977.976.977 2.559 0 3.535-8.418 8.419-13.055 19.631-13.055 31.571 0 24.703 19.915 44.625 44.625 44.625 6.974 0 13.929-1.646 20.115-4.761 1.231-.622 2.736-.125 3.356 1.108.621 1.233.125 2.736-1.108 3.357-6.879 3.465-14.613 5.296-22.363 5.296zm27.679-11.372c-.868-1.074-.701-2.648.373-3.516 1.218-.984 2.401-2.05 3.518-3.167.977-.977 2.56-.976 3.536 0 .977.976.977 2.559.001 3.536-1.241 1.241-2.557 2.425-3.912 3.521-1.077.869-2.65.697-3.516-.374z" fill="#f9e5af"/><g fill="#72c1e8"><path d="m197.779 190.648v8.337c4.411 3.117 9.756 4.752 15.186 4.747 5.237-.004 10.552-1.533 15.186-4.727v-8.357c0-4.889-3.335-8.985-7.863-10.148-.823-.216-1.101-1.276-.504-1.873 1.914-1.945 3.005-4.683 2.707-7.688-.443-4.415-4.014-8.038-8.429-8.532-5.774-.638-10.663 3.87-10.663 9.51 0 2.604 1.04 4.951 2.717 6.68.607.618.371 1.688-.473 1.904-4.529 1.162-7.864 5.258-7.864 10.147z"/><path d="m112.81 43.487v8.337c8.666 6.124 20.934 6.525 30.372.021v-8.357c0-4.889-3.335-8.985-7.863-10.148-.823-.216-1.101-1.276-.504-1.873 1.914-1.945 3.005-4.683 2.707-7.688-.443-4.415-4.014-8.038-8.429-8.532-5.774-.638-10.663 3.87-10.663 9.51 0 2.604 1.04 4.95 2.717 6.68.607.618.37 1.688-.473 1.904-4.529 1.161-7.864 5.258-7.864 10.146z"/><path d="m27.844 92.543v8.337c4.469 3.158 9.83 4.752 15.186 4.747 5.237-.004 10.552-1.533 15.186-4.727v-8.357c0-4.889-3.335-8.985-7.863-10.148-.823-.216-1.101-1.276-.504-1.873 1.914-1.945 3.005-4.683 2.707-7.688-.47-4.686-4.497-8.596-9.525-8.592-5.283.004-9.566 4.291-9.566 9.57 0 2.604 1.04 4.95 2.717 6.68.607.618.371 1.688-.473 1.904-4.531 1.162-7.865 5.258-7.865 10.147z"/><path d="m197.777 92.543v8.337c4.415 3.12 9.767 4.755 15.204 4.747 5.23-.008 10.538-1.536 15.168-4.727v-8.357c0-4.889-3.335-8.985-7.863-10.148-.823-.216-1.101-1.276-.504-1.873 1.914-1.945 3.005-4.683 2.707-7.688-.469-4.678-4.483-8.583-9.5-8.592-5.295-.01-9.591 4.283-9.591 9.57 0 2.604 1.04 4.95 2.717 6.68.607.618.37 1.688-.473 1.904-4.53 1.162-7.865 5.258-7.865 10.147z"/><path d="m112.81 239.71v8.337c4.411 3.117 9.755 4.751 15.184 4.747 5.238-.004 10.554-1.533 15.188-4.727v-8.357c0-4.889-3.335-8.985-7.863-10.148-.823-.216-1.101-1.276-.504-1.873 1.914-1.945 3.005-4.683 2.707-7.688-.469-4.678-4.483-8.583-9.5-8.592-5.295-.01-9.591 4.283-9.591 9.57 0 2.604 1.04 4.951 2.717 6.68.607.618.37 1.688-.473 1.904-4.53 1.162-7.865 5.258-7.865 10.147z"/><path d="m27.843 190.654v8.337c4.333 3.062 9.566 4.693 14.897 4.746s10.757-1.473 15.475-4.725v-8.357c0-4.889-3.335-8.985-7.863-10.148-.823-.216-1.101-1.276-.504-1.873 1.914-1.945 3.005-4.683 2.707-7.688-.443-4.415-4.014-8.038-8.429-8.532-5.774-.638-10.663 3.87-10.663 9.51 0 2.604 1.04 4.951 2.717 6.68.607.618.37 1.688-.473 1.904-4.529 1.161-7.864 5.258-7.864 10.146z"/></g><path d="m98.63 78.89c-1.19.68-1.62 2.21-.94 3.4.699 1.227 2.243 1.613 3.41.95 1.2-.68 1.62-2.21.94-3.41-.65-1.16-2.24-1.6-3.41-.94z"/><path d="m235.95 163.27c-1.233.595-1.772 2.048-1.181 3.34.613 1.255 2.134 1.773 3.34 1.17 1.195-.557 1.787-2.028 1.181-3.33-.58-1.2-2.13-1.76-3.34-1.18z"/><path d="m13.92 174.96c-.753 9.877 3.752 20.039 12.47 26.07h.008c3.986 2.99 10.148 5.223 16.572 5.223 16.374 0 29.271-13.306 29.241-29.163.008-4.288-.948-8.53-2.758-12.405l6.918-3.991c10.073 17.408 28.385 28.888 49.129 29.735v6.613c-15.894 1.4-26.948 14.867-26.68 29.457.276 15.057 12.409 28.811 29.116 28.811h.001s0 0 .001 0c16.728 0 29.463-13.765 29.256-29.477-.188-14.27-10.987-27.464-26.694-28.805v-6.599c20.628-.845 39.006-12.244 49.133-29.737l6.921 3.997c-1.81 3.866-2.774 8.084-2.774 12.342 0 16.218 13.229 29.217 29.125 29.217 17.143 0 30.396-14.548 29.164-31.287-.1-1.37-1.31-2.41-2.67-2.32-1.371.103-2.413 1.287-2.31 2.68.473 6.965-1.989 13.451-6.438 18.233v-2.905c0-5.217-3.104-9.847-7.749-11.883 1.615-2.339 2.362-5.188 2.075-8.075-.563-5.612-5.036-10.141-10.642-10.768-7.23-.799-13.438 4.852-13.438 11.995 0 2.47.745 4.839 2.134 6.848-4.652 2.041-7.753 6.668-7.753 11.883v2.886c-4.123-4.421-6.491-10.298-6.499-16.504 0-13.272 10.83-24.16 24.21-24.16 5.836 0 11.773 2.146 16.46 6.48.97.9 2.63.84 3.529-.13.94-1.01.88-2.59-.13-3.53-5.317-4.954-12.417-7.82-19.87-7.82-9.166 0-18.245 4.329-23.928 12.487l-7.09-4.094c3.783-8.024 5.689-16.566 5.689-25.422 0-10.296-2.577-20.431-7.97-29.785l9.376-5.414c5.816 8.394 14.874 12.498 23.908 12.485 15.826-.024 28.051-12.255 29.103-27.061 1.215-17.089-12.36-31.319-29.103-31.309-17.023.011-30.325 14.446-29.054 31.315.266 3.537 1.168 7.01 2.661 10.231l-9.569 5.525c-10.871-15.646-28.095-24.842-46.503-25.596v-12.27c16.992-1.488 26.798-15.588 26.642-29.712-.187-16.925-14.31-28.578-29.144-28.552-16.51.027-29.305 13.562-29.168 29.301.124 14.33 10.936 27.662 26.671 28.976v12.246c-5.954.245-11.79 1.364-17.379 3.338-1.344.491-1.977 1.909-1.53 3.19.45 1.27 1.92 1.98 3.19 1.53 5.84-2.07 11.97-3.11 18.22-3.11 30.164 0 54.629 24.396 54.649 54.67-.02 30.612-24.887 54.65-54.649 54.65-30.513 0-54.65-24.768-54.65-54.65 0-16.37 7.25-31.75 19.89-42.19 1.06-.87 1.21-2.45.33-3.52-.84-1.02-2.49-1.18-3.52-.33-4.276 3.529-7.984 7.579-11.069 12.018l-9.526-5.501c1.917-4.089 2.803-8.442 2.743-12.736-.229-16.421-13.725-28.879-29.15-28.839-15.374.04-29.495 12.451-29.191 29.549.269 15.136 12.36 28.85 29.113 28.85 9.315 0 18.385-4.434 23.985-12.494l9.362 5.406c-5.157 8.943-7.967 19.165-7.967 29.786 0 8.562 1.765 17.096 5.692 25.424l-7.093 4.092c-5.545-7.941-14.561-12.487-23.889-12.487-7.43 0-14.5 2.78-19.91 7.82-1.01.94-1.06 2.52-.12 3.53.9.97 2.56 1.03 3.53.13 4.48-4.18 10.34-6.48 16.5-6.48 13.226 0 24.15 10.795 24.15 24.22 0 5.903-2.214 11.867-6.495 16.469v-2.905c0-5.217-3.104-9.847-7.75-11.883 1.616-2.34 2.363-5.188 2.076-8.075-.562-5.612-5.036-10.141-10.642-10.768-7.262-.797-13.438 4.879-13.438 11.995 0 2.47.745 4.838 2.133 6.848-4.651 2.04-7.752 6.668-7.752 11.883v2.885c-4.452-4.769-6.905-11.268-6.434-18.22.1-1.38-.94-2.58-2.31-2.67-1.388-.097-2.578.953-2.678 2.313zm192.344 7.962c2.72-.698 3.58-4.099 1.646-6.067-1.297-1.337-2.012-3.091-2.012-4.938 0-4.111 3.557-7.505 7.885-7.026 3.223.361 5.896 3.068 6.22 6.295.213 2.14-.498 4.16-1.985 5.672-1.955 1.952-1.063 5.351 1.648 6.063 3.524.905 5.985 4.083 5.985 7.727v6.985c-3.695 2.278-8.074 3.597-12.722 3.597-4.322 0-8.773-1.172-12.65-3.603v-6.979c0-3.644 2.461-6.821 5.985-7.726zm-.002-98.105c2.72-.698 3.58-4.099 1.646-6.067-1.297-1.337-2.012-3.091-2.012-4.938 0-3.84 3.107-7.068 7.067-7.071 3.734-.003 6.698 2.956 7.038 6.34.213 2.14-.498 4.16-1.985 5.672-1.955 1.952-1.063 5.351 1.648 6.063 3.524.905 5.985 4.083 5.985 7.727v6.984c-3.799 2.341-8.214 3.6-12.686 3.616-4.345.016-8.745-1.141-12.686-3.619v-6.981c0-3.644 2.461-6.821 5.985-7.726zm6.701-30.059c14-.009 25.327 12.009 24.087 26.315-.472 5.449-2.792 10.503-6.401 14.378v-2.908c0-5.217-3.104-9.847-7.749-11.883 1.615-2.339 2.362-5.188 2.075-8.075-.602-6.005-5.7-10.832-11.984-10.844-6.64-.012-12.095 5.378-12.095 12.071 0 2.47.745 4.839 2.134 6.848-4.652 2.041-7.753 6.668-7.753 11.883v2.861c-3.688-3.977-5.877-9.063-6.355-14.342-1.286-14.197 9.903-26.295 24.041-26.304zm-97.652-4.29v-6.98c0-3.644 2.461-6.821 5.984-7.726 2.736-.702 3.571-4.112 1.647-6.066-1.297-1.338-2.011-3.092-2.011-4.939 0-4.088 3.529-7.505 7.885-7.025 3.222.36 5.895 3.067 6.219 6.295.212 2.14-.498 4.16-1.985 5.672-1.955 1.952-1.063 5.351 1.648 6.063 3.524.905 5.985 4.083 5.985 7.727v6.984c-7.57 4.659-17.442 4.98-25.372-.005zm12.727-44.768c12.802 0 23.782 10.199 24.124 23.633.154 6.033-1.927 12.174-6.48 17.062v-2.908c0-5.217-3.104-9.847-7.749-11.883 1.615-2.339 2.362-5.188 2.075-8.075-.563-5.613-5.036-10.141-10.642-10.768-7.228-.801-13.437 4.852-13.437 11.995 0 2.469.745 4.838 2.133 6.848-4.651 2.04-7.752 6.668-7.752 11.883v2.862c-4.154-4.478-6.406-10.365-6.454-16.349-.107-13.301 10.634-24.3 24.182-24.3zm-6.744 226.284c2.746-.704 3.561-4.121 1.647-6.067-1.297-1.337-2.011-3.091-2.011-4.939 0-3.829 3.1-7.071 7.066-7.071 3.743 0 6.698 2.963 7.038 6.341.212 2.14-.498 4.16-1.985 5.672-1.955 1.952-1.063 5.351 1.648 6.063 3.524.905 5.985 4.083 5.985 7.727v6.984c-3.814 2.348-8.144 3.577-12.555 3.613-4.474.034-8.923-1.171-12.817-3.616v-6.98c.001-3.645 2.462-6.822 5.984-7.727zm24.389 10.634v-2.908c0-5.217-3.104-9.847-7.749-11.883 1.615-2.339 2.362-5.188 2.075-8.075-.607-6.057-5.771-10.86-12.015-10.842-6.753.02-12.064 5.491-12.064 12.068 0 2.47.745 4.839 2.133 6.849-4.651 2.04-7.752 6.668-7.752 11.883v2.862c-4.376-4.718-6.396-10.394-6.469-15.988-.166-12.529 9.428-24.645 24.171-24.658 13.961-.013 24.129 11.533 24.191 24.157.029 6.315-2.513 12.233-6.521 16.535zm-109.355-157.801c2.741-.703 3.566-4.117 1.646-6.067-1.296-1.336-2.011-3.09-2.011-4.938 0-3.836 3.107-7.072 7.066-7.071 3.744 0 6.699 2.964 7.038 6.34.212 2.141-.498 4.161-1.986 5.673-1.95 1.948-1.067 5.349 1.649 6.063 3.524.905 5.985 4.083 5.985 7.727v6.984c-3.956 2.43-8.352 3.605-12.686 3.612-4.479.008-8.892-1.23-12.686-3.616v-6.98c.001-3.645 2.462-6.822 5.985-7.727zm24.388 10.634v-2.908c0-5.217-3.104-9.847-7.749-11.883 1.615-2.339 2.363-5.187 2.076-8.076-.606-6.044-5.757-10.856-12.013-10.842-6.751.016-12.066 5.492-12.066 12.069 0 2.47.745 4.839 2.133 6.848-4.652 2.04-7.752 6.668-7.752 11.883v2.862c-4.08-4.399-6.325-10.156-6.45-16.03-.286-13.517 10.592-24.619 24.177-24.619 12.919 0 23.907 10.383 24.133 23.826.107 6.433-2.356 12.434-6.489 16.87zm-24.389 87.477c2.747-.704 3.562-4.121 1.647-6.067-1.297-1.337-2.011-3.091-2.011-4.938 0-4.068 3.51-7.506 7.885-7.026 3.222.361 5.896 3.068 6.219 6.295.213 2.14-.498 4.16-1.986 5.672-1.954 1.953-1.062 5.351 1.649 6.063 3.524.905 5.985 4.083 5.985 7.727v6.988c-3.694 2.284-8.101 3.597-12.715 3.597-4.31 0-8.731-1.158-12.657-3.608v-6.977c0-3.644 2.461-6.821 5.984-7.726z"/><path d="m17.89 167.79c1.254.588 2.747.059 3.33-1.18.6-1.24.08-2.74-1.17-3.33-1.2-.58-2.75-.03-3.33 1.17v.01c-.61 1.261-.061 2.735 1.17 3.33z"/><path d="m127.832 98.125c-7.72 0-14 6.28-14 14v4.167h-12.516c-1.381 0-2.5 1.119-2.5 2.5v36.583c0 1.381 1.119 2.5 2.5 2.5h53.367c1.381 0 2.5-1.119 2.5-2.5v-36.583c0-1.381-1.119-2.5-2.5-2.5h-12.851v-4.167c0-7.72-6.28-14-14-14zm-9 14c0-4.962 4.038-9 9-9 4.963 0 9 4.038 9 9v4.167h-18zm33.351 9.167v31.583h-48.367v-31.583h10.016v7.708c0 1.381 1.119 2.5 2.5 2.5s2.5-1.119 2.5-2.5v-7.708h18v7.708c0 1.381 1.119 2.5 2.5 2.5s2.5-1.119 2.5-2.5v-7.708z"/></g></svg>