<!-- ProjectBg -->
<svg xmlns="http://www.w3.org/2000/svg" width="954" height="522">
  <g transform="translate(0.658 86.87)">
    <path d="M 520.144 203.603 C 460.645 101.654 299.251 137.962 266.292 88.379 C 249.409 63.026 230.524 33.558 203.131 18.256 C 177.019 3.601 146.745 -1.541 120.352 0.389 C 26.099 7.289 -13.855 91.652 4.248 184.296 C 28.419 307.873 137.919 434.113 268.001 434.992 C 336.044 435.505 401.061 411.08 451.966 376.727 L 453.101 375.957 C 504.006 341.286 565.58 281.433 520.144 203.603 Z" fill="rgba(255, 222, 217, 0.15)"></path>
    <path d="M 520.144 203.603 C 460.645 101.654 299.251 137.962 266.292 88.379 C 249.409 63.026 230.524 33.558 203.131 18.256 C 177.019 3.601 146.745 -1.541 120.352 0.389 C 26.099 7.289 -13.855 91.652 4.248 184.296 C 28.419 307.873 137.919 434.113 268.001 434.992 C 336.044 435.505 401.061 411.08 451.966 376.727 L 453.101 375.957 C 504.006 341.286 565.58 281.433 520.144 203.603 Z" fill="rgba(255, 222, 217, 0.15)" opacity="0.7"></path>
  </g>
</svg>